<?xml version="1.0" encoding="UTF-8" ?>
<svg width="24px" height="24px" viewBox="0 0 24 24" version="1.1" xmlns="http://www.w3.org/2000/svg" xmlns:xlink="http://www.w3.org/1999/xlink">
    <g id="Artboard" stroke="none" stroke-width="1" fill="none" fill-rule="evenodd" stroke-linecap="round" stroke-linejoin="round">
        <g id="ideas" transform="translate(3.000000, 0.000000)" stroke="#666666">
            <path d="M6.38085246,18.5948852 L6.38085246,21.3470164 C6.38085246,21.7240186 6.68647316,22.0296393 7.06347541,22.0296393 L7.39396721,22.0296393 L7.41836066,22.1181639 C7.67417174,23.0480481 8.51989863,23.6922887 9.48432787,23.6919346 L9.48432787,23.6919346 C10.4286191,23.6918173 11.2615121,23.0735397 11.5349508,22.1697049 L11.5778361,22.0280656 L11.9083279,22.0280656 C12.0893707,22.0280656 12.2629986,21.9561466 12.3910152,21.8281299 C12.5190318,21.7001133 12.5909508,21.5264855 12.5909508,21.3454426 L12.5909508,18.5948852 L6.38085246,18.5948852 Z" id="Path_281"></path>
            <path d="M15.5555488,9.99383607 C15.5549023,7.38760602 13.8905305,5.07270194 11.4201845,4.24214423 C8.94983849,3.41158653 6.22501882,4.25079579 4.65000203,6.32727299 C3.07498524,8.40375018 3.00139114,11.2539253 4.46714754,13.408918 C5.60813115,15.0798689 6.37416393,16.570623 6.37416393,18.592918 L12.5976393,18.592918 C12.5976393,16.5773115 13.3518689,15.0869508 14.4928525,13.4254426 C15.1868933,12.4158132 15.5575167,11.2190056 15.5555488,9.99383607 L15.5555488,9.99383607 Z" id="Path_282"></path>
            <path d="M10.2511475,18.544918 C10.3091109,16.3025175 10.8252695,14.0956884 11.7678689,12.0601967 C11.8467392,11.8883311 11.8236895,11.68689 11.708035,11.5372827 C11.5923805,11.3876753 11.4032391,11.314632 11.2170492,11.3476721 C10.9838749,11.4076657 10.764592,11.5124297 10.5714098,11.6561311 C9.87841449,12.1184177 8.975356,12.1184177 8.28236066,11.6561311 C8.08917847,11.5124297 7.86989555,11.4076657 7.63672131,11.3476721 C7.45053139,11.314632 7.26139003,11.3876753 7.14573551,11.5372827 C7.03008099,11.68689 7.00703133,11.8883311 7.08590164,12.0601967 C8.02850099,14.0956884 8.54465958,16.3025175 8.60262295,18.544918" id="Path_283"></path>
            <line x1="2.04865574" y1="13.0209836" x2="0.763278689" y2="13.5179016" id="Line_62"></line>
            <line x1="1.72052459" y1="7.78622951" x2="0.386754098" y2="7.4962623" id="Line_63"></line>
            <line x1="4.33062295" y1="3.59488525" x2="3.39619672" y2="2.67344262" id="Line_64"></line>
            <line x1="9.57993443" y1="1.66859016" x2="9.57993443" y2="0.324983607" id="Line_65"></line>
            <line x1="17.0643934" y1="13.0209836" x2="18.3497705" y2="13.5179016" id="Line_66"></line>
            <line x1="17.4393443" y1="7.78622951" x2="18.7731148" y2="7.4962623" id="Line_67"></line>
            <line x1="14.8292459" y1="3.59488525" x2="15.7636721" y2="2.67344262" id="Line_68"></line>
            <line x1="7.39396721" y1="22.0276721" x2="11.5778361" y2="22.0276721" id="Line_69"></line>
            <line x1="6.5067541" y1="20.3099016" x2="12.4646557" y2="20.3099016" id="Line_70"></line>
        </g>
    </g>
</svg>