<?xml version="1.0" encoding="UTF-8" ?>
<svg width="24px" height="24px" viewBox="0 0 24 24" version="1.1" xmlns="http://www.w3.org/2000/svg" xmlns:xlink="http://www.w3.org/1999/xlink">
    <g id="Artboard" stroke="none" stroke-width="1" fill="none" fill-rule="evenodd" stroke-linecap="round" stroke-linejoin="round">
        <g id="react" transform="translate(2.000000, 1.000000)" stroke="#666666">
            <path d="M8.32272727,0.634739941 C8.78538897,0.241671647 9.37955324,0.0168186524 10,0 C12.7607438,0 15,4.92482826 15,11.0001963 C15,17.0755643 12.7619835,22 10,22 C7.23801653,22 5,17.0751717 5,11.0001963 C5,7.45907753 5.76033058,4.30853778 6.94214876,2.29636899" id="Path_187"></path>
            <path d="M2.32723244,17.9452223 C1.37445832,17.7760447 0.659403062,17.3784402 0.284217402,16.7408571 C-0.98450253,14.5847751 2.11343737,10.4995475 7.20312706,7.615704 C12.2928167,4.7318605 17.4470627,4.14272023 18.7157826,6.29842957 C19.9845025,8.45413892 16.8865626,12.5401118 11.7968729,15.4235826 C9.13867494,16.9294118 6.46414801,17.8084642 4.33379218,18" id="Path_188"></path>
            <circle id="Ellipse_9" cx="10.5" cy="11.5" r="1.5"></circle>
            <circle id="Ellipse_10" cx="8" cy="2" r="1"></circle>
            <circle id="Ellipse_11" cx="4" cy="18" r="1"></circle>
            <circle id="Ellipse_12" cx="19" cy="14" r="1"></circle>
            <path d="M18.2061419,13.2629526 C17.0672407,11.3849358 14.7723546,9.29106772 11.7933685,7.60772562 C6.70627607,4.7329295 1.5519885,4.1451901 0.284011736,6.29441413 C-0.983965024,8.44363816 2.11270756,12.5173186 7.20093886,15.3921147 C12.2891702,18.2669109 17.4419392,18.8550218 18.7102956,16.7054262 C18.9768192,16.2235763 19.0630237,15.665767 18.9540205,15.1283379" id="Path_189"></path>
        </g>
    </g>
</svg>