<?xml version="1.0" encoding="UTF-8" ?>
<svg width="24px" height="24px" viewBox="0 0 24 24" version="1.1" xmlns="http://www.w3.org/2000/svg" xmlns:xlink="http://www.w3.org/1999/xlink">
    <g id="Artboard" stroke="none" stroke-width="1" fill="none" fill-rule="evenodd" stroke-linecap="round" stroke-linejoin="round">
        <g id="rocket" transform="translate(1.000000, 1.000000)" stroke="#666666">
            <path d="M21.942389,2.98147076 C22.2443343,0.600187349 21.3719663,-0.264631276 19.0277532,0.0687263492 C17.1208274,0.33996993 14.3797825,1.91377076 12.8490929,3.44236433 L5.67559485,10.6115747 C5.24302118,11.0438222 5,11.6301028 5,12.2414252 C5,12.8527476 5.24302118,13.4390283 5.67559485,13.8712757 L8.13124452,16.3249643 C9.03215314,17.2250119 10.4925214,17.2250119 11.39343,16.3249643 L18.5676637,9.1553863 C20.0961465,7.6264252 21.6853126,5.01101961 21.942389,2.98147076 Z" id="Path_185"></path>
            <path d="M11.946186,20 L11,16.3387648 L14.6301086,13 L14.6301086,13 C15.4388325,15.0194154 14.8971743,17.2870207 13.2425987,18.8086904 L11.946186,20 Z" id="Path_186"></path>
            <path d="M5.66068286,11 L2,10.0537767 L3.19218585,8.75731294 C4.71361554,7.10263161 6.98096913,6.56107993 9,7.37013118 L9,7.37013118 L5.66068286,11 Z" id="Path_187"></path>
            <line x1="5" y1="12" x2="10" y2="17" id="Line_52"></line>
            <line x1="14" y1="2" x2="20" y2="8" id="Line_53"></line>
            <path d="M20,2 C18.9324558,2.15244496 17.9117195,2.49269038 17,3" id="Path_188"></path>
            <line x1="4" y1="10" x2="5" y2="9" id="Line_54"></line>
            <line x1="12" y1="18" x2="13" y2="17" id="Line_55"></line>
            <path d="M5.1154124,20.2718963 C4.2505279,21.135947 2.76111496,22.0015854 1.90576524,22 C1.80207445,22 2.18108218,19.9289749 2.18108218,19.9289749 L0,20.4215275 C0,20.4215275 0.64955726,17.9571769 1.72380976,16.8839599 C2.79806225,15.810743 4.42811328,15.6992141 5.36450867,16.6347069 C6.30090406,17.5701996 6.1896649,19.1986793 5.1154124,20.2718963 Z" id="Path_189"></path>
            <path d="M4,18.0028351 C3.57991466,17.9625202 3.18633729,18.3549817 3,19" id="Path_190"></path>
            <circle id="Ellipse_18" cx="14" cy="9" r="2"></circle>
            <path d="M13,8.11085031 C13.1325903,7.96890077 13.3124524,7.88914969 13.5,7.88914969 C13.6875476,7.88914969 13.8674097,7.96890077 14,8.11085031" id="Path_191"></path>
        </g>
    </g>
</svg>