<?xml version="1.0" encoding="UTF-8" ?>
<svg width="1064px" height="384px" viewBox="0 0 1064 384" version="1.1" xmlns="http://www.w3.org/2000/svg" xmlns:xlink="http://www.w3.org/1999/xlink">
    <g id="Page-1" stroke="none" stroke-width="1" fill="none" fill-rule="evenodd">
        <g id="Aegon_Logo" fill="var(--hero-icon-color)">
            <path d="M289.375,0.53125 L0.4375,94.40625 L94.34375,383.375 L348.25,300.84375 L326.09375,232.5625 L244.84375,232.5625 L234.6875,264.03125 L195.90625,264.03125 L262.40625,59.65625 L308.53125,59.65625 L289.375,0.53125 Z M285.5,107.9375 L255.9375,198.71875 L315,198.71875 L285.5,107.9375 Z" id="path2436" fill-rule="nonzero"></path>
            <path d="M633.7369,129.146645 C629.62259,112.785835 617.27966,90.103555 584.90089,90.103555 C545.96494,90.103555 529.77556,126.275195 529.77556,161.825415 C529.77556,197.429195 545.96494,233.611555 584.90089,233.611555 C610.95819,233.611555 634.55119,214.368585 634.55119,186.232705 L586.28304,186.232705 L586.28304,152.353925 L668.01211,152.353925 L668.01211,264.040315 L636.2012,264.040315 L636.2012,246.511635 C623.31184,261.736725 601.90457,269.183195 584.90089,269.183195 C522.37195,269.183195 491.37533,219.532905 491.37533,161.825415 C491.37533,104.160785 526.48626,54.499765 584.90089,54.499765 C624.68327,54.499765 653.20487,75.457035 668.01211,114.500125 L633.7369,129.146645" id="path2444"></path>
            <path d="M730.50891,161.825405 C730.50891,197.429195 747.04115,233.611545 786.70568,233.611545 C826.47734,233.611545 843.00959,197.429195 843.00959,161.825405 C843.00959,126.275195 826.47734,90.103545 786.70568,90.103545 C747.04115,90.103545 730.50891,126.275195 730.50891,161.825405 Z M882.20268,161.825405 C882.20268,219.532895 846.37389,269.183195 786.70568,269.183195 C727.1446,269.183195 691.3051,219.532895 691.3051,161.825405 C691.3051,104.160775 727.1446,54.499765 786.70568,54.499765 C846.37389,54.499765 882.20268,104.160775 882.20268,161.825405 Z" id="path2448" fill-rule="nonzero"></path>
            <polyline id="path2452" points="487.87174 228.436525 378.39251 228.436525 378.39251 175.614775 455.61083 175.614775 455.61083 141.736005 378.39251 141.736005 378.39251 95.267865 480.4467 95.267865 480.4467 59.664085 339.93871 59.664085 339.93871 156.178945 374.97463 264.040315 487.87174 264.040315 487.87174 228.436525"></polyline>
            <polyline id="path2456" points="1028.4107 59.664085 1028.4107 197.814915 943.25305 59.664085 906.67426 59.664085 906.67426 264.040315 941.68875 264.040315 941.68875 123.907325 1028.12141 264.040315 1063.4252 264.040315 1063.4252 59.664085 1028.4107 59.664085"></polyline>
            <polyline id="path2460" points="941.68875 312.694175 390.78902 312.694175 397.58191 333.608585 941.68875 333.608585 941.68875 312.694175"></polyline>
        </g>
    </g>
</svg>