<?xml version="1.0" encoding="UTF-8"?>
<svg width="286px" height="55px" viewBox="0 0 286 55" version="1.1" xmlns="http://www.w3.org/2000/svg" xmlns:xlink="http://www.w3.org/1999/xlink">
    <g stroke="none" stroke-width="1" fill="none" fill-rule="evenodd">
        <path d="M81.254,42.521 C79.949,42.965 78.588,43.365 77.227,43.642 C75.63,43.967 73.977,44.144 72.297,44.144 C66.868,44.144 62.618,42.338 61.922,38.035 L85.083,38.035 C85.255,37.209 85.559,35.209 85.559,33.105 C85.559,23.327 80.694,14.351 68.282,14.351 C56.224,14.351 49.805,23.806 49.805,34.4 C49.805,46.613 58.344,53.599 70.265,53.599 C73.301,53.599 75.52,53.327 77.352,52.955 C79.254,52.567 81.349,51.941 83.121,51.148 L81.254,42.521 Z M68.071,23.122 C72.661,23.122 74.048,27.316 74.048,29.619 C74.04,29.619 61.682,29.619 61.675,29.619 C61.675,26.357 63.942,23.122 68.071,23.122 Z" id="Fill-1" stroke="#333333"></path>
        <path d="M261.061,42.521 C259.756,42.965 258.395,43.365 257.034,43.642 C255.436,43.967 253.784,44.144 252.104,44.144 C246.676,44.144 242.426,42.338 241.731,38.035 L264.891,38.035 C265.063,37.209 265.366,35.209 265.366,33.105 C265.366,23.327 260.5,14.351 248.09,14.351 C236.032,14.351 229.614,23.806 229.614,34.4 C229.614,46.613 238.151,53.599 250.073,53.599 C253.108,53.599 255.327,53.327 257.161,52.955 C259.061,52.567 261.157,51.941 262.928,51.148 L261.061,42.521 Z M247.879,23.122 C252.469,23.122 253.856,27.316 253.856,29.619 C253.848,29.619 241.491,29.619 241.483,29.619 C241.483,26.357 243.75,23.122 247.879,23.122 Z" id="Fill-2" stroke="#333333"></path>
        <polygon id="Fill-3" stroke="#333333" points="91.232 52.795 103.792 52.795 103.792 1.9 91.232 1.9"></polygon>
        <path d="M128.846,53.599 C138.647,53.599 148.566,47.427 148.566,33.644 C148.566,25.437 143.704,14.413 129.461,14.413 C114.799,14.413 109.451,25.095 109.451,34.269 C109.451,45.781 117.445,53.599 128.846,53.599 Z M129.015,44.284 C124.935,44.284 122.255,40.251 122.255,34.013 C122.255,29.045 124.051,23.74 129.058,23.74 C133.889,23.74 135.604,29.238 135.604,33.959 C135.604,40.225 132.998,44.284 129.015,44.284 Z" id="Fill-4" stroke="#333333"></path>
        <polygon id="Fill-5" stroke="#333333" points="154.027 52.795 166.585 52.795 166.585 15.239 154.027 15.239"></polygon>
        <polygon id="Fill-6" stroke="#333333" points="154.027 11.668 166.585 11.668 166.585 1.916 154.027 1.916"></polygon>
        <path d="M176.533,5.02 L176.533,15.234 L171.707,15.234 L171.707,24.541 L176.533,24.541 L176.533,39.926 C176.533,48.388 180.402,53.566 189.234,53.566 C190.89,53.566 192.76,53.396 194.483,53.138 C196.077,52.899 197.491,52.609 198.11,52.407 C198.12,52.397 198.018,42.597 198.018,42.561 C197.614,42.701 194.766,43.179 193.725,43.179 C192.715,43.179 191.214,43.051 190.142,41.954 C189.376,41.172 188.828,39.897 188.828,37.826 L188.828,24.541 L196.946,24.541 L196.946,15.234 C196.946,15.234 189.9,15.234 188.828,15.234 C188.828,14.132 188.828,3.634 188.828,3.634 L176.533,5.02" id="Fill-7" stroke="#333333"></path>
        <path d="M205.59,5.02 L205.59,15.234 L200.764,15.234 L200.764,24.541 L205.59,24.541 L205.59,39.926 C205.59,48.388 209.459,53.566 218.292,53.566 C219.948,53.566 221.817,53.396 223.538,53.138 C225.133,52.899 226.547,52.609 227.167,52.407 C227.176,52.397 227.075,42.597 227.075,42.561 C226.67,42.701 223.825,43.179 222.782,43.179 C221.772,43.179 220.272,43.051 219.2,41.954 C218.434,41.172 217.887,39.897 217.887,37.826 L217.887,24.541 L226.002,24.541 L226.002,15.234 C226.002,15.234 218.958,15.234 217.887,15.234 C217.887,14.132 217.887,3.634 217.887,3.634 L205.59,5.02" id="Fill-8" stroke="#333333"></path>
        <path d="M270.774,46.663 C270.774,42.827 273.885,39.718 277.721,39.718 C281.557,39.718 284.67,42.827 284.67,46.663 C284.67,50.502 281.557,53.611 277.721,53.611 C273.885,53.611 270.774,50.502 270.774,46.663" id="Fill-9" stroke="#333333"></path>
        <path d="M19.373,42.711 C18.852,42.754 18.067,42.773 17.564,42.773 L13.581,42.773 C13.587,42.769 13.581,11.495 13.581,11.495 C14.959,11.372 16.709,11.29 17.878,11.29 C25.18,11.29 32.96,16.028 32.96,26.969 C32.96,38.385 25.648,42.193 19.373,42.711 Z M1.205,52.85 L15.418,52.85 C16.38,52.85 17.544,52.827 18.456,52.78 C37.908,51.775 46.002,40.262 46.002,26.969 C46.002,10.364 34.802,1.063 15.474,1.063 C10.513,1.063 6.103,1.232 1.205,1.645 L1.205,52.85 Z" id="Fill-10" stroke="#333333"></path>
    </g>
</svg>