<?xml version="1.0" encoding="UTF-8" ?>
<svg preserveAspectRatio="xMidYMid meet" width="146px" height="61px" viewBox="0 0 146 61" version="1.1" xmlns="http://www.w3.org/2000/svg" xmlns:xlink="http://www.w3.org/1999/xlink">
    <g id="Page-1" stroke="none" stroke-width="1" fill="none" fill-rule="evenodd">
        <g id="gs" fill="var(--hero-icon-color)">
            <path d="M135.48,28.208 L129.759,28.208 L129.759,5.659 L135.144,5.659 L135.144,8.183 C135.817,6.669 137.5,5.323 139.687,5.154 C143.39,4.986 145.914,7.174 145.914,11.885 L145.914,28.208 L140.024,28.208 L140.024,11.213 C140.024,9.193 140.024,7.51 138.678,7.174 C138.173,7.006 137.332,7.174 136.658,7.678 C135.817,8.52 135.48,9.529 135.48,11.213 C135.48,11.549 135.48,28.208 135.48,28.208" id="Fill-3"></path>
            <path d="M38.215,7.174 C36.869,5.996 35.186,5.154 33.166,5.154 C31.147,5.154 29.632,5.996 28.118,7.174 C25.762,9.193 24.248,12.895 24.248,16.934 C24.248,21.141 25.762,24.674 28.118,26.694 C29.632,27.872 31.147,28.713 33.166,28.713 C35.186,28.713 36.869,27.872 38.215,26.694 C40.739,24.674 42.085,21.141 42.085,16.934 C42.085,12.895 40.739,9.193 38.215,7.174 Z M36.027,16.934 C36.027,21.141 36.027,24.506 35.354,26.189 C34.849,27.031 34.344,27.536 33.166,27.536 C32.157,27.536 31.484,27.031 31.147,26.189 C30.306,24.506 30.306,21.141 30.306,16.934 C30.306,12.895 30.306,9.361 31.147,7.678 C31.484,6.837 32.157,6.332 33.166,6.332 C34.344,6.332 34.849,6.837 35.354,7.678 C36.196,9.361 36.027,12.895 36.027,16.934 Z" id="Fill-4" fill-rule="nonzero"></path>
            <path d="M96.945,36.791 L96.945,42.849 L95.767,42.849 C95.094,40.325 94.084,38.138 91.391,37.969 C89.709,37.801 88.194,38.81 88.026,40.325 C87.858,41.839 88.362,43.185 91.391,44.868 C95.262,47.056 98.291,48.066 98.291,52.609 C98.291,57.489 94.084,59.845 90.55,59.845 C89.035,59.845 83.819,59.845 83.819,59.845 L83.819,51.431 L84.997,51.431 C85.838,55.807 87.184,58.499 90.382,58.667 C92.401,58.667 93.915,57.489 93.915,55.301 C93.915,53.114 92.569,51.768 89.372,49.917 C85.838,47.729 83.651,46.383 83.651,43.354 C83.651,39.315 86.511,36.791 91.054,36.791 C92.569,36.791 96.945,36.791 96.945,36.791" id="Fill-5"></path>
            <path d="M104.349,28.208 L104.349,11.885 C104.349,7.174 101.825,4.986 98.122,5.154 C95.598,5.323 94.084,7.006 93.41,8.352 C92.569,5.996 90.718,4.986 88.026,5.154 C85.838,5.323 84.155,6.669 83.482,8.183 L83.482,5.659 L78.266,5.659 L78.266,28.208 L83.987,28.208 C83.987,28.208 83.987,11.718 83.987,11.213 C83.987,9.529 84.155,8.52 85.165,7.678 C85.838,7.174 86.511,7.006 87.016,7.174 C88.362,7.51 88.362,9.193 88.362,11.213 L88.362,28.208 L94.084,28.208 L94.084,11.045 C94.084,9.529 94.42,8.52 95.262,7.678 C95.935,7.174 96.608,7.006 97.113,7.174 C98.459,7.51 98.627,9.193 98.627,11.213 L98.627,28.208 L104.349,28.208" id="Fill-6"></path>
            <polygon id="Fill-7" points="45.956 28.209 51.846 28.209 51.846 0.948 45.956 0.948"></polygon>
            <path d="M72.713,28.208 L72.713,0.948 L66.822,0.948 L66.822,7.342 C66.318,6.164 65.14,5.323 63.457,5.323 C59.25,5.323 55.884,9.698 55.716,16.429 C55.548,20.973 57.062,28.545 62.952,28.545 C65.308,28.545 66.654,27.199 67.159,26.021 L67.159,28.208 L72.713,28.208 Z M65.813,7.51 C66.991,9.193 66.991,13.232 66.991,16.429 C66.991,19.794 67.159,24.17 65.813,26.021 C65.308,26.694 64.803,27.031 63.962,27.031 C62.784,27.031 62.111,25.685 61.774,23.497 C61.606,21.477 61.606,18.953 61.606,16.261 C61.606,11.718 61.942,6.669 64.13,6.669 C64.971,6.669 65.308,7.006 65.813,7.51 Z" id="Fill-8" fill-rule="nonzero"></path>
            <path d="M121.85,6.332 C123.365,7.174 124.374,8.52 124.374,11.549 L124.374,28.208 L118.821,28.208 L118.821,25.685 C118.148,27.536 116.297,28.713 113.772,28.713 C111.753,28.713 108.219,27.704 108.219,22.487 C108.219,17.607 111.417,16.597 114.951,15.083 C118.148,13.737 118.484,13.568 118.484,12.222 C118.484,11.045 118.484,10.034 118.484,8.52 C118.484,7.006 117.643,6.332 115.96,6.332 C115.288,6.5 114.109,6.837 114.109,7.678 C113.94,8.688 115.118,8.688 115.288,10.203 C115.455,12.559 113.604,13.4 111.922,13.232 C110.744,13.232 109.397,12.559 109.229,10.708 C109.061,7.678 112.426,5.154 117.138,5.154 C119.326,5.154 120.672,5.659 121.85,6.332 Z M118.484,14.746 L116.633,15.924 C114.783,17.102 114.445,18.617 114.277,20.3 C114.109,21.645 114.109,22.824 114.277,24.843 C114.445,26.694 115.624,27.031 116.633,26.694 C117.812,26.189 118.484,24.002 118.484,21.645 C118.484,21.645 118.484,15.588 118.484,14.746 Z" id="Fill-9" fill-rule="nonzero"></path>
            <path d="M38.551,37.801 C40.066,38.81 40.908,39.988 40.908,43.017 L40.908,59.845 L35.523,59.845 L35.523,57.321 C34.849,59.004 32.999,60.182 30.474,60.182 C28.286,60.182 24.92,59.34 24.92,54.124 C24.92,49.244 28.118,48.234 31.484,46.719 C34.849,45.205 35.186,45.037 35.186,43.859 C35.186,42.681 35.186,41.671 35.186,40.157 C35.186,38.474 34.344,37.801 32.662,37.969 C31.988,37.969 30.811,38.306 30.811,39.147 C30.642,40.325 31.82,40.325 31.988,41.839 C32.157,44.027 30.306,44.868 28.623,44.868 C27.445,44.7 26.099,44.027 25.93,42.175 C25.762,39.315 29.128,36.791 33.839,36.791 C36.027,36.791 37.373,37.128 38.551,37.801 Z M35.186,46.214 L33.335,47.392 C31.484,48.571 31.147,50.085 30.979,51.768 C30.811,53.114 30.811,54.46 30.979,56.311 C30.979,58.331 32.157,58.667 33.166,58.162 C34.513,57.658 35.186,55.639 35.186,53.114 C35.186,53.114 35.186,47.056 35.186,46.214 Z" id="Fill-10" fill-rule="nonzero"></path>
            <path d="M79.275,43.522 C79.275,38.81 76.751,36.454 73.049,36.791 C71.198,36.959 69.683,37.801 68.842,38.978 L68.842,32.416 L63.12,32.416 L63.12,47.898 C63.12,53.619 59.082,59.004 55.043,58.835 C52.182,58.835 51.509,56.648 51.172,54.292 C50.668,50.926 50.668,47.056 51.004,42.849 C51.341,40.157 52.014,37.969 54.033,37.969 C55.548,37.969 55.716,38.978 55.043,39.651 C54.369,40.493 53.36,41.334 53.865,43.185 C54.369,45.205 57.567,45.541 59.082,44.027 C60.26,42.681 60.091,40.493 59.25,39.147 C58.24,37.464 56.558,36.791 54.033,36.791 C50.836,36.791 44.778,39.651 44.778,48.739 C44.778,58.499 51.004,60.182 54.538,60.182 C58.577,60.182 62.111,56.648 63.12,53.787 L63.12,59.845 L68.842,59.845 L68.842,42.849 C68.842,41.166 69.178,40.157 70.019,39.315 C70.693,38.81 71.534,38.642 72.039,38.81 C73.386,39.147 73.386,40.829 73.386,42.849 L73.386,59.845 L79.275,59.845 L79.275,43.522" id="Fill-11"></path>
            <path d="M20.377,0.442 L20.377,10.034 L19.199,10.034 C18.189,5.323 16.002,1.788 12.973,1.62 C10.954,1.452 9.776,2.63 8.766,4.313 C7.757,6.332 7.251,10.539 7.251,15.588 C7.251,20.3 7.42,23.833 7.924,26.357 C8.261,27.536 9.103,29.387 11.29,29.387 C12.468,29.387 13.31,29.05 13.814,28.377 C14.656,27.367 14.824,25.348 14.824,24.002 C14.824,21.814 14.824,21.141 14.824,19.458 C14.824,17.776 14.32,16.766 13.478,16.261 C12.805,15.924 11.795,15.924 11.29,15.756 L11.29,14.578 L20.714,14.578 L20.714,38.642 L19.535,38.642 C19.031,36.791 18.695,35.444 17.853,33.93 C17.012,32.416 15.497,30.733 12.973,30.733 C10.28,30.565 8.261,32.248 8.261,34.771 C8.261,38.138 10.28,38.978 13.982,40.998 C17.517,43.017 22.06,44.7 22.06,50.59 C22.06,56.311 17.18,59.845 11.627,59.845 C10.449,59.845 2.708,59.845 2.708,59.845 L2.708,48.234 L3.886,48.234 C5.4,56.984 9.103,58.499 11.627,58.499 C14.824,58.499 16.338,56.48 16.338,53.619 C16.17,49.917 13.646,48.571 10.112,46.719 C5.064,43.859 2.708,42.512 2.708,37.801 C2.876,33.762 6.074,31.238 9.607,30.228 C2.203,29.387 0.016,22.656 0.184,15.419 C0.184,8.183 4.391,0.442 12.636,0.442 C16.338,0.442 20.377,0.442 20.377,0.442" id="Fill-12"></path>
        </g>
    </g>
</svg>