<svg class="_1HI5sH_a8FE94tlS7C0zbL" viewBox="0 0 450 71" xmlns="http://www.w3.org/2000/svg" data-reactid="6"><path d="M156.406 46h-9.156L155.125.5h9.156L156.406 46zm42.865 0h-8.875L177.74 15.656 172.459 46h-9.156L171.209.5h8.844l12.687 30.406L198.021.5h9.125L199.271 46zm24.709-11.375L239.293.5h10.5L227.322 46h-9.562L209.574.5h9.843l4.563 34.125zm50.896-8.344H257.44l-2.125 12.188h20.5L274.5 46h-29.656L252.751.5h29.594l-1.344 7.594h-20.406l-1.906 10.844h17.5l-1.313 7.343zM314.273 46h-8.876l-12.656-30.344L287.46 46h-9.156L286.21.5h8.844l12.687 30.406L313.022.5h9.125L314.272 46zm45.364-37.906h-13.5L339.575 46h-9.156l6.562-37.906h-13.344L324.981.5h36l-1.344 7.594zM366.502 46h-9.156L365.221.5h9.156L366.502 46zm43.99-15.188c-.354 3.146-1.427 5.933-3.218 8.36-1.792 2.427-4.125 4.292-7 5.594-2.875 1.302-5.98 1.922-9.313 1.859-3-.063-5.614-.755-7.844-2.078-2.229-1.323-3.984-3.24-5.265-5.75-1.281-2.51-2.005-5.401-2.172-8.672-.146-2.563.12-5.75.797-9.563.677-3.812 1.885-7.197 3.625-10.156 1.74-2.958 3.807-5.302 6.203-7.031 3.375-2.417 7.23-3.583 11.563-3.5 4.708.083 8.442 1.536 11.203 4.36 2.76 2.822 4.276 6.744 4.546 11.765l-9.125-.031c0-2.875-.572-4.98-1.718-6.313-1.146-1.333-2.927-2.041-5.344-2.125-3.125-.104-5.693 1.01-7.703 3.344-2.01 2.333-3.36 5.74-4.047 10.219-.667 4.354-.958 7.614-.875 9.781.104 2.75.719 4.776 1.844 6.078 1.125 1.302 2.698 1.984 4.719 2.047 2.791.104 5.026-.557 6.703-1.984 1.677-1.427 2.786-3.474 3.328-6.141l9.094-.063zm28.834 5.813h-15.875L418.764 46H408.67L432.983.5h8.468l8.656 45.5h-9.343l-1.438-9.375zm-12.125-7.594h10.969l-2.563-16.937-8.406 16.937zM157.79 56.49v2.42h-4.24V71h-3.01V58.91h-4.24v-2.42h11.49zm24.75 0v2.35h-6.22v3.73h4.84v2.27h-4.84v3.81h6.22V71h-9.24V56.49h9.24zm25.52 10.94c.167 0 .307.06.42.18l1.19 1.27a5.662 5.662 0 0 1-2.185 1.7c-.87.387-1.905.58-3.105.58-1.087 0-2.063-.185-2.93-.555a6.34 6.34 0 0 1-2.21-1.545 6.866 6.866 0 0 1-1.4-2.35c-.327-.907-.49-1.897-.49-2.97 0-.72.078-1.405.235-2.055.157-.65.385-1.248.685-1.795.3-.547.662-1.04 1.085-1.48.423-.44.902-.815 1.435-1.125a6.898 6.898 0 0 1 1.745-.71 8.004 8.004 0 0 1 2.015-.245c.533 0 1.038.047 1.515.14.477.093.922.223 1.335.39.413.167.795.368 1.145.605s.665.495.945.775l-1.01 1.38a.942.942 0 0 1-.23.23.642.642 0 0 1-.38.1.849.849 0 0 1-.485-.17c-.163-.113-.363-.24-.6-.38a4.345 4.345 0 0 0-.89-.38c-.357-.113-.808-.17-1.355-.17-.607 0-1.163.11-1.67.33-.507.22-.942.538-1.305.955-.363.417-.645.928-.845 1.535-.2.607-.3 1.297-.3 2.07 0 .78.108 1.475.325 2.085.217.61.513 1.125.89 1.545.377.42.817.738 1.32.955a4.04 4.04 0 0 0 1.615.325c.34 0 .648-.017.925-.05s.533-.09.77-.17c.237-.08.46-.183.67-.31a4.13 4.13 0 0 0 .635-.48c.073-.06.15-.11.23-.15.08-.04.167-.06.26-.06zM237.49 71h-3.02v-6.25h-6.39V71h-3.02V56.49h3.02v6.16h6.39v-6.16h3.02V71zm18.32-14.51c.127 0 .235.005.325.015.09.01.172.033.245.07a.948.948 0 0 1 .21.145c.067.06.14.14.22.24l7.28 9.25c-.027-.253-.047-.5-.06-.74a12.29 12.29 0 0 1-.02-.68v-8.3h2.65V71h-1.55c-.233 0-.43-.038-.59-.115a1.427 1.427 0 0 1-.47-.395l-7.23-9.19a16.849 16.849 0 0 1 .06 1.31V71h-2.65V56.49h1.58zm41.61 7.25c0 1.06-.178 2.043-.535 2.95a6.912 6.912 0 0 1-1.51 2.35 6.984 6.984 0 0 1-2.345 1.555c-.913.377-1.927.565-3.04.565s-2.127-.188-3.04-.565a7.04 7.04 0 0 1-2.35-1.555 6.875 6.875 0 0 1-1.515-2.35c-.357-.907-.535-1.89-.535-2.95 0-1.06.178-2.042.535-2.945a6.885 6.885 0 0 1 1.515-2.345 7.04 7.04 0 0 1 2.35-1.555c.913-.377 1.927-.565 3.04-.565s2.127.188 3.04.565a6.947 6.947 0 0 1 2.345 1.56 6.977 6.977 0 0 1 1.51 2.35 7.92 7.92 0 0 1 .535 2.935zm-3.07 0c0-.76-.1-1.442-.3-2.045a4.336 4.336 0 0 0-.865-1.54 3.721 3.721 0 0 0-1.37-.97c-.537-.223-1.145-.335-1.825-.335-.68 0-1.29.112-1.83.335-.54.223-.998.547-1.375.97a4.336 4.336 0 0 0-.865 1.54c-.2.603-.3 1.285-.3 2.045 0 .767.1 1.452.3 2.055.2.603.488 1.115.865 1.535.377.42.835.742 1.375.965.54.223 1.15.335 1.83.335.68 0 1.288-.112 1.825-.335a3.748 3.748 0 0 0 1.37-.965c.377-.42.665-.932.865-1.535.2-.603.3-1.288.3-2.055zm21.97 4.82h5.61V71h-8.61V56.49h3v12.07zm34.72-4.82c0 1.06-.178 2.043-.535 2.95a6.912 6.912 0 0 1-1.51 2.35 6.984 6.984 0 0 1-2.345 1.555c-.913.377-1.927.565-3.04.565s-2.127-.188-3.04-.565a7.04 7.04 0 0 1-2.35-1.555 6.875 6.875 0 0 1-1.515-2.35c-.357-.907-.535-1.89-.535-2.95 0-1.06.178-2.042.535-2.945a6.885 6.885 0 0 1 1.515-2.345 7.04 7.04 0 0 1 2.35-1.555c.913-.377 1.927-.565 3.04-.565s2.127.188 3.04.565a6.947 6.947 0 0 1 2.345 1.56 6.977 6.977 0 0 1 1.51 2.35 7.92 7.92 0 0 1 .535 2.935zm-3.07 0c0-.76-.1-1.442-.3-2.045a4.336 4.336 0 0 0-.865-1.54 3.721 3.721 0 0 0-1.37-.97c-.537-.223-1.145-.335-1.825-.335-.68 0-1.29.112-1.83.335-.54.223-.998.547-1.375.97a4.336 4.336 0 0 0-.865 1.54c-.2.603-.3 1.285-.3 2.045 0 .767.1 1.452.3 2.055.2.603.488 1.115.865 1.535.377.42.835.742 1.375.965.54.223 1.15.335 1.83.335.68 0 1.288-.112 1.825-.335a3.748 3.748 0 0 0 1.37-.965c.377-.42.665-.932.865-1.535.2-.603.3-1.288.3-2.055zm31.01 5.86c-.74.54-1.528.935-2.365 1.185a9.226 9.226 0 0 1-2.655.375c-1.193 0-2.273-.185-3.24-.555-.967-.37-1.793-.885-2.48-1.545a6.821 6.821 0 0 1-1.59-2.35c-.373-.907-.56-1.897-.56-2.97 0-1.087.178-2.083.535-2.99a6.699 6.699 0 0 1 1.525-2.34c.66-.653 1.458-1.163 2.395-1.53s1.985-.55 3.145-.55c.6 0 1.16.048 1.68.145.52.097 1 .23 1.44.4a6.834 6.834 0 0 1 2.21 1.375l-.87 1.34c-.133.213-.307.343-.52.39-.213.047-.447-.007-.7-.16-.24-.147-.475-.278-.705-.395a5.126 5.126 0 0 0-1.585-.505 7.117 7.117 0 0 0-1.06-.07c-.673 0-1.283.117-1.83.35a3.915 3.915 0 0 0-1.395.99c-.383.427-.678.94-.885 1.54-.207.6-.31 1.27-.31 2.01 0 .8.113 1.515.34 2.145.227.63.547 1.162.96 1.595.413.433.908.763 1.485.99.577.227 1.218.34 1.925.34.48 0 .908-.048 1.285-.145a6.43 6.43 0 0 0 1.105-.395v-2.44h-1.64c-.193 0-.345-.052-.455-.155a.518.518 0 0 1-.165-.395v-1.67h4.98v5.99zm19.17 1.4h-3.02V56.49h3.02V71zm25.98-14.51v2.35h-6.22v3.73h4.84v2.27h-4.84v3.81h6.22V71h-9.24V56.49h9.24zm23.8 2.78a1.139 1.139 0 0 1-.285.335.624.624 0 0 1-.375.105.926.926 0 0 1-.475-.155 11.66 11.66 0 0 0-.595-.335 5.765 5.765 0 0 0-.78-.335 3.1 3.1 0 0 0-1.03-.155c-.693 0-1.213.155-1.56.465-.347.31-.52.715-.52 1.215 0 .32.095.585.285.795.19.21.44.392.75.545.31.153.662.29 1.055.41.393.12.797.252 1.21.395.413.143.817.312 1.21.505s.745.437 1.055.73c.31.293.56.652.75 1.075.19.423.285.938.285 1.545a4.96 4.96 0 0 1-.345 1.855 4.399 4.399 0 0 1-.995 1.51c-.433.43-.968.768-1.605 1.015-.637.247-1.358.37-2.165.37a6.85 6.85 0 0 1-1.375-.14 7.93 7.93 0 0 1-1.32-.39 7.282 7.282 0 0 1-1.195-.6 5.253 5.253 0 0 1-.98-.78l.88-1.42a.89.89 0 0 1 .29-.265.743.743 0 0 1 .38-.105c.18 0 .37.067.57.2.2.133.43.28.69.44.26.16.562.307.905.44.343.133.755.2 1.235.2.7 0 1.242-.16 1.625-.48.383-.32.575-.797.575-1.43 0-.367-.095-.663-.285-.89a2.292 2.292 0 0 0-.745-.57 5.904 5.904 0 0 0-1.05-.395c-.393-.11-.797-.232-1.21-.365a9.929 9.929 0 0 1-1.21-.48 3.744 3.744 0 0 1-1.05-.74 3.505 3.505 0 0 1-.745-1.14c-.19-.453-.285-1.017-.285-1.69a4.008 4.008 0 0 1 1.26-2.92c.413-.393.922-.71 1.525-.95.603-.24 1.295-.36 2.075-.36.873 0 1.682.135 2.425.405.743.27 1.372.645 1.885 1.125l-.74 1.41z" data-reactid="7"></path><g class="logo__circles" data-reactid="8"><circle class="logo__circles--three" cx="103" cy="23" r="23" data-reactid="9"></circle><circle class="logo__circles--two" cx="52" cy="23" r="16" data-reactid="10"></circle><circle class="logo__circles--one" cx="11" cy="23" r="11" data-reactid="11"></circle></g></svg>