<?xml version="1.0" encoding="UTF-8" ?>
<svg preserveAspectRatio="xMidYMid meet" width="177px" height="68px" viewBox="0 0 177 68" version="1.1" xmlns="http://www.w3.org/2000/svg" xmlns:xlink="http://www.w3.org/1999/xlink">
    <g stroke="none" stroke-width="1" fill="none" fill-rule="evenodd">
        <path d="M34.964,29.216 L33.134,29.216 C31.912,29.216 31.404,28.435 31.404,27.307 L31.404,19.231 L34.964,19.231 L34.964,16.952 L31.404,16.952 L31.404,12.657 L28.839,12.657 L28.839,27.271 C28.839,30.352 30.384,31.668 33.13,31.668 L34.964,31.668 L34.964,29.216" id="Fill-2" fill="var(--hero-icon-color)"></path>
        <path d="M10.284,24.712 L10.284,24.818 C10.284,30.05 14.558,31.924 18.559,31.924 C22.468,31.924 26.402,30.053 26.402,25.913 C26.402,21.891 23.098,20.803 20,20.099 L18.919,19.864 C16.141,19.257 13.736,18.746 13.736,16.678 C13.736,13.732 16.764,13.397 18.062,13.397 C20.923,13.397 22.586,14.776 22.864,17.353 L22.874,17.448 L25.576,17.448 L25.574,17.337 C25.418,13.286 22.722,10.972 18.173,10.972 C14.549,10.972 10.889,12.791 10.889,16.872 C10.889,20.509 13.931,21.474 17.32,22.214 L17.988,22.362 C20.85,22.971 23.554,23.549 23.554,25.995 C23.554,29.03 20.478,29.482 18.641,29.482 C17.093,29.482 15.694,29.086 14.702,28.37 C13.582,27.557 12.991,26.334 12.991,24.818 L12.991,24.712 L10.284,24.712" id="Fill-3" fill="var(--hero-icon-color)"></path>
        <path d="M50.398,29.298 L50.256,29.35 C49.936,29.468 49.724,29.482 49.573,29.482 C48.955,29.482 48.927,29.148 48.927,27.987 L48.927,20.619 C48.927,17.892 47.138,16.571 43.45,16.571 C41.214,16.571 37.44,17.203 37.274,21.471 L37.272,21.582 L39.831,21.582 L39.837,21.482 C39.931,19.702 41.039,18.858 43.312,18.858 C45.408,18.858 46.393,19.579 46.393,21.144 C46.393,22.444 45.074,22.629 43.257,22.885 C42.738,22.958 42.211,23.034 41.651,23.141 C39.155,23.62 36.714,24.365 36.714,27.656 C36.714,30.231 38.529,31.786 41.562,31.786 C43.6,31.786 45.256,31.065 46.523,29.697 C46.623,31.387 47.689,31.786 48.6,31.786 C49.338,31.786 49.892,31.641 50.347,31.368 L50.398,31.336 L50.398,29.298 Z M42.087,29.482 C41.289,29.482 39.422,29.289 39.422,27.489 C39.422,25.754 40.84,25.252 42.217,25.007 C42.637,24.935 43.087,24.875 43.514,24.822 C44.617,24.68 45.659,24.542 46.365,24.127 C46.365,24.127 46.423,24.091 46.365,24.127 L46.365,26.356 C46.365,27.565 45.201,29.482 42.087,29.482 Z" id="Fill-4" fill="var(--hero-icon-color)"></path>
        <path d="M52.666,16.952 L52.666,31.486 L55.237,31.486 L55.237,23.293 C55.237,20.557 56.778,18.907 59.367,18.907 C61.092,18.907 62.17,19.985 62.17,21.69 L62.17,31.486 L64.74,31.486 L64.74,21.967 C64.74,18.365 63.088,16.62 59.698,16.62 C57.634,16.62 56.094,17.428 55.09,19.034 L55.09,16.952 L52.666,16.952" id="Fill-5" fill="var(--hero-icon-color)"></path>
        <path d="M78.373,11.491 L78.373,18.721 C77.287,17.186 75.322,16.62 73.803,16.62 C69.758,16.62 67.15,19.58 67.15,24.177 C67.15,26.288 67.749,28.185 68.822,29.532 C70.012,31.026 71.755,31.835 73.859,31.835 C75.959,31.835 77.583,31.06 78.373,29.737 L78.373,31.486 L80.946,31.486 L80.946,11.491 L78.373,11.491 Z M74.189,29.531 C71.201,29.531 69.857,26.935 69.857,24.343 C69.857,22.713 70.265,18.907 74.053,18.907 C78.137,18.907 78.457,22.987 78.457,24.232 C78.457,26.803 77.339,29.531 74.189,29.531 Z" id="Fill-6" fill="var(--hero-icon-color)"></path>
        <path d="M97.215,29.347 L97.075,29.399 C96.752,29.516 96.541,29.531 96.392,29.531 C95.762,29.531 95.735,29.197 95.735,28.036 L95.735,20.668 C95.735,17.941 93.947,16.62 90.27,16.62 C88.025,16.62 84.256,17.252 84.088,21.519 L84.083,21.631 L86.652,21.631 L86.657,21.53 C86.751,19.75 87.851,18.907 90.129,18.907 C92.226,18.907 93.201,19.646 93.201,21.192 C93.201,22.493 91.891,22.678 90.076,22.934 C89.551,23.007 89.024,23.083 88.466,23.189 C85.976,23.67 83.536,24.413 83.536,27.705 C83.536,30.28 85.341,31.835 88.377,31.835 C90.417,31.835 92.075,31.113 93.332,29.745 C93.432,31.435 94.498,31.835 95.408,31.835 C96.157,31.835 96.711,31.69 97.164,31.416 L97.215,31.385 L97.215,29.347 Z M88.902,29.531 C88.102,29.531 86.247,29.337 86.247,27.538 C86.247,25.804 87.652,25.301 89.029,25.055 C89.449,24.984 89.889,24.923 90.331,24.871 C91.435,24.728 92.477,24.59 93.173,24.175 C93.173,24.175 93.231,24.14 93.173,24.175 L93.173,26.404 C93.173,27.614 92.018,29.531 88.902,29.531 Z" id="Fill-7" fill="var(--hero-icon-color)"></path>
        <path d="M107.199,16.623 L107.097,16.621 C104.697,16.543 103.086,17.503 101.877,19.758 L101.877,16.952 L99.455,16.952 L99.455,31.486 L102.015,31.486 L102.015,25.006 C102.015,21.138 103.641,19.32 107.093,19.32 L107.199,19.32 L107.199,16.623" id="Fill-8" fill="var(--hero-icon-color)"></path>
        <path d="M118.778,11.491 L118.778,18.721 C117.689,17.186 115.734,16.62 114.193,16.62 C110.168,16.62 107.549,19.58 107.549,24.177 C107.549,26.288 108.141,28.185 109.232,29.532 C110.422,31.026 112.156,31.835 114.261,31.835 C116.368,31.835 117.99,31.057 118.778,29.735 L118.778,31.486 L121.356,31.486 L121.356,11.491 L118.778,11.491 Z M114.599,29.531 C111.602,29.531 110.266,26.935 110.266,24.343 C110.266,22.713 110.673,18.907 114.463,18.907 C118.541,18.907 118.859,22.987 118.859,24.232 C118.859,26.803 117.74,29.531 114.599,29.531 Z" id="Fill-9" fill="var(--hero-icon-color)"></path>
        <path d="M15.586,51.688 L15.577,51.785 C15.314,55.236 13.173,57.395 9.983,57.395 C7.78,57.395 6.073,56.592 4.923,54.981 C3.896,53.569 3.347,51.577 3.347,49.208 C3.347,47.053 3.912,45.109 4.918,43.716 C6.071,42.141 7.815,41.311 9.954,41.311 C12.848,41.311 14.873,42.849 15.385,45.442 L15.401,45.528 L18.248,45.528 L18.228,45.408 C17.938,43.36 16.971,41.683 15.435,40.539 C13.988,39.457 12.098,38.886 9.983,38.886 C7.063,38.886 4.625,39.953 2.924,41.975 C1.368,43.835 0.504,46.485 0.504,49.402 C0.504,55.827 4.054,59.822 9.761,59.822 C12.214,59.822 14.303,59.082 15.798,57.686 C17.267,56.309 18.175,54.264 18.422,51.803 L18.434,51.688 L15.586,51.688" id="Fill-10" fill="var(--hero-icon-color)"></path>
        <path d="M20.897,39.336 L20.897,59.366 L23.465,59.366 L23.465,51.159 C23.465,48.405 25.017,46.771 27.596,46.771 C29.33,46.771 30.4,47.832 30.4,49.54 L30.4,59.366 L32.971,59.366 L32.971,49.815 C32.971,46.229 31.326,44.485 27.937,44.485 C26.411,44.485 24.382,45.063 23.465,46.688 L23.465,39.336 L20.897,39.336" id="Fill-11" fill="var(--hero-icon-color)"></path>
        <path d="M38.347,49.48 L38.35,49.378 C38.444,47.6 39.544,46.771 41.819,46.771 C43.924,46.771 44.897,47.493 44.897,49.043 C44.897,50.358 43.587,50.545 41.764,50.8 C41.253,50.872 40.724,50.948 40.168,51.056 C37.668,51.535 35.228,52.279 35.228,55.555 C35.228,58.143 37.042,59.684 40.076,59.684 C42.104,59.684 43.773,58.979 45.027,57.612 C45.127,59.301 46.202,59.684 47.114,59.684 C47.848,59.684 48.4,59.555 48.854,59.282 L48.905,59.252 L48.905,57.215 L48.762,57.264 C48.441,57.383 48.23,57.395 48.081,57.395 C47.468,57.395 47.441,57.063 47.441,55.885 L47.441,48.516 C47.441,45.804 45.645,44.485 41.956,44.485 C39.72,44.485 35.947,45.12 35.78,49.369 L35.779,49.48 L38.347,49.48 Z M40.602,57.395 C39.796,57.395 37.937,57.202 37.937,55.386 C37.937,53.652 39.344,53.166 40.733,52.923 C41.151,52.848 41.59,52.792 42.014,52.738 C43.13,52.595 44.174,52.457 44.87,52.039 C44.87,52.039 44.927,52.006 44.87,52.039 L44.87,54.253 C44.87,55.464 43.714,57.395 40.602,57.395 Z" id="Fill-12" fill="var(--hero-icon-color)"></path>
        <path d="M121.356,59.354 L121.356,39.356 L118.778,39.356 L118.778,46.586 C117.689,45.05 115.734,44.485 114.193,44.485 C110.168,44.485 107.549,47.445 107.549,52.043 C107.549,54.136 108.141,56.048 109.232,57.397 C110.422,58.89 112.156,59.684 114.261,59.684 C116.368,59.684 117.99,58.923 118.778,57.599 L118.778,59.354 L121.356,59.354 Z M114.599,57.395 C111.602,57.395 110.266,54.783 110.266,52.211 C110.266,50.58 110.673,46.771 114.463,46.771 C118.541,46.771 118.859,50.854 118.859,52.097 C118.859,54.652 117.74,57.395 114.599,57.395 Z" id="Fill-13" fill="var(--hero-icon-color)"></path>
        <path d="M79.087,54.842 C78.648,56.493 77.403,57.395 75.532,57.395 C74.208,57.395 73.098,56.982 72.339,56.195 C71.568,55.38 71.159,54.217 71.182,52.895 L81.894,52.895 L81.902,52.792 C82.006,50.208 81.211,47.756 79.779,46.265 C78.636,45.083 77.139,44.485 75.312,44.485 C71.349,44.485 68.471,47.657 68.471,52.043 C68.626,56.906 71.172,59.684 75.45,59.684 C78.725,59.684 80.978,57.924 81.648,54.842 L79.087,54.842 Z M75.172,46.771 C77.319,46.771 79.015,48.409 79.178,50.61 L71.194,50.61 C71.383,48.671 72.669,46.771 75.172,46.771 Z" id="Fill-14" fill="var(--hero-icon-color)"></path>
        <path d="M103.058,54.876 C102.612,56.506 101.353,57.395 99.502,57.395 C98.179,57.395 97.079,56.982 96.319,56.195 C95.528,55.38 95.125,54.217 95.144,52.895 L105.867,52.895 L105.873,52.792 C105.975,50.208 105.181,47.756 103.748,46.265 C102.614,45.083 101.101,44.485 99.283,44.485 C95.31,44.485 92.447,47.657 92.447,52.043 C92.596,56.906 95.136,59.684 99.422,59.684 C102.694,59.684 104.933,57.937 105.613,54.876 L103.058,54.876 Z M99.143,46.771 C101.282,46.771 102.992,48.409 103.157,50.61 L95.155,50.61 C95.346,48.671 96.65,46.771 99.143,46.771 Z" id="Fill-15" fill="var(--hero-icon-color)"></path>
        <path d="M53.735,59.365 L53.735,52.871 C53.735,48.986 55.351,47.186 58.812,47.186 L58.919,47.186 L58.919,44.488 L58.816,44.486 C56.407,44.408 54.787,45.368 53.596,47.605 L53.596,44.799 L51.166,44.799 L51.166,59.365 L53.735,59.365" id="Fill-16" fill="var(--hero-icon-color)"></path>
        <path d="M87,59.354 L87,52.871 C87,48.986 88.608,47.186 92.076,47.186 L92.183,47.186 L92.183,44.488 L92.081,44.486 C89.664,44.408 88.052,45.368 86.861,47.605 L86.861,44.806 L84.432,44.806 L84.432,59.354 L87,59.354" id="Fill-17" fill="var(--hero-icon-color)"></path>
        <path d="M67.176,57.082 L65.354,57.082 C64.123,57.082 63.616,56.3 63.616,55.156 L63.616,47.096 L67.176,47.096 L67.176,44.817 L63.616,44.817 L63.616,40.523 L61.051,40.523 L61.051,55.12 C61.051,58.217 62.604,59.535 65.35,59.535 L67.176,59.535 L67.176,57.082" id="Fill-18" fill="var(--hero-icon-color)"></path>
        <path d="M145.938,64.817 C144.183,65.862 142.591,66.486 140.92,66.486 C136.595,66.486 132.981,62.944 132.772,58.686 L141.199,53.665 L154.298,59.521 L145.938,64.817" id="Fill-19" fill="var(--hero-icon-color)"></path>
        <path d="M150.946,43.249 L144.689,40.493 C141.892,39.243 139.252,38.202 139.252,35.125 C139.252,33.529 139.737,32.693 140.501,31.861 L153.739,37.697 L150.456,39.591 C149.552,40.147 148.926,40.633 148.926,41.33 C148.926,42.083 149.786,42.723 150.946,43.249" id="Fill-20" fill="var(--hero-icon-color)"></path>
        <path d="M157.094,14.368 L150.678,18.261 C150.108,18.605 149.346,19.16 149.346,20.014 C149.346,20.986 150.827,21.731 152.144,22.357 L144.115,18.815 C141.75,17.774 139.39,16.592 139.39,13.74 C139.39,12.542 139.737,11.571 140.294,10.74 L157.648,0.134 C159.729,1.313 161.747,3.698 161.747,6.896 C161.747,10.32 160.012,12.613 157.094,14.368" id="Fill-21" fill="var(--hero-icon-color)"></path>
        <path d="M170.744,26.909 L169.149,27.811 L155.891,21.958 L171.302,12.682 C173.382,13.882 175.42,16.243 175.42,19.44 C175.42,22.863 173.733,25.223 170.744,26.909" id="Fill-22" fill="var(--hero-icon-color)"></path>
        <path d="M159.552,38.164 L167.394,41.609 C170.332,42.926 171.235,44.471 171.235,46.422 C171.235,47.531 170.609,48.645 169.708,49.41 L156.521,43.553 L158.753,42.302 C160.64,41.261 161.265,40.633 161.265,39.94 C161.265,39.218 160.825,38.742 159.552,38.164" id="Fill-23" fill="var(--hero-icon-color)"></path>
        <path d="M173.528,67.11 C170.191,64.541 166.633,62.803 162.306,60.84 L142.31,51.993 C137.286,49.754 133.955,46.769 133.955,41.746 C133.955,36.864 136.318,34.5 139.39,32.557 L140.501,31.861 C139.737,32.693 139.252,33.529 139.252,35.125 C139.252,38.202 141.892,39.243 144.689,40.493 L167.952,50.745 C171.999,52.482 175.702,55.471 175.702,60.56 C175.702,63.359 174.638,65.862 173.528,67.11" id="Fill-24" fill="var(--hero-icon-color)"></path>
        <path d="M171.166,48.503 L169.708,49.41 C170.609,48.645 171.235,47.531 171.235,46.42 C171.235,44.472 170.329,42.926 167.394,41.609 L142.518,30.66 C137.496,28.439 134.37,25.572 134.37,20.571 C134.37,15.966 136.662,12.959 140.294,10.74 C139.737,11.571 139.39,12.542 139.39,13.74 C139.39,16.592 141.75,17.774 144.115,18.815 L168.296,29.481 C172.692,31.426 176.252,34.363 176.252,39.731 C176.252,43.917 174.294,46.557 171.166,48.503" id="Fill-25" fill="var(--hero-icon-color)"></path>
    </g>
</svg>