<?xml version="1.0" encoding="iso-8859-1" ?>
<!-- Generator: Adobe Illustrator 19.0.0, SVG Export Plug-In . SVG Version: 6.00 Build 0)  -->
<svg version="1.1" id="Capa_1" xmlns="http://www.w3.org/2000/svg" xmlns:xlink="http://www.w3.org/1999/xlink" x="0px" y="0px" viewBox="0 0 512 512" style="enable-background:new 0 0 512 512;" xml:space="preserve" fill="url(#icon-gradient) #000">
	<g>
		<g>
			<path d="M303.045,360.813c-13.414,0-24.326,10.913-24.326,24.327s10.914,24.326,24.326,24.326
			c13.413,0,24.327-10.913,24.327-24.326S316.459,360.813,303.045,360.813z M303.045,394.464c-5.142,0-9.324-4.184-9.324-9.324
			c0-5.141,4.184-9.324,9.324-9.324c5.141,0,9.324,4.184,9.324,9.324C312.369,390.28,308.186,394.464,303.045,394.464z" />
		</g>
	</g>
	<g>
		<g>
			<circle cx="349.54" cy="160.602" r="11.252" />
		</g>
	</g>
	<g>
		<g>
			<path d="M471.049,501.052l-8.71-16.84c-12.816-24.777-37.485-40.626-65.095-42.147l-24.851-42.366
			c12.067-8.904,22.921-19.869,32.328-32.683c24.334-33.148,37.736-76.479,37.736-122.014c0-43.956-12.481-85.697-35.275-118.447
			l12.914-9.732c2.782,1.565,5.954,2.428,9.207,2.428c4.099,0,7.997-1.306,11.277-3.777c0,0,13.352-10.062,13.367-10.073
			c8.159-6.149,9.834-18.11,3.69-26.262c0,0-54.05-71.72-54.069-71.746c-6.146-8.155-18.116-9.829-26.263-3.69
			c0,0-13.358,10.066-13.367,10.073c-5.875,4.428-8.655,12.176-6.951,19.327l-95.461,71.939c-3.308,2.493-3.97,7.197-1.476,10.505
			c2.493,3.308,7.196,3.97,10.504,1.476l94.207-70.995l45.04,59.766l-33.68,25.381c-0.084-0.076-0.176-0.144-0.261-0.219
			c-12.178-10.883-30.659-12.873-45.102-5.214c-18.347,9.73-25.937,33.721-16.824,52.298L252.96,223.99l-45.04-59.766l38.425-28.957
			c3.308-2.493,3.969-7.197,1.476-10.505c-2.493-3.309-7.197-3.97-10.505-1.476l-38.426,28.958c0,0-2.724-3.616-2.727-3.619
			c-8.473-11.244-22.799-10.565-33.21-2.721c-3.053,2.301-5.852,4.892-8.377,7.709l-16.987-2.386
			c-9.407-1.323-18.684,4.38-21.736,13.379c-2.25,6.634-3.698,13.548-4.306,20.549c-0.922,10.659,6.608,20.168,17.144,21.648
			l13.238,1.86c1.276,4.496,3.075,8.789,5.394,12.846c0,0-7.153,5.392-7.157,5.395c-8.695,6.554-10.489,19.327-3.938,28.018
			c0,0,9.786,12.987,9.79,12.991c6.556,8.7,19.328,10.487,28.019,3.938l7.158-5.394c3.261,3.347,6.893,6.259,10.862,8.724
			l-1.859,13.238c-1.48,10.537,5.585,20.396,16.086,22.446c6.802,1.327,14.005,2.057,20.939,1.523
			c9.586-0.458,17.516-7.696,18.852-17.208l2.385-16.976c3.409-1.653,6.666-3.638,9.718-5.939
			c10.388-7.826,15.047-21.38,6.537-32.673l-2.727-3.62l60.981-45.956c5.755,5.23,12.873,8.606,20.601,9.762
			c5.193,13.713,7.931,29.244,7.931,45.225c0,25.935-7.327,50.789-20.102,68.191c-2.516,3.429-6.353,7.99-11.236,11.988
			c-6.938-3.674-14.751-5.717-22.819-5.717c-24.385,0-44.653,17.961-48.273,41.349h-81.804c-4.143,0-7.501,3.358-7.501,7.501
			c0,4.143,3.359,7.501,7.501,7.501h81.227v18.649H93.188c-2.149,0-3.898-1.748-3.898-3.898v-10.854
			c0-2.149,1.749-3.898,3.898-3.898h44.078c4.144,0,7.501-3.358,7.501-7.501c0-4.143-3.357-7.501-7.501-7.501H93.188
			c-10.422,0-18.9,8.479-18.9,18.9v10.854c0,10.422,8.479,18.9,18.9,18.9h155.309v32.467H119.129
			c-29.361,0-55.98,16.2-69.469,42.279c0,0-8.704,16.826-8.71,16.838C38.413,505.957,42.104,512,47.613,512c0,0,416.598,0,416.773,0
			C469.903,512,473.586,505.958,471.049,501.052z M372.228,31.007c-0.611-0.813-0.831-1.819-0.696-2.775
			c0.135-0.958,0.626-1.865,1.436-2.476c0,0,13.367-10.073,13.368-10.074c1.637-1.233,4.019-0.897,5.251,0.739
			c0,0,54.069,71.746,54.07,71.748c1.235,1.641,0.897,4.019-0.739,5.251c0,0-13.367,10.073-13.367,10.074
			c-1.632,1.229-4.03,0.883-5.252-0.738C426.299,102.756,372.229,31.008,372.228,31.007z M139.678,193.195l-8.896-1.249
			c-2.637-0.37-4.52-2.785-4.285-5.498c0.502-5.802,1.702-11.53,3.566-17.024c0.759-2.237,3.106-3.672,5.442-3.341
			c0,0,9.838,1.382,9.827,1.407C141.929,175.84,139.576,184.076,139.678,193.195z M165.011,259.87
			c-2.185,1.645-5.363,1.197-7.007-0.986c0,0-9.771-12.966-9.79-12.991c-1.634-2.169-1.174-5.382,0.985-7.008l6.768-5.101
			l7.907,10.493l7.907,10.492C171.78,254.769,165.013,259.868,165.011,259.87z M231.222,293.092
			c-0.335,2.383-2.316,4.197-4.713,4.312c-5.783,0.277-11.649-0.151-17.348-1.263c-2.672-0.522-4.476-2.997-4.105-5.635l1.25-8.903
			c8.499,2.518,17.548,3.105,26.296,1.655L231.222,293.092z M251.331,258.643c-19.438,14.639-47.732,13.418-63.056-6.913
			c0,0-24.837-32.957-24.844-32.966c-11.575-15.359-11.527-37.296,0.184-52.587c2.981-3.892,6.652-6.999,10.546-9.932
			c3.123-2.353,7.67-1.712,10.022,1.408l68.553,90.966C255.114,251.772,254.482,256.269,251.331,258.643z M329.87,175.425
			c-10.726-14.231-2.006-36.234,15.63-39.138c0.021-0.003,0.042-0.008,0.063-0.011c9.709-1.563,19.967,3.155,25.068,11.577
			c0.007,0.011,0.013,0.023,0.02,0.034c7.284,11.979,2.558,28.162-9.741,34.574C350.366,187.98,337.006,184.894,329.87,175.425z
			 M343.497,322.072c14.623-19.92,23.01-48.009,23.01-77.068c0-16.034-2.493-31.731-7.26-45.956
			c0.611-0.154,1.216-0.325,1.818-0.508c14.619-4.435,25.609-17.312,27.733-32.426c1.119-7.963-0.174-15.893-3.651-22.952
			l10.047-7.572c20.85,30.177,32.26,68.716,32.26,109.414c0,42.364-12.369,82.543-34.827,113.135
			c-8.175,11.137-17.526,20.711-27.87,28.545c0,0-25.273-43.085-25.274-43.085c-0.539-0.919-6.582-9.596-6.997-9.219
			C337.216,330.075,340.923,325.576,343.497,322.072z M263.5,368.314c0-18.664,15.184-33.848,33.848-33.848
			c11.843,0,23.204,6.513,29.195,16.722l53.23,90.744H263.5V368.314z M59.938,496.997l3.047-5.892
			c10.902-21.077,32.415-34.17,56.144-34.17H392.87c23.729,0,45.242,13.093,56.143,34.17l3.047,5.892H59.938z" />
		</g>
	</g>
	<g></g>
	<g></g>
	<g></g>
	<g></g>
	<g></g>
	<g></g>
	<g></g>
	<g></g>
	<g></g>
	<g></g>
	<g></g>
	<g></g>
	<g></g>
	<g></g>
	<g></g>
</svg>