<?xml version="1.0" encoding="iso-8859-1" ?>
<!-- Generator: Adobe Illustrator 19.0.0, SVG Export Plug-In . SVG Version: 6.00 Build 0)  -->
<svg version="1.1" id="Capa_1" xmlns="http://www.w3.org/2000/svg" xmlns:xlink="http://www.w3.org/1999/xlink" x="0px" y="0px" viewBox="0 0 512 512" style="enable-background:new 0 0 512 512;" xml:space="preserve" fill="url(#icon-gradient) #000">
	<g>
		<g>
			<path d="M221.218,335.384c-12.473,0-22.62,10.147-22.62,22.62c0,12.473,10.147,22.62,22.62,22.62
			c12.473,0,22.62-10.147,22.62-22.62C243.838,345.531,233.691,335.384,221.218,335.384z M221.218,365.624
			c-4.202,0-7.62-3.418-7.62-7.62c0-4.202,3.418-7.62,7.62-7.62c4.202,0,7.62,3.418,7.62,7.62
			C228.838,362.206,225.42,365.624,221.218,365.624z" />
		</g>
	</g>
	<g>
		<g>
			<circle cx="221.22" cy="54.867" r="5.884" />
		</g>
	</g>
	<g>
		<g>
			<path d="M142.31,182.739c-4.142,0-7.5,3.357-7.5,7.5v14.281c0,4.142,3.357,7.5,7.5,7.5c4.142,0,7.5-3.358,7.5-7.5v-14.281
			C149.81,186.096,146.452,182.739,142.31,182.739z" />
		</g>
	</g>
	<g>
		<g>
			<path d="M300.127,182.739c-4.142,0-7.5,3.357-7.5,7.5v14.281c0,4.142,3.358,7.5,7.5,7.5s7.5-3.358,7.5-7.5v-14.281
			C307.627,186.096,304.269,182.739,300.127,182.739z" />
		</g>
	</g>
	<g>
		<g>
			<path d="M245.63,197.88c-3.118-2.726-7.856-2.409-10.583,0.71c-3.363,3.847-8.403,6.053-13.829,6.053
			c-5.426,0-10.467-2.206-13.829-6.053c-2.726-3.119-7.464-3.437-10.583-0.711c-3.119,2.726-3.437,7.464-0.711,10.583
			c6.212,7.105,15.368,11.181,25.123,11.181c9.754,0,18.911-4.075,25.122-11.18C249.067,205.344,248.748,200.606,245.63,197.88z" />
		</g>
	</g>
	<g>
		<g>
			<path d="M493.259,329.152c13.845-18.966,17.489-43.977,9.051-66.388c-0.761-2.021-2.355-3.616-4.376-4.376
			c-7.962-2.998-16.329-4.518-24.866-4.518c-4.706,0-9.341,0.459-13.854,1.355c-2.541-12.45-8.391-23.856-16.777-33.112V73.602
			c0-27.043-22.001-49.044-49.045-49.044H49.045C22.001,24.557,0,46.558,0,73.602v282.342c0,27.043,22.001,49.045,49.045,49.045
			h120.736v28.159h-4.658c-14.969,0-27.147,12.178-27.147,27.147s12.178,27.147,27.147,27.147h112.189
			c14.969,0,27.147-12.178,27.147-27.147s-12.178-27.147-27.147-27.147h-4.658v-28.159h62.199l3.763,50.534
			c1.061,17.825,15.862,31.777,33.726,31.777h87.632c17.864,0,32.667-13.952,33.727-31.777l4.6-61.772
			c7.976-2.898,13.699-10.53,13.699-19.494v-24.452C512,339.04,503.761,330.168,493.259,329.152z M473.069,268.87
			c5.567,0,11.041,0.819,16.316,2.441c5.985,19.499,0.759,40.939-13.77,55.468c-0.773,0.772-1.58,1.532-2.415,2.271h-55.28
			c-0.882-10.107,1.022-20.154,5.395-29.111c0.04-0.083,0.082-0.165,0.123-0.247C432.655,281.037,452.275,268.87,473.069,268.87z
			 M429.538,230.326c7.91,7.955,13.313,18.192,15.278,29.444c-0.981,0.43-3.023,1.413-3.079,1.44
			c-7.49,3.713-14.304,8.811-20.015,14.913c-1.735,1.853-3.363,3.796-4.891,5.823c-0.222,0.295-0.453,0.584-0.671,0.883
			c-2.152-2.951-4.54-5.741-7.151-8.353c-6.277-6.276-13.488-11.205-21.5-14.7c0.015-0.089,0.032-0.179,0.048-0.268
			c1.159-6.451,3.432-12.608,6.768-18.252c5.195-8.789,12.813-16.077,21.835-20.858c0.016,0.008,0.031,0.017,0.046,0.025
			C421.11,223.025,425.624,226.39,429.538,230.326z M402.879,329.05h-43.743c-0.838-0.743-1.657-1.497-2.431-2.271
			c-12.252-12.252-17.888-29.418-15.765-46.19c0.002-0.016,0.003-0.031,0.006-0.047c0.438-3.118,1.065-6.217,1.989-9.229
			c11.042-3.381,22.993-3.23,34.02,0.482c0.092,0.031,0.186,0.049,0.279,0.076c8.018,2.743,15.141,7.182,21.169,13.211
			c3.777,3.776,6.946,8.027,9.469,12.658C403.877,307.576,402.137,318.271,402.879,329.05z M277.313,448.147
			c6.698,0,12.147,5.449,12.147,12.147s-5.449,12.147-12.147,12.147H165.124c-6.698,0-12.147-5.449-12.147-12.147
			s5.449-12.147,12.147-12.147H277.313z M184.781,433.147v-28.159h72.874v28.159H184.781z M327.55,389.988H49.045v0
			C30.272,389.988,15,374.716,15,355.943V73.602c0-18.772,15.272-34.044,34.045-34.044h344.347
			c18.772,0,34.045,15.272,34.045,34.044v135.987c-2.545-1.588-5.203-3.009-7.931-4.256c-2.036-0.93-4.375-1.08-6.44-0.119
			c-3.589,1.626-6.935,3.498-10.207,5.685V77.571c0-4.142-3.358-7.5-7.5-7.5h-259.67c-4.142,0-7.5,3.358-7.5,7.5
			c0,4.142,3.358,7.5,7.5,7.5h252.169v139.378c-0.099,0.119-0.196,0.238-0.293,0.358c-5.314,6.51-9.41,13.922-12.143,21.866
			c-0.964,2.802-1.735,5.667-2.327,8.571c-3.942-0.789-7.952-1.217-11.994-1.324c-9.022-0.238-18.274,1.242-26.715,4.467
			c-1.997,0.752-3.625,2.381-4.376,4.376c-1.557,4.137-2.761,8.452-3.488,12.841c-2.052,11.808-1.071,23.921,2.887,35.228H54.578
			V85.071h51.111c4.142,0,7.5-3.358,7.5-7.5c0-4.142-3.358-7.5-7.5-7.5H47.078c-4.142,0-7.5,3.358-7.5,7.5v240.762
			c0,4.142,3.358,7.5,7.5,7.5h289.698c0.725,1.123,1.479,2.23,2.271,3.315c-0.016,0.001-0.031,0.005-0.048,0.007
			c-7.546,0.686-14.398,5.892-17.178,12.926c-0.972,2.462-1.501,5.074-1.501,7.724v24.452
			C320.32,380.257,323.004,386.076,327.55,389.988z M497.001,374.257c0,3.173-2.581,5.755-5.754,5.755h-30.89
			c-4.142,0-7.5,3.358-7.5,7.5c0,4.142,3.358,7.5,7.5,7.5h22.811l-4.429,59.455c-0.003,0.042-0.006,0.084-0.008,0.126
			c-0.571,9.929-8.81,17.706-18.755,17.706h-87.632c-9.945,0-18.183-7.777-18.754-17.706c-0.002-0.042-0.005-0.084-0.008-0.126
			l-4.428-59.455h81.203c4.142,0,7.5-3.358,7.5-7.5c0-4.142-3.358-7.5-7.5-7.5c0,0-89.273,0-89.282,0
			c-3.108,0-5.755-2.615-5.755-5.755v-24.452c0-3.173,2.582-5.755,5.755-5.755h150.172c3.173,0,5.754,2.582,5.754,5.755V374.257z" />
		</g>
	</g>
	<g></g>
	<g></g>
	<g></g>
	<g></g>
	<g></g>
	<g></g>
	<g></g>
	<g></g>
	<g></g>
	<g></g>
	<g></g>
	<g></g>
	<g></g>
	<g></g>
	<g></g>
</svg>