<?xml version="1.0" encoding="iso-8859-1" ?>
<!-- Generator: Adobe Illustrator 19.0.0, SVG Export Plug-In . SVG Version: 6.00 Build 0)  -->
<svg version="1.1" id="Capa_1" xmlns="http://www.w3.org/2000/svg" xmlns:xlink="http://www.w3.org/1999/xlink" x="0px" y="0px" viewBox="0 0 512.001 512.001" style="enable-background:new 0 0 512.001 512.001;" xml:space="preserve" fill="url(#icon-gradient) #000">
	<g>
		<g>
			<circle cx="256" cy="28.495" r="6.292" />
		</g>
	</g>
	<g>
		<g>
			<path d="M256,440.807c-13.528,0-24.534,11.006-24.534,24.533c0,13.528,11.006,24.534,24.534,24.534s24.534-11.006,24.534-24.534
			C280.534,451.812,269.529,440.807,256,440.807z M256,474.874c-5.257,0-9.534-4.277-9.534-9.534c0-5.257,4.277-9.534,9.534-9.534
			s9.534,4.277,9.534,9.534C265.534,470.597,261.258,474.874,256,474.874z" />
		</g>
	</g>
	<g>
		<g>
			<path d="M378.497,0H195.406c-4.142,0-7.5,3.358-7.5,7.5s3.358,7.5,7.5,7.5h183.091c21.673,0,39.305,17.632,39.305,39.305v403.391
			c0,21.673-17.632,39.305-39.305,39.305H133.505c-21.673,0-39.305-17.632-39.305-39.305V54.305
			C94.199,32.632,111.831,15,133.505,15h31.901c4.142,0,7.5-3.358,7.5-7.5s-3.358-7.5-7.5-7.5h-31.901
			C103.56,0,79.199,24.361,79.199,54.305v403.391c0,29.944,24.361,54.305,54.305,54.305h244.992
			c29.944-0.001,54.305-24.362,54.305-54.306V54.305C432.802,24.361,408.44,0,378.497,0z" />
		</g>
	</g>
	<g>
		<g>
			<path d="M378.497,42.239H133.505c-7.888,0.001-14.305,6.418-14.305,14.305v363.391c0,7.888,6.417,14.305,14.305,14.305h187.901
			c4.142,0,7.5-3.358,7.5-7.5c0-4.142-3.358-7.5-7.5-7.5H134.2v-362h243.602v362h-26.396c-4.142,0-7.5,3.358-7.5,7.5
			c0,4.142,3.358,7.5,7.5,7.5h27.091c7.888,0,14.305-6.417,14.305-14.305V56.544C392.802,48.656,386.385,42.239,378.497,42.239z" />
		</g>
	</g>
	<g>
		<g>
			<path d="M178.25,219.948c-4.142,0-7.5,3.359-7.5,7.5v14.072c0,4.142,3.358,7.5,7.5,7.5c4.142,0,7.5-3.358,7.5-7.5v-14.072
			C185.75,223.306,182.391,219.948,178.25,219.948z" />
		</g>
	</g>
	<g>
		<g>
			<path d="M333.752,219.948c-4.142,0-7.5,3.359-7.5,7.5v14.072c0,4.142,3.358,7.5,7.5,7.5c4.142,0,7.5-3.358,7.5-7.5v-14.072
			C341.252,223.306,337.893,219.948,333.752,219.948z" />
		</g>
	</g>
	<g>
		<g>
			<path d="M280.127,234.894c-3.118-2.727-7.857-2.408-10.583,0.711c-3.292,3.766-8.229,5.926-13.543,5.926
			c-5.315,0-10.251-2.16-13.543-5.926c-2.727-3.119-7.464-3.437-10.583-0.711c-3.119,2.726-3.437,7.464-0.711,10.583
			c6.141,7.025,15.194,11.054,24.837,11.054s18.696-4.029,24.836-11.054C283.563,242.358,283.245,237.621,280.127,234.894z" />
		</g>
	</g>
	<g></g>
	<g></g>
	<g></g>
	<g></g>
	<g></g>
	<g></g>
	<g></g>
	<g></g>
	<g></g>
	<g></g>
	<g></g>
	<g></g>
	<g></g>
	<g></g>
	<g></g>
</svg>