<?xml version="1.0" encoding="iso-8859-1" ?>
<!-- Generator: Adobe Illustrator 19.0.0, SVG Export Plug-In . SVG Version: 6.00 Build 0)  -->
<svg version="1.1" id="Capa_1" xmlns="http://www.w3.org/2000/svg" xmlns:xlink="http://www.w3.org/1999/xlink" x="0px" y="0px" viewBox="0 0 511.999 511.999" style="enable-background:new 0 0 511.999 511.999;" xml:space="preserve" fill="url(#icon-gradient) #000">
	<g>
		<g>
			<path d="M484.603,173.613l-137.942-20.044c0,0-61.607-124.83-61.689-124.996c-11.642-23.589-46.323-23.536-57.939,0
			l-24.955,50.563c-1.835,3.718-0.308,8.22,3.41,10.056c3.718,1.835,8.22,0.308,10.056-3.41l24.955-50.563
			c2.978-6.034,8.773-9.637,15.502-9.637c6.731,0,12.526,3.603,15.504,9.637l63.436,128.536c1.093,2.215,3.208,3.752,5.653,4.108
			c0,0,141.448,20.554,141.847,20.612c13.945,2.026,19.671,19.656,9.583,29.49L389.383,318.015c-1.77,1.725-2.578,4.211-2.159,6.646
			c0,0,24.149,140.796,24.231,141.273c2.385,13.905-12.597,24.792-25.085,18.226l-126.872-66.701c-2.188-1.149-4.8-1.149-6.988,0
			c0,0-126.407,66.457-126.871,66.701c-12.526,6.585-27.465-4.354-25.085-18.224l24.23-141.274c0.417-2.436-0.389-4.921-2.159-6.646
			c0,0-102.347-99.764-102.641-100.05c-10.103-9.849-4.318-27.47,9.581-29.49l141.848-20.612c2.446-0.355,4.56-1.891,5.653-4.108
			L201.5,114.24c1.835-3.718,0.308-8.22-3.41-10.056c-3.72-1.836-8.22-0.308-10.056,3.41l-22.689,45.975
			c0,0-137.736,20.014-137.942,20.044c-25.973,3.774-36.701,36.78-17.904,55.104l99.816,97.296c0,0-23.523,137.153-23.563,137.383
			c-4.428,25.816,23.651,46.264,46.874,34.056l123.378-64.865c0,0,123.218,64.78,123.378,64.864
			c23.315,12.258,51.307-8.203,46.875-34.055l-23.564-137.384c0,0,99.689-97.172,99.815-97.295
			C521.324,210.375,510.51,177.378,484.603,173.613z" />
		</g>
	</g>
	<g>
		<g>
			<path d="M169.154,236.329c-4.147,0-7.508,3.362-7.508,7.508v15.718c0,4.147,3.362,7.508,7.508,7.508
			c4.147,0,7.508-3.362,7.508-7.508v-15.718C176.663,239.691,173.301,236.329,169.154,236.329z" />
		</g>
	</g>
	<g>
		<g>
			<path d="M342.852,236.329c-4.147,0-7.508,3.362-7.508,7.508v15.718c0,4.147,3.362,7.508,7.508,7.508s7.508-3.362,7.508-7.508
			v-15.718C350.36,239.691,346.999,236.329,342.852,236.329z" />
		</g>
	</g>
	<g>
		<g>
			<path d="M282.38,252.808c-3.122-2.729-7.866-2.411-10.595,0.712c-3.842,4.396-9.595,6.917-15.783,6.917s-11.94-2.521-15.783-6.917
			c-2.729-3.122-7.472-3.441-10.595-0.712s-3.441,7.472-0.712,10.595c6.695,7.659,16.569,12.05,27.089,12.05
			c10.521,0,20.395-4.392,27.089-12.05C285.821,260.281,285.503,255.537,282.38,252.808z" />
		</g>
	</g>
	<g></g>
	<g></g>
	<g></g>
	<g></g>
	<g></g>
	<g></g>
	<g></g>
	<g></g>
	<g></g>
	<g></g>
	<g></g>
	<g></g>
	<g></g>
	<g></g>
	<g></g>
</svg>