<?xml version="1.0" encoding="iso-8859-1" ?>
<!-- Generator: Adobe Illustrator 19.0.0, SVG Export Plug-In . SVG Version: 6.00 Build 0)  -->
<svg version="1.1" id="Capa_1" xmlns="http://www.w3.org/2000/svg" xmlns:xlink="http://www.w3.org/1999/xlink" x="0px" y="0px" viewBox="0 0 512.001 512.001" style="enable-background:new 0 0 512.001 512.001;" xml:space="preserve" fill="url(#icon-gradient) #000">
	<g>
		<g>
			<path d="M180.518,310.973c-4.142,0-7.501,3.358-7.501,7.501v13.66c0,4.142,3.358,7.501,7.501,7.501s7.501-3.358,7.501-7.501
			v-13.66C188.018,314.332,184.66,310.973,180.518,310.973z" />
		</g>
	</g>
	<g>
		<g>
			<path d="M331.48,310.973c-4.142,0-7.501,3.358-7.501,7.501v13.66c0,4.142,3.358,7.501,7.501,7.501s7.501-3.358,7.501-7.501v-13.66
			C338.981,314.332,335.622,310.973,331.48,310.973z" />
		</g>
	</g>
	<g>
		<g>
			<path d="M279.565,325.538c-3.119-2.726-7.858-2.409-10.584,0.71c-3.154,3.608-7.887,5.678-12.982,5.678
			c-5.096,0-9.828-2.069-12.982-5.678c-2.727-3.119-7.465-3.437-10.584-0.711c-3.119,2.726-3.437,7.465-0.711,10.584
			c6.004,6.868,14.852,10.807,24.277,10.807c9.425,0,18.274-3.938,24.277-10.806C283.003,333.003,282.684,328.264,279.565,325.538z" />
		</g>
	</g>
	<g>
		<g>
			<path d="M510.556,493.89c0,0-59.435-92.148-59.438-92.153l-53.263-82.577c-2.246-3.481-6.888-4.482-10.369-2.238
			c-3.481,2.245-4.482,6.888-2.237,10.369l46.792,72.546c-6.504,1.304-12.92,3.378-18.904,6.256
			c-0.013,0.006-0.026,0.011-0.039,0.017c-8.964,4.225-18.942,6.459-28.857,6.459c-9.93,0-19.911-2.232-28.865-6.458
			c-22.07-10.413-48.455-10.398-70.52-0.001c-9.006,4.243-18.918,6.461-28.872,6.458c-9.91-0.002-19.883-2.234-28.843-6.458
			c-22.131-10.431-48.389-10.44-70.52,0.001c-18.115,8.547-39.605,8.542-57.722,0c-6.029-2.843-12.409-4.963-18.945-6.274
			l55.777-86.474c7.869-12.216,17.535-23.129,28.732-32.439c11.175-9.3,23.668-16.824,37.129-22.36
			c11.907-4.895,24.266-8.133,36.913-9.682c0.055-0.006,8.866-0.87,13.26-0.995c2.82-0.083,5.645-0.083,8.465,0
			c4.375,0.128,13.194,0.988,13.243,0.993c12.653,1.549,25.018,4.787,36.931,9.685c23.376,9.611,43.857,25.304,59.228,45.386
			c2.518,3.289,7.226,3.914,10.515,1.397c3.289-2.518,3.915-7.226,1.397-10.515c-16.981-22.185-39.608-39.525-65.435-50.143
			c-11.136-4.577-22.632-7.835-34.373-9.768v-88.24H315c0,0,0,33.077,0,33.147c0,4.016,3.49,7.501,7.501,7.501h133.447
			c13.792,0,25.013-11.221,25.013-25.013V80.969c0-13.792-11.221-25.013-25.013-25.013h-59.446v-6.122
			c0-19.038-15.488-34.526-34.525-34.526h-82.039c-2.752-5.438-8.381-9.182-14.88-9.182h-18.112
			c-9.199,0-16.683,7.484-16.683,16.683v48.825c0,4.142,3.358,7.501,7.501,7.501s7.501-3.358,7.501-7.501V22.809
			c0-0.927,0.754-1.681,1.681-1.681h18.108c0.927,0,1.681,0.754,1.681,1.681v210.372c-0.076-0.005-0.151-0.007-0.227-0.011
			c-3.497-0.226-7.004-0.354-10.509-0.354c-3.465,0-7.065-0.051-10.512,0.354c-0.074,0.005-0.148,0.006-0.223,0.011V101.605
			c0-4.142-3.358-7.501-7.501-7.501s-7.501,3.358-7.501,7.501v133.316c-11.741,1.933-23.237,5.19-34.375,9.769
			c-14.871,6.117-28.672,14.428-41.016,24.701c-12.371,10.285-23.053,22.346-31.748,35.845c0,0-62.248,96.506-62.251,96.512
			c0,0-59.581,92.375-59.701,92.56c-3.168,4.911,0.483,11.566,6.304,11.566c0,0,495.609,0,497.065,0
			C510.589,505.874,514.165,498.722,510.556,493.89z M392.909,145.579c2.183-1.334,3.588-3.83,3.588-6.4V70.957h59.447
			c5.521,0,10.012,4.491,10.012,10.012v81.345c0,5.521-4.491,10.012-10.012,10.012H349.151
			C349.151,172.326,392.908,145.58,392.909,145.579z M329.999,166.451V146.68h32.344L329.999,166.451z M281.735,30.311h80.237
			c10.766,0,19.525,8.758,19.525,19.524v81.843h-99.762V30.311z M21.238,490.873l49.812-77.228
			c7.424,0.809,14.697,2.849,21.452,6.036c10.951,5.161,23.142,7.89,35.253,7.89c12.129,0,24.324-2.729,35.266-7.891
			c17.066-8.051,37.171-8.557,54.611-1.363c24.25,10.002,49.24,12.854,73.619,1.364c18.059-8.511,39.671-8.518,57.723-0.001
			c20.273,9.564,44.028,10.389,64.945,2.371c8.679-3.327,17.492-7.365,27.028-8.406l49.812,77.228H21.238z" />
		</g>
	</g>
	<g></g>
	<g></g>
	<g></g>
	<g></g>
	<g></g>
	<g></g>
	<g></g>
	<g></g>
	<g></g>
	<g></g>
	<g></g>
	<g></g>
	<g></g>
	<g></g>
	<g></g>
</svg>