<?xml version="1.0" encoding="iso-8859-1" ?>
<!-- Generator: Adobe Illustrator 19.0.0, SVG Export Plug-In . SVG Version: 6.00 Build 0)  -->
<svg version="1.1" id="Capa_1" xmlns="http://www.w3.org/2000/svg" xmlns:xlink="http://www.w3.org/1999/xlink" x="0px" y="0px" viewBox="0 0 512 512" style="enable-background:new 0 0 512 512;" xml:space="preserve" fill="url(#icon-gradient) #000">
	<g>
		<g>
			<path d="M471.242,40.168H40.758C18.284,40.168,0,58.452,0,80.926v350.148c0,22.474,18.284,40.758,40.758,40.758h64.483
			c4.142,0,7.5-3.358,7.5-7.5c0-4.142-3.358-7.5-7.5-7.5H40.758C26.555,456.832,15,445.277,15,431.074V80.926
			c0-14.203,11.555-25.758,25.758-25.758h430.485c14.203,0,25.758,11.555,25.758,25.758v350.148
			c0,14.203-11.555,25.758-25.758,25.758H135.241c-4.143,0-7.5,3.358-7.5,7.5c0,4.142,3.357,7.5,7.5,7.5h336.001
			c22.474,0,40.758-18.284,40.758-40.758V80.926C512,58.452,493.716,40.168,471.242,40.168z" />
		</g>
	</g>
	<g>
		<g>
			<path d="M464.5,150.168h-50.301c-4.142,0-7.5,3.358-7.5,7.5c0,4.142,3.358,7.5,7.5,7.5H457v251.664H55V165.168h329.281
			c4.142,0,7.5-3.358,7.5-7.5c0-4.142-3.358-7.5-7.5-7.5H47.5c-4.142,0-7.5,3.358-7.5,7.5v266.664c0,4.142,3.358,7.5,7.5,7.5h417
			c4.142,0,7.5-3.358,7.5-7.5V157.668C472,153.526,468.642,150.168,464.5,150.168z" />
		</g>
	</g>
	<g>
		<g>
			<path d="M167.582,271.228c-4.142,0-7.5,3.358-7.5,7.5v16.002c0,4.142,3.358,7.5,7.5,7.5c4.143,0,7.5-3.358,7.5-7.5v-16.002
			C175.082,274.586,171.725,271.228,167.582,271.228z" />
		</g>
	</g>
	<g>
		<g>
			<path d="M344.418,271.228c-4.142,0-7.5,3.358-7.5,7.5v16.002c0,4.142,3.358,7.5,7.5,7.5c4.142,0,7.5-3.358,7.5-7.5v-16.002
			C351.918,274.586,348.56,271.228,344.418,271.228z" />
		</g>
	</g>
	<g>
		<g>
			<path d="M282.757,287.97c-3.117-2.726-7.855-2.407-10.581,0.711c-3.939,4.507-9.835,7.091-16.176,7.091
			s-12.237-2.584-16.176-7.091c-2.725-3.118-7.463-3.437-10.583-0.711c-3.119,2.727-3.437,7.464-0.711,10.583
			c6.788,7.766,16.8,12.219,27.469,12.219c10.669,0,20.682-4.453,27.469-12.219C286.194,295.435,285.876,290.697,282.757,287.97z" />
		</g>
	</g>
	<g>
		<g>
			<path d="M268.729,77.289H47.5c-4.142,0-7.5,3.358-7.5,7.5v35.758c0,4.142,3.358,7.5,7.5,7.5h221.229c4.142,0,7.5-3.358,7.5-7.5
			V84.789C276.229,80.647,272.871,77.289,268.729,77.289z M261.229,113.047H55V92.289h206.229V113.047z" />
		</g>
	</g>
	<g>
		<g>
			<path d="M446.675,77.289c-13.964,0-25.325,11.361-25.325,25.325s11.361,25.325,25.325,25.325
			c13.964,0,25.325-11.361,25.325-25.325S460.639,77.289,446.675,77.289z M446.675,112.939c-5.693,0-10.325-4.631-10.325-10.325
			c0-5.693,4.632-10.325,10.325-10.325c5.693,0,10.325,4.632,10.325,10.325S452.368,112.939,446.675,112.939z" />
		</g>
	</g>
	<g>
		<g>
			<path d="M385.675,77.289c-13.964,0-25.325,11.361-25.325,25.325s11.361,25.325,25.325,25.325
			c13.965,0,25.325-11.361,25.325-25.325S399.639,77.289,385.675,77.289z M385.675,112.939c-5.693,0-10.325-4.631-10.325-10.325
			c0-5.693,4.632-10.325,10.325-10.325c5.693,0,10.325,4.632,10.325,10.325S391.368,112.939,385.675,112.939z" />
		</g>
	</g>
	<g>
		<g>
			<path d="M324.675,77.289c-13.964,0-25.325,11.361-25.325,25.325s11.361,25.325,25.325,25.325
			c13.965,0,25.325-11.361,25.325-25.325S338.639,77.289,324.675,77.289z M324.675,112.939c-5.693,0-10.325-4.631-10.325-10.325
			c0-5.693,4.632-10.325,10.325-10.325c5.693,0,10.325,4.632,10.325,10.325S330.368,112.939,324.675,112.939z" />
		</g>
	</g>
</svg>