<?xml version="1.0" encoding="UTF-8"?>
<svg width="360px" height="407px" viewBox="0 0 360 407" version="1.1" xmlns="http://www.w3.org/2000/svg" xmlns:xlink="http://www.w3.org/1999/xlink">
    <!-- Generator: Sketch 44.1 (41455) - http://www.bohemiancoding.com/sketch -->
    <title>css3-01</title>
    <desc>Created with Sketch.</desc>
    <defs></defs>
    <g id="Page-1" stroke="none" stroke-width="1" fill="none" fill-rule="evenodd">
        <g id="css3-01">
            <path d="M180,0.5 L359.5,0.5 L327.2,365.7 L180,406.5 L32.8,365.7 L0.5,0.5 L180,0.5 Z M127.6,167 L131.1,213 L180,213 L180,167 L127.6,167 Z M130.1,269.7 L126.7,234 L81.6,234 L88.2,304.6 L180,330.3 L180,283.8 L130.1,269.7 Z M67.6,77 L71.7,122 L180,122 L180,77 L67.6,77 Z M291.3,77 L180,77 L180,122 L243.8,122 L239.8,167 L180,167 L180,213 L235.1,213 L229.8,270.6 L180,283.8 L180,330.3 L271.4,304.6 L291.3,77 Z" id="Combined-Shape" fill="#FFFFFF" fill-rule="nonzero"></path>
            <g id="Group" transform="translate(67.000000, 77.000000)"></g>
        </g>
    </g>
</svg>