<?xml version="1.0" encoding="UTF-8" ?>
<svg preserveAspectRatio="xMidYMid meet" width="60px" height="64px" viewBox="0 0 60 64" version="1.1" xmlns="http://www.w3.org/2000/svg" xmlns:xlink="http://www.w3.org/1999/xlink">
    <title>electronjs-icon</title>
    <desc>Created with Sketch.</desc>
    <g stroke="none" stroke-width="1" fill="none" fill-rule="evenodd">
        <g id="electronjs-icon" fill="url(#tech-gradient) #000">
            <path d="M21.3,13.756 C12.937,12.233 6.324,13.826 3.688,18.392 C1.721,21.798 2.283,26.315 5.051,31.142 C5.2876152,31.5518749 5.81093538,31.6935423 6.222,31.459 C6.63187493,31.2223848 6.77354231,30.6990646 6.539,30.288 C4.046,25.938 3.561,22.041 5.173,19.248 C7.373,15.456 13.261,14.034 20.993,15.442 C21.4585189,15.525238 21.9039026,15.2169985 21.99,14.752 C22.073238,14.2864811 21.7649985,13.8410974 21.3,13.755 L21.3,13.756 Z M9.4,37 C12.782,40.716 17.175,44.202 22.186,47.095 C34.328,54.1 47.243,55.98 53.6,51.64 C53.9901757,51.37224 54.0907224,50.8395662 53.825,50.448 C53.55724,50.0578243 53.0245662,49.9572776 52.633,50.223 C46.936,54.107 34.667,52.329 23.033,45.618 C18.173,42.812 13.918,39.436 10.658,35.854 C10.3385395,35.504674 9.79683533,35.4791979 9.446,35.797 C9.09667404,36.1164605 9.07119786,36.6581647 9.389,37.009 L9.4,37 Z M51.578,35.967 C57.054,29.497 58.966,22.991 56.336,18.437 C54.401,15.085 50.31,13.315 44.872,13.245 C44.3989503,13.2399869 44.0106747,13.617986 44.003,14.091 C43.9979869,14.5640497 44.375986,14.9523253 44.849,14.96 C49.749,15.024 53.264,16.548 54.849,19.295 C57.034,23.079 55.329,28.881 50.267,34.861 C49.9619985,35.2228671 50.006688,35.763163 50.367,36.07 C50.7288671,36.3750015 51.269163,36.330312 51.576,35.97 L51.578,35.967 Z M37.504,14.04 C32.554,15.1 27.282,17.175 22.221,20.097 C9.697,27.327 1.527,38 2.66,45.72 C2.72999195,46.1878763 3.16473852,46.5113671 3.633,46.444 C4.10087634,46.3740081 4.42436711,45.9392615 4.357,45.471 C3.35,38.607 11.094,28.501 23.077,21.571 C27.977,18.736 33.09,16.728 37.862,15.705 C38.3242453,15.6046405 38.6186719,15.1498207 38.521,14.687 C38.4206405,14.2247547 37.9658207,13.9303281 37.503,14.028 L37.504,14.04 Z" id="Shape"></path>
            <path d="M17.215,51.082 C20.078,59.077 24.762,64 30.03,64 C33.872,64 37.426,61.38 40.197,56.77 C40.439736,56.3638658 40.3088118,55.8379349 39.904,55.593 C39.4978658,55.350264 38.9719349,55.4811882 38.727,55.886 C36.227,60.029 33.177,62.283 30.03,62.283 C25.655,62.283 21.477,57.883 18.83,50.503 C18.6691564,50.0578998 18.1789065,49.8264053 17.733,49.985 C17.2878998,50.1458436 17.0564053,50.6360935 17.215,51.082 Z M43.368,49.518 C44.85,44.781 45.646,39.318 45.646,33.623 C45.646,19.415 40.673,7.167 33.59,4.023 C33.1569763,3.83213457 32.6511111,4.02697311 32.458,4.459 C32.2671346,4.8920237 32.4619731,5.39788889 32.894,5.591 C39.212,8.395 43.93,20.02 43.93,33.624 C43.93,39.148 43.16,44.44 41.73,49.007 C41.5896724,49.4589252 41.8408144,49.9393124 42.292,50.082 C42.7439252,50.2223276 43.2243124,49.9711856 43.367,49.52 L43.368,49.518 Z M59.52,48.678 C59.52,46.411 57.682,44.573 55.415,44.573 C53.148,44.573 51.3,46.4 51.3,48.678 C51.3,50.956 53.138,52.783 55.405,52.783 C57.672,52.783 59.51,50.945 59.51,48.678 L59.52,48.678 Z M57.805,48.678 C57.8044482,49.9971796 56.7351796,51.0664482 55.416,51.067 C54.0968204,51.0664482 53.0275518,49.9971796 53.027,48.678 C53.0275518,47.3588204 54.0968204,46.2895518 55.416,46.289 C56.7351796,46.2895518 57.8044482,47.3588204 57.805,48.678 Z" id="Shape"></path>
            <path d="M4.584,52.783 C6.851,52.783 8.689,50.945 8.689,48.678 C8.689,46.411 6.851,44.573 4.584,44.573 C2.3168711,44.5732761 0.479223858,46.4113711 0.4795,48.6785 C0.479776142,50.9456289 2.3178711,52.7832761 4.585,52.783 L4.584,52.783 Z M4.584,51.068 C3.26482038,51.0674482 2.19555184,49.9981796 2.195,48.679 C2.19555184,47.3598204 3.26482038,46.2905518 4.584,46.29 C5.90317962,46.2905518 6.97244816,47.3598204 6.973,48.679 C6.97244816,49.9981796 5.90317962,51.0674482 4.584,51.068 Z M30.03,8.2 C32.297,8.2 34.135,6.362 34.135,4.095 C34.135,1.828 32.296,0 30.03,0 C27.764,0 25.925,1.838 25.925,4.105 C25.925,6.372 27.763,8.2 30.03,8.2 Z M30.03,6.485 C28.7108204,6.48444816 27.6415518,5.41517962 27.641,4.096 C27.6415518,2.77682038 28.7108204,1.70755184 30.03,1.707 C31.3491796,1.70755184 32.4184482,2.77682038 32.419,4.096 C32.4184482,5.41517962 31.3491796,6.48444816 30.03,6.485 Z M30.656,36.525 C29.6158685,36.7566351 28.5313585,36.4132837 27.8140498,35.6252503 C27.0967411,34.8372168 26.8565838,33.7252921 27.1847193,32.71146 C27.5128548,31.6976279 28.3589861,30.9372899 29.402,30.719 C30.4421315,30.4873649 31.5266415,30.8307163 32.2439502,31.6187497 C32.9612589,32.4067832 33.2014162,33.5187079 32.8732807,34.53254 C32.5451452,35.5463721 31.6990139,36.3067101 30.656,36.525 Z" id="Shape"></path>
        </g>
    </g>
</svg>