<?xml version="1.0" encoding="UTF-8"?>
<svg width="368px" height="367px" viewBox="0 0 368 367" version="1.1" xmlns="http://www.w3.org/2000/svg" xmlns:xlink="http://www.w3.org/1999/xlink">
    <g stroke="none" stroke-width="1" fill="none" fill-rule="evenodd">
        <g id="js-01" fill-rule="nonzero" fill="#FFFFFF">
            <path d="M0,0 L368,0 C368,123 368,244 368,367 L0,367 L0,0 Z M338.7,282.8 C337.7,273.4 334.4,265 328.1,257.8 C321.6,250.4 313.4,245.2 304.7,241 C296.4,237 287.9,233.6 279.6,229.6 C275.9,227.9 272.4,225.8 269.1,223.4 C264,219.5 262.6,214 263.8,207.9 C264.9,202.1 268.7,198.5 274.3,197.1 C282.5,195 290.1,196.5 296.1,202.8 C298.4,205.2 300.2,208 302.4,210.9 C311.2,205.3 320,199.6 329,193.8 C323.9,184.8 317.4,177.1 308.2,172.4 C294,165.2 279,164.5 263.8,168.3 C243,173.4 229.9,190.1 229.5,211.3 C229.3,224.3 232.8,236 242,245.7 C247.8,251.8 254.7,256.3 262.2,259.9 C270.9,264 279.9,267.7 288.6,271.8 C292.2,273.5 295.8,275.7 299,278.2 C304.3,282.5 306,289.4 303.8,295.6 C302,300.5 298.3,303.5 293.7,305.3 C282.8,309.6 265.6,308.5 254.7,296.3 C252,293.3 249.7,290 247,286.7 C237.8,292 228.5,297.4 219.2,302.8 C225.3,314.7 234.1,323.6 245.7,329.8 C256.6,335.6 268.3,337.9 280.5,338.1 C291.1,338.3 301.5,336.8 311.4,332.6 C323.3,327.4 332.1,319.1 336.6,306.7 C339.2,298.9 339.6,290.9 338.7,282.8 Z M200.3,170 C200.3,169.4 200.2,170 200.2,168 C188.7,168 177,168 165,168 C165,170 165,170.3 165,171.2 C165,209 165.4,246.8 165.4,284.6 C165.4,287.5 165.7,290.4 165.2,293.3 C164.3,298.8 162,303.6 156.3,305.7 C151.2,307.6 146,307.7 140.9,306.1 C135.6,304.4 132.2,300.5 129.2,296 C127.8,293.9 126.5,291.7 125.1,289.4 C115.8,295.1 106.5,300.7 97.2,306.3 C97.3,306.6 97.3,306.8 97.4,307 C103.2,318.9 111.8,328 124.1,333.2 C137.9,339 152.1,339.3 166.4,335.8 C179.5,332.6 189.4,325 195.1,312.6 C199.2,303.9 200.3,294.5 200.3,284.9 C200.3,246.8 200.3,208.3 200.3,170 Z" id="Combined-Shape"></path>
        </g>
    </g>
</svg>