<?xml version="1.0" encoding="UTF-8"?>
<svg width="256px" height="251px" viewBox="0 0 256 251" version="1.1" xmlns="http://www.w3.org/2000/svg" xmlns:xlink="http://www.w3.org/1999/xlink">
    <!-- Generator: Sketch 44.1 (41455) - http://www.bohemiancoding.com/sketch -->
    <title>meteor-icon</title>
    <desc>Created with Sketch.</desc>
    <defs></defs>
    <g id="Page-1" stroke="none" stroke-width="1" fill="none" fill-rule="evenodd">
        <g id="meteor-icon" fill-rule="nonzero" fill="#FFFFFF">
            <path d="M0.439,0.438 L219.3,232.266 C219.3,232.266 226.757,237.525 232.458,231.389 C238.16,225.254 233.774,219.119 233.774,219.119 L0.44,0.439 L0.439,0.438 Z M69.738,22.35 L236.406,202.027 C236.406,202.027 243.862,207.287 249.564,201.151 C255.266,195.016 250.88,188.881 250.88,188.881 L69.738,22.35 Z M21.053,69.242 L187.72,248.919 C187.72,248.919 195.176,254.178 200.878,248.042 C206.58,241.907 202.194,235.772 202.194,235.772 L21.053,69.242 Z M128.32,41.194 L244.762,166.724 C244.762,166.724 249.972,170.398 253.955,166.112 C257.938,161.825 254.874,157.539 254.874,157.539 L128.321,41.194 L128.32,41.194 Z M37.092,123.583 L153.533,249.113 C153.533,249.113 158.743,252.787 162.726,248.5 C166.709,244.214 163.645,239.928 163.645,239.928 L37.092,123.583 Z M188.16,68.365 L240.935,125.432 C240.935,125.432 243.512,127.154 245.482,125.145 C247.452,123.137 245.937,121.128 245.937,121.128 L188.16,68.365 Z M66.229,181.43 L119.004,238.497 C119.004,238.497 121.581,240.219 123.551,238.211 C125.521,236.202 124.006,234.194 124.006,234.194 L66.229,181.43 Z" id="Shape"></path>
        </g>
    </g>
</svg>