<?xml version="1.0" encoding="UTF-8"?>
<svg width="377px" height="425px" viewBox="0 0 377 425" version="1.1" xmlns="http://www.w3.org/2000/svg" xmlns:xlink="http://www.w3.org/1999/xlink">
    <!-- Generator: Sketch 44.1 (41455) - http://www.bohemiancoding.com/sketch -->
    <title>nodejs-01</title>
    <desc>Created with Sketch.</desc>
    <defs></defs>
    <g id="Page-1" stroke="none" stroke-width="1" fill="none" fill-rule="evenodd">
        <g id="nodejs-01" fill-rule="nonzero" fill="#FFFFFF">
            <path d="M187.6,424.6 C181.9,424.6 176.3,423.2 171.3,420.3 L119.4,389.6 C111.7,385.3 115.4,383.7 118,382.9 C128.3,379.3 130.5,378.5 141.5,372.3 C142.6,371.6 144.2,371.9 145.4,372.6 L185.2,396.2 C186.6,397.1 188.6,397.1 190.1,396.2 L345.6,306.5 C347,305.6 348,304.1 348,302.3 L348,122.8 C348,121.1 347.1,119.4 345.6,118.5 L190.1,29 C188.7,28.1 186.8,28.1 185.4,29 L30.1,118.7 C28.5,119.6 27.7,121.3 27.7,123 L27.7,302.4 C27.7,304.1 28.7,305.7 30.1,306.6 L72.7,331.2 C95.8,342.8 110,329.2 110,315.4 L110,138.1 C110,135.7 112,133.7 114.6,133.7 L134.4,133.7 C136.8,133.7 138.8,135.7 138.8,138.1 L138.8,315.2 C138.8,346 122,363.8 92.8,363.8 C83.8,363.8 76.8,363.8 57,354.1 L16.3,330.6 C6.3,324.7 2.84217094e-14,313.8 2.84217094e-14,302.2 L2.84217094e-14,122.8 C2.84217094e-14,111.2 6.3,100.3 16.3,94.4 L171.8,4.6 C181.7,-1 194.7,-1 204.5,4.6 L360,94.4 C370,100.3 376.3,111 376.3,122.8 L376.3,302.2 C376.3,313.8 370,324.7 360,330.6 L204.5,420.3 C199,423.2 193.3,424.6 187.6,424.6 Z" id="Shape"></path>
            <path d="M235.6,301.1 C167.5,301.1 153.3,269.9 153.3,243.6 C153.3,241.2 155.3,239.2 157.7,239.2 L177.8,239.2 C180.1,239.2 182,240.8 182.2,243.1 C185.2,263.6 194.2,273.9 235.4,273.9 C268.2,273.9 282.1,266.4 282.1,249.1 C282.1,239.1 278.1,231.6 227.2,226.6 C184.6,222.4 158.4,213 158.4,179 C158.4,147.6 184.8,129 229.2,129 C278.9,129 303.6,146.3 306.7,183.3 C306.8,184.6 306.4,185.7 305.6,186.7 C304.7,187.6 303.6,188.1 302.3,188.1 L282.1,188.1 C280,188.1 278.2,186.7 277.8,184.7 C272.9,163.2 261.2,156.3 229.2,156.3 C193.5,156.3 189.4,168.8 189.4,178.1 C189.4,189.4 194.3,192.7 242.6,199 C290.3,205.3 313.1,214.2 313.1,247.9 C313.1,281.7 284.9,301.1 235.6,301.1 Z" id="Shape"></path>
        </g>
    </g>
</svg>