<?xml version="1.0" encoding="UTF-8" ?>
<svg preserveAspectRatio="xMidYMid meet" width="470px" height="419px" viewBox="0 0 470 419" version="1.1" xmlns="http://www.w3.org/2000/svg" xmlns:xlink="http://www.w3.org/1999/xlink">
    <g stroke="none" stroke-width="1" fill="none" fill-rule="evenodd">
        <g id="react-01" fill-rule="nonzero" fill="url(#tech-gradient) #000">
            <path d="M234.6,53.1 C237.6,50.4 240.4,47.6 243.4,45 C250,39.1 256.8,33.4 264.1,28.2 C271.7,22.7 279.7,17.5 288.1,13.1 C299.8,7.1 311.6,2.4 324.8,1.2 C334.1,0.3 343,1.6 351.2,6.3 C356.5,9.3 360.8,13.5 364.3,18.6 C371.1,28.2 374.3,39.2 376.2,50.7 C378.7,66.8 378.3,83 376.5,99.2 C375.4,109.5 373.4,119.8 371.1,129.9 C371,130.3 370.9,130.9 370.8,131.3 C374.2,132.4 377.4,133.3 380.7,134.4 C398.8,140.2 416.3,147.6 432.3,157.8 C440.5,163 448.2,169 454.7,176.3 C460.3,182.6 465.1,189.6 467.6,197.8 C470.6,207.7 469.4,217.4 465,226.7 C460.8,235.6 454.4,242.8 447.3,249.3 C439,256.6 429.9,262.8 420.2,268 C404.9,276.4 388.7,282.6 372,287.7 L371,288 C371.8,291.9 372.7,295.6 373.6,299.3 C377.6,318.7 380.1,338.4 378.7,358.2 C377.9,369.6 375.8,381 370.9,391.5 C367.6,398.6 363.3,404.8 357.1,409.5 C351,414.3 343.8,416.5 336,417.3 C326.9,418.1 318.4,416.6 309.8,414.1 C296.6,410.2 284.6,403.9 273.1,396.5 C260.2,388.3 248.5,378.7 237.4,368.3 C237.2,368 236.8,367.8 236.5,367.4 C234.4,369.2 232.3,371.3 230.2,373.2 C223.6,379.1 216.9,384.7 209.7,390 C201.5,395.9 193,401.5 183.9,406 C171.8,412.1 159,416.8 145.5,417.9 C136.3,418.6 127.3,417.4 118.9,412.8 C111.6,408.6 106.4,402.6 102.3,395.5 C97.8,387.6 95.3,378.9 93.9,370.1 C91.4,355.3 91.6,340.4 93.2,325.5 C94.5,313.8 96.6,302.3 99.3,290.7 C99.4,290.3 99.5,289.7 99.6,289.3 C98.5,289 97.4,288.5 96.1,288.2 C78.4,283 61.3,276 45.3,266.7 C35,260.7 25.7,253.8 17.5,245.2 C12.5,240.1 8.1,234.2 5.1,227.6 C-0.8,214.9 -0.5,202.4 6,190 C10.3,181.9 16.3,175 23.2,169.1 C31.7,161.7 41.3,155.6 51.3,150.4 C66.1,142.7 81.7,136.8 97.7,132 C97.9,132 98,131.8 98.2,131.8 C97.7,129.3 97,127 96.4,124.5 C92.8,107.9 90.5,90.8 90.6,73.6 C90.7,60.9 92,48.3 96.1,36.1 C99.1,27.5 103.3,19.4 110.1,12.7 C117.8,5.2 127.1,1.7 137.7,1.5 C146.7,1.2 155.4,3 163.8,5.8 C178.3,10.6 191.2,18.2 203.5,27 C214.4,34.7 224.5,43.3 233.9,52.4 C234.1,52.8 234.4,53 234.6,53.1 L234.6,53.1 Z M169.2,247.2 C169.3,247.1 169.4,247.2 169.5,247 C172,251.3 174.5,255.9 177.2,260.2 C182,267.9 187,275.5 192,283.2 C192.6,284 193.3,284.1 194.1,284.2 C221.6,285.8 249.2,285.7 276.6,283.7 C277.6,283.5 278.3,283.2 278.8,282.4 C293.8,259.5 307.5,235.7 319.6,210.9 C320.1,210 320.2,209.3 319.5,208.2 C318.8,207.1 318.3,205.9 317.7,204.7 C313.3,196.3 309.2,188 304.6,179.8 C296.3,164.9 287.3,150.4 277.7,136.5 C277.4,136.2 276.7,135.8 276.2,135.8 C248.5,133.9 220.8,133.9 193.1,136 C192.2,136 191.6,136.4 191.2,137.1 C181.8,151.1 172.9,165.5 164.9,180.2 C159.8,189.9 154.8,199.6 150,209.3 C149.8,209.7 149.7,210.5 149.9,211 C151,213.5 152.3,216 153.5,218.3 C158.7,228.1 163.9,237.7 169.2,247.2 L169.2,247.2 Z M220.5,67.5 C220.3,67.2 220.1,66.9 219.7,66.7 C211,58.3 201.7,50.4 191.9,43.3 C181.1,35.8 170,29.1 157.4,25 C151.2,22.9 145,21.6 138.5,21.6 C130.7,21.7 124.7,25 120.4,31.6 C118.2,35.2 116.4,38.8 115.1,42.9 C111.8,53.2 110.6,63.9 110.5,74.6 C110.3,91.6 112.8,108.4 116.9,125 L117.5,127.1 C117.9,127 118,127 118.3,127 C138.5,122.4 159.2,119.2 179.9,117.2 C180.7,117.1 181,116.8 181.5,116.3 C190.5,103.6 199.9,91.2 210.2,79.5 C213.5,75.5 217,71.5 220.5,67.5 Z M103.6,151.6 C103.4,151.6 103.3,151.6 103.1,151.7 C88.4,156 74.1,161.3 60.7,168.4 C51.8,173 43.5,178.4 36,184.9 C31.1,189.1 26.7,194 23.6,199.8 C20.4,205.7 19.7,211.9 22.4,218.3 C24.6,223.6 27.9,227.9 31.8,232.1 C40.5,241.2 51,248 62,254 C74.9,260.8 88.5,266 102.4,270.2 C103,270.4 103.8,270.6 104.4,270.8 L104.7,270.3 C110.7,250.5 118.2,231.4 126.7,212.7 C127.3,211.4 127.2,210.5 126.7,209.3 C125.7,207.3 124.7,205.2 123.8,203.1 C121.1,196.8 118.3,190.6 115.6,184.3 C112.4,176.4 109.5,168.2 106.5,160.2 C105.3,157.1 104.5,154.3 103.6,151.6 L103.6,151.6 Z M118.6,294.5 C118.5,294.9 118.5,295.3 118.5,295.6 C115.8,307 113.7,318.6 112.6,330.3 C111.5,341.4 111.5,352.5 112.9,363.6 C114,371.4 115.8,379.1 119.6,386.1 C122.1,390.8 125.5,394.7 130.7,396.6 C135.7,398.3 140.7,398.5 145.8,397.8 C155.7,396.6 164.7,392.9 173.7,388.7 C182.4,384.5 190.4,379.2 198.1,373.5 C206.2,367.5 213.8,361.1 221,354.1 C221.6,353.6 221.6,353.2 221.1,352.6 C216.3,347.4 211.6,342.2 207.1,336.7 C202.7,331.5 198.7,326.3 194.5,320.9 C190.4,315.5 186.5,310 182.5,304.7 C181.9,303.9 181.1,303.4 180,303.3 C163.9,302 147.9,300.1 131.9,297.2 C127.6,296.3 123.2,295.6 118.6,294.5 L118.6,294.5 Z M351.3,126.3 C351.4,125.9 351.5,125.3 351.6,124.9 C352.7,119.6 353.9,114.3 354.8,108.9 C357.4,93.9 358.8,78.8 357.6,63.5 C356.9,53.4 355.1,43.5 350.5,34.3 C348,29.3 344.7,24.9 339.2,22.5 C335,20.6 330.6,20.6 326.2,21 C315.9,22 306.6,25.8 297.4,30.5 C288.2,35.2 279.9,40.8 271.6,47.1 C263.7,53.1 256.4,59.6 249.1,66.4 C248.5,66.9 248.6,67.3 249.1,67.9 C252.6,71.8 256.1,75.5 259.4,79.5 C264.9,86.3 270.4,92.9 275.9,99.8 C279.8,104.7 283.5,109.8 287.2,114.9 C287.9,115.8 288.6,116.2 289.8,116.4 C306.9,118 324,120.4 340.9,123.9 C344.4,124.9 347.8,125.5 351.3,126.3 L351.3,126.3 Z M365.4,150.7 C365.1,151.4 365,151.7 364.9,152.2 C361.9,160.9 359.1,169.7 355.8,178.3 C351.8,188.6 347.3,198.6 343,208.7 C342.8,209.1 342.7,210 342.9,210.2 C346.2,218 349.8,225.6 352.8,233.5 C356.3,241.9 359.1,250.6 362.3,259 C363.4,262.2 364.4,265.4 365.4,268.7 C365.7,268.7 365.9,268.6 366.4,268.5 C379.7,264.4 392.7,259.6 405,253.3 C414.9,248.3 424.2,242.6 432.5,235.6 C437.7,231.2 442.5,226.4 445.8,220.1 C448.6,215.2 450.1,210 448.6,204.5 C447.1,198.9 444,194.3 440.2,190.2 C433.8,182.9 425.9,177.2 417.5,172.3 C404.2,164.4 390.1,158.7 375.4,153.7 C372.1,152.7 368.7,151.6 365.4,150.7 L365.4,150.7 Z M249.9,353.2 C250.1,353.5 250.4,353.6 250.7,353.8 C261.8,364.3 273.8,373.8 286.9,381.8 C295.7,387.2 304.9,391.9 314.9,394.8 C321.2,396.8 327.7,397.9 334.4,397.3 C338.7,396.8 342.5,395.6 345.7,392.6 C350,388.8 352.3,383.8 354.2,378.5 C357.8,368.1 358.7,357.5 358.8,346.8 C358.7,330.2 356.3,313.9 352.6,297.8 C352.3,296.2 351.8,294.7 351.5,293.1 C351.2,293.1 350.8,293.1 350.5,293.3 C330.8,297.7 310.9,300.7 290.6,302.6 C289.6,302.8 289.1,303 288.7,303.8 C280.1,316.4 271.1,328.5 261.4,340.2 C257.5,344.6 253.7,348.7 249.9,353.2 L249.9,353.2 Z M235.8,338.9 C240.4,334.7 262,307.8 263.4,304.6 C244.9,305.6 226.3,305.4 207.6,304.9 C216.5,316.7 225.7,328.2 235.8,338.9 Z M138.6,187.2 C147.2,170.5 156.3,154.5 166.3,138.8 C151.6,140.6 137.3,143.1 122.9,146.5 C127.4,160.3 132.8,173.8 138.6,187.2 Z M124,275.2 C138.1,278.2 152.4,280.4 166.7,282 C157.4,266.1 148.3,250.2 139,234.3 C133.3,247.6 128.4,261.1 124,275.2 L124,275.2 Z M331,185.7 C333.3,181.7 344.7,150.9 345.7,145.6 C331.7,142.5 317.6,140 303.5,138.3 C312.7,154.3 321.9,170.1 331,185.7 L331,185.7 Z M304.1,281.1 C318.1,279.3 332.1,277.1 346.1,273.9 C341.7,260.1 336.8,246.7 331.3,233.7 C322,249.6 313,265.4 304.1,281.1 Z M234.7,81.9 C224.9,92.5 215.9,103.6 207.2,115.1 C225.6,114.3 243.8,114.2 262.5,114.9 C253.5,103.3 244.4,92.5 234.7,81.9 L234.7,81.9 Z" id="Shape"></path>
            <path d="M256.4,245.9 C236.3,257.5 210.8,250.6 199,230.5 C187.5,210.6 194.4,184.9 214.2,173.4 C234.3,161.8 259.8,168.7 271.5,188.7 C283.1,208.8 276.2,234.4 256.4,245.9 Z" id="Shape"></path>
        </g>
    </g>
</svg>