<?xml version="1.0" encoding="UTF-8" ?>
<svg preserveAspectRatio="xMidYMid meet" width="442px" height="421px" viewBox="0 0 442 421" version="1.1" xmlns="http://www.w3.org/2000/svg" xmlns:xlink="http://www.w3.org/1999/xlink">
    <defs></defs>
    <g stroke="none" stroke-width="1" fill="none" fill-rule="evenodd">
        <g id="redux-01" fill-rule="nonzero" fill="url(#tech-gradient) #000">
            <path d="M334,138.8 C333.3,138.6 332.8,138.5 332.4,138.3 C324.1,135.5 315.7,132.8 307.2,130.7 C306.5,130.5 306.1,130.4 306,129.5 C305.6,123.8 304.6,118.3 303.2,112.8 C299.5,97.7 293.9,83.3 285.9,70 C280.6,61.1 274.4,53.1 266.7,46.1 C258.7,38.8 249.7,33.4 239.2,30.3 C235,29 230.6,28 226,27.8 C223.4,27.7 220.8,27.4 218.2,27.6 C214.3,27.9 210.3,28.3 206.4,29 C197.7,30.5 189.4,33 181.3,36.5 C172.8,40.2 165,44.8 157.9,50.8 C153.2,54.8 149.3,59.5 145.7,64.5 C133.9,80.6 125.9,98.3 121.2,117.6 C119.7,123.8 118.5,130.1 117.8,136.4 C117.3,140.9 116.9,145.5 116.6,150.1 C116.3,155.5 116.1,161 116.2,166.4 C116.3,172.1 116.7,177.8 117.1,183.5 C118.1,195.9 120.4,208 123.7,220 C127.5,233.8 132.8,247.1 139.4,259.8 C141.3,263.5 143.4,267 145.3,270.7 C145.8,271.6 146.4,271.8 147.3,271.6 C152.5,270.9 157.6,271.4 162.5,273.4 C173.2,277.8 180,285.7 182,297.1 C185.2,315.5 172.6,330.3 157.3,333.3 C139.8,336.6 124,325.4 120.6,308.9 C119.1,301.8 120.1,295 123.3,288.5 C123.5,288.2 123.6,287.8 123.8,287.5 C124.3,286.8 124.2,286.2 123.8,285.4 C121.2,280.7 118.5,276 116.1,271.2 C107.1,253.6 100.2,235.2 95.5,216 C93.8,209 92.4,202 91.4,194.9 C90.7,189.5 90.2,184 89.7,178.6 C89,170.8 89,162.9 89.3,155 C89.5,149.8 90,144.5 90.5,139.3 C91.7,127.4 94.2,115.7 97.5,104.2 C100.7,93.4 104.4,82.7 109.6,72.6 C117.5,57 127.8,43.3 140.8,31.6 C154.9,18.9 171,9.7 189.4,4.7 C194.2,3.4 199.1,2.5 204,1.8 C210.4,0.9 216.9,0.7 223.4,1.1 C235.3,1.8 246.7,4.8 257.5,9.8 C273.7,17.2 287.2,28.1 298.5,41.8 C309.1,54.7 317,69.2 322.7,84.9 C326.7,95.7 329.5,106.8 331.4,118.1 C332.3,123.7 333.1,129.3 333.6,134.9 C333.8,136.1 333.9,137.3 334,138.8 Z" id="Shape"></path>
            <path d="M250.5,402.9 C254.4,399.9 258.1,397.1 261.7,394.2 C266,390.8 270.2,387.2 274.4,383.7 C275.2,383 275.8,382.9 276.8,383.3 C286.3,387.4 296.1,390.3 306.2,392.3 C310.2,393.1 314.3,393.5 318.3,394 C322.4,394.6 326.5,394.7 330.7,394.7 C342.7,394.6 354.5,392.8 365.7,388.2 C380.6,382.1 392.5,372.3 401.6,359.1 C406.5,352 410.6,344.4 413,336 C414.3,331.6 415.2,327.1 415.6,322.5 C416,318.3 416.1,314.1 415.8,309.8 C415.2,301.3 413.3,293 410.3,285 C402,262.6 388.8,243.4 371.2,227.2 C360.2,217.1 348,208.7 335.1,201.4 C321.9,193.9 308.1,187.9 293.7,183.4 C285.8,180.9 277.7,178.9 269.6,177.4 C265.1,176.6 260.7,176 256.2,175.4 C252.2,174.9 248.3,174.6 244.3,174.3 C239.8,174 235.2,173.8 230.7,173.8 C227.6,173.8 224.4,174 221.3,174.1 C220.1,174.1 219.5,174.6 219,175.7 C214.3,185 206.9,190.9 196.6,192.9 C179.2,196.2 163.2,184.6 160.1,168 C156.9,151 167.8,135 184.4,131.5 C197.5,128.8 210.5,134.5 217.5,146.1 C217.5,146.2 217.6,146.2 217.6,146.3 C218,147.5 218.9,147.7 220,147.7 C224.4,147.6 228.7,147.6 233.1,147.7 C238,147.8 242.9,147.9 247.8,148.3 C252.7,148.7 257.6,149.3 262.5,149.8 C273.7,151.1 284.6,153.4 295.5,156.3 C325,164.3 351.9,177.5 375.9,196.6 C386.5,205 396.2,214.5 405.1,224.7 C411.9,232.5 418,240.8 423.2,249.8 C431.1,263.5 436.7,278.1 439.7,293.6 C440.5,298.1 441.1,302.6 441.5,307.1 C441.9,312.5 442,318 441.7,323.4 C440.4,345 433,364 418.2,380 C409.1,389.7 398.8,397.7 387.1,404.1 C376.5,409.9 365.3,414 353.5,416.7 C349.1,417.7 344.6,418.5 340.1,419 C332.7,419.9 325.2,420.4 317.8,420 C314.5,419.8 311.2,419.5 307.9,419.2 C302.3,418.8 296.8,417.8 291.3,416.7 C283.7,415.1 276.2,413 268.9,410.4 C263.2,408.4 257.6,406.1 252.1,403.5 C251.5,403.3 251.1,403.1 250.5,402.9 Z" id="Shape"></path>
            <path d="M65.3,197.8 C65.8,200 66.3,202 66.7,204 C68.3,211 70.1,217.9 72.3,224.7 C72.7,226.1 73,225.8 71.6,226.9 C59.2,236.7 48.7,248.3 40.1,261.6 C34,271.2 29.3,281.5 26.6,292.6 C25.5,297.1 24.7,301.6 24.6,306.2 C24.5,309.2 24.3,312.1 24.4,315.1 C24.9,325 27.2,334.5 31.2,343.6 C34.6,351.4 38.9,358.6 44.4,365.1 C51.7,373.6 60.6,380 70.8,384.4 C77.7,387.4 85,389.5 92.5,390.7 C96.4,391.3 100.3,391.9 104.3,392 C108.5,392.2 112.7,392.5 117,392.5 C121.1,392.5 125.2,392.1 129.2,391.8 C139.3,391 149.1,388.9 158.7,386 C169.7,382.7 180.2,378.2 190.3,372.8 C203.1,366 215.5,358.4 227.1,349.5 C246.5,334.7 262.6,317.1 274.9,296.1 C276.7,293 278.4,289.8 280.1,286.6 C280.7,285.5 280.7,285.5 279.8,284.5 C275.3,279.6 272.5,273.9 271.8,267.3 C270.7,258 273.2,249.6 279.4,242.6 C284.3,237 290.6,233.6 297.9,232.4 C315,229.8 330,241.1 333.4,256.8 C336.9,273.4 326.6,289.9 309.9,293.9 C309.2,294.1 308.5,294.2 307.8,294.3 C306.8,294.4 306.2,294.8 305.7,295.7 C302.5,302.3 298.9,308.7 295.1,314.9 C275.9,345.9 250.7,370.8 219.2,389.1 C204.5,397.7 188.9,404.4 172.6,409.5 C163.3,412.4 153.9,414.8 144.3,416.5 C140,417.3 135.7,417.8 131.4,418.4 C125.2,419.2 118.9,419.3 112.6,419.2 C109.6,419.1 106.6,419.1 103.6,418.8 C83,417 63.6,411.5 46,400.6 C34.3,393.4 24.4,384.2 16.9,372.6 C11.2,363.7 7.2,354 4.4,343.8 C2.8,338 1.8,332.1 1.1,326.1 C0.4,320.2 0.2,314.3 0.4,308.3 C1,293.4 4.1,279.1 9.7,265.3 C15.8,250.3 24.5,236.9 35.3,224.8 C44,215 53.7,206.4 64.1,198.7 C64.4,198.4 64.8,198.1 65.3,197.8 Z" id="Shape"></path>
        </g>
    </g>
</svg>