<?xml version="1.0" encoding="UTF-8"?>
<svg width="75px" height="28px" viewBox="0 0 75 28" version="1.1" xmlns="http://www.w3.org/2000/svg" xmlns:xlink="http://www.w3.org/1999/xlink">
    <g stroke="none" stroke-width="1" fill="none" fill-rule="evenodd">
        <polygon id="Fill-1" points="-2.196 29.598 77.149 29.598 77.149 -1.593 -2.196 -1.593"></polygon>
        <path d="M72.55,13.72 C70.855,14.066 69.346,14.739 67.817,16.037 C66.469,17.091 66.006,19.393 67.6,20.094 C68.525,20.532 69.511,20.568 70.478,20.862 C71.5,21.181 71.764,22.117 70.841,22.765 C70.121,23.245 69.105,23.597 68.07,23.591 C67.483,23.607 67.056,24.265 66.793,25.265 C66.465,26.629 66.892,26.765 67.511,26.806 C69.541,26.688 71.953,25.286 73.329,23.663 C74.717,22.182 74.693,19.491 72.913,18.777 C72.144,18.478 71.236,18.273 70.469,18.094 C69.232,17.878 69.132,17.507 70.236,17.032 C70.758,16.831 71.486,16.583 72.032,16.452 C72.71,16.299 73.043,16.022 73.268,15.129 C73.735,13.81 73.392,13.477 72.55,13.72 Z M20.962,1.241 C12.725,3.791 3.535,12.774 1.007,20.095 C-0.328,25.576 1.752,27.435 6.854,26.595 C12.267,26.088 16.625,24.269 24.457,25.53 C27.4,26.184 26.523,24.512 25.184,22.136 C24.446,20.934 21.973,20.675 18.492,21.067 C14.513,21.772 10.721,22.752 6.938,23.449 C3.516,24.178 2.969,21.82 5.284,17.968 C8.962,12.238 15.269,7.192 19.47,6.766 C20.636,6.71 21.569,6.231 22.331,4.394 C23.481,1.783 23.231,0.679 20.962,1.241 Z M26.428,22.092 C26.146,17.368 26.548,11.802 29.577,4.129 C29.934,3.334 30.459,3.204 31.151,3.739 C31.613,4.197 32.02,4.704 32.256,5.263 C32.732,6.268 32.57,7.223 32.202,8.153 C30.537,12.983 29.381,18.264 29.171,21.533 C29.202,23.233 29.801,24.252 31.452,22.557 C34.51,18.969 35.356,15.856 40.323,15.593 C41.711,15.614 42.148,15.724 41.907,17.076 C41.671,18.394 41.402,20.167 41.377,21.547 C41.198,23.382 42.021,24.25 43.335,22.98 C44.578,21.434 45.392,18.627 45.962,15.879 C46.088,14.848 46.708,14.833 47.25,15.355 C48.088,15.89 48.918,16.311 49.747,16.44 C50.471,16.73 50.773,17.383 50.606,18.584 C50.518,19.808 50.527,21.192 50.698,22.409 C51.153,23.735 52.332,23.576 53.31,21.893 C54.889,19.35 56.23,13.99 57.421,5.625 C57.566,4.512 57.956,4.245 58.59,4.822 C59.007,5.189 59.395,5.721 59.753,6.414 C60.328,7.109 60.202,7.719 60.084,8.38 C59.658,12.057 59.116,15.663 58.493,19.264 C60.531,16.233 62.555,14.172 64.846,12.415 C65.69,11.971 65.999,12.391 65.771,13.43 C65.598,14.186 65.431,14.883 65.258,15.639 C65.073,16.435 64.31,17.125 63.826,17.365 C63.089,17.861 62.462,18.389 62.076,18.856 C62.566,20.46 63.741,22.122 65.446,22.805 C66.293,23.036 66.529,23.523 66.154,24.268 C66.002,24.789 65.781,25.081 65.498,25.605 C64.935,26.28 64.044,26.123 63.092,25.674 C61.773,24.995 60.724,23.543 59.762,21.317 C59.147,22.013 58.85,22.388 58.374,23.24 C58.128,24.091 57.927,24.655 57.681,25.507 C57.418,26.129 57.065,26.237 56.235,26.211 C55.407,26.201 54.965,25.917 55.13,25.004 C55.257,23.897 55.476,22.677 55.603,21.569 C54.071,24.828 52.237,26.554 50.24,26.179 C48.481,25.826 47.595,23.581 47.761,19.051 L47.556,18.998 C45.581,26.701 40.466,28.077 39.187,23.748 C36.622,27.142 33.689,26.792 32.803,23.911 C30.244,26.859 27.06,27.552 26.428,22.092 Z M39.394,18.155 C39,21.319 37.329,23.86 36.257,23.298 C35.239,22.764 35.317,21.058 36.642,19.532 C37.534,18.503 38.647,18.105 39.394,18.155 Z" id="Fill-2" stroke="#333333"></path>
    </g>
</svg>