<?xml version="1.0" encoding="UTF-8"?>
<svg width="284px" height="53px" viewBox="0 0 284 53" version="1.1" xmlns="http://www.w3.org/2000/svg" xmlns:xlink="http://www.w3.org/1999/xlink">
    <g stroke="none" stroke-width="1" fill="none" fill-rule="evenodd">
        <path d="M80.254,41.521 C78.949,41.965 77.588,42.365 76.227,42.642 C74.63,42.967 72.977,43.144 71.297,43.144 C65.868,43.144 61.618,41.338 60.922,37.035 L84.083,37.035 C84.255,36.209 84.559,34.209 84.559,32.105 C84.559,22.327 79.694,13.351 67.282,13.351 C55.224,13.351 48.805,22.806 48.805,33.4 C48.805,45.613 57.344,52.599 69.265,52.599 C72.301,52.599 74.52,52.327 76.352,51.955 C78.254,51.567 80.349,50.941 82.121,50.148 L80.254,41.521 Z M67.071,22.122 C71.661,22.122 73.048,26.316 73.048,28.619 C73.04,28.619 60.682,28.619 60.675,28.619 C60.675,25.357 62.942,22.122 67.071,22.122 Z" id="Fill-1" fill="#333333"></path>
        <path d="M260.061,41.521 C258.756,41.965 257.395,42.365 256.034,42.642 C254.436,42.967 252.784,43.144 251.104,43.144 C245.676,43.144 241.426,41.338 240.731,37.035 L263.891,37.035 C264.063,36.209 264.366,34.209 264.366,32.105 C264.366,22.327 259.5,13.351 247.09,13.351 C235.032,13.351 228.614,22.806 228.614,33.4 C228.614,45.613 237.151,52.599 249.073,52.599 C252.108,52.599 254.327,52.327 256.161,51.955 C258.061,51.567 260.157,50.941 261.928,50.148 L260.061,41.521 Z M246.879,22.122 C251.469,22.122 252.856,26.316 252.856,28.619 C252.848,28.619 240.491,28.619 240.483,28.619 C240.483,25.357 242.75,22.122 246.879,22.122 Z" id="Fill-2" fill="#333333"></path>
        <polygon id="Fill-3" fill="#333333" points="90.232 51.795 102.792 51.795 102.792 0.9 90.232 0.9"></polygon>
        <path d="M127.846,52.599 C137.647,52.599 147.566,46.427 147.566,32.644 C147.566,24.437 142.704,13.413 128.461,13.413 C113.799,13.413 108.451,24.095 108.451,33.269 C108.451,44.781 116.445,52.599 127.846,52.599 Z M128.015,43.284 C123.935,43.284 121.255,39.251 121.255,33.013 C121.255,28.045 123.051,22.74 128.058,22.74 C132.889,22.74 134.604,28.238 134.604,32.959 C134.604,39.225 131.998,43.284 128.015,43.284 Z" id="Fill-4" fill="#333333"></path>
        <polygon id="Fill-5" fill="#333333" points="153.027 51.795 165.585 51.795 165.585 14.239 153.027 14.239"></polygon>
        <polygon id="Fill-6" fill="#333333" points="153.027 10.668 165.585 10.668 165.585 0.916 153.027 0.916"></polygon>
        <path d="M175.533,4.02 L175.533,14.234 L170.707,14.234 L170.707,23.541 L175.533,23.541 L175.533,38.926 C175.533,47.388 179.402,52.566 188.234,52.566 C189.89,52.566 191.76,52.396 193.483,52.138 C195.077,51.899 196.491,51.609 197.11,51.407 C197.12,51.397 197.018,41.597 197.018,41.561 C196.614,41.701 193.766,42.179 192.725,42.179 C191.715,42.179 190.214,42.051 189.142,40.954 C188.376,40.172 187.828,38.897 187.828,36.826 L187.828,23.541 L195.946,23.541 L195.946,14.234 C195.946,14.234 188.9,14.234 187.828,14.234 C187.828,13.132 187.828,2.634 187.828,2.634 L175.533,4.02" id="Fill-7" fill="#333333"></path>
        <path d="M204.59,4.02 L204.59,14.234 L199.764,14.234 L199.764,23.541 L204.59,23.541 L204.59,38.926 C204.59,47.388 208.459,52.566 217.292,52.566 C218.948,52.566 220.817,52.396 222.538,52.138 C224.133,51.899 225.547,51.609 226.167,51.407 C226.176,51.397 226.075,41.597 226.075,41.561 C225.67,41.701 222.825,42.179 221.782,42.179 C220.772,42.179 219.272,42.051 218.2,40.954 C217.434,40.172 216.887,38.897 216.887,36.826 L216.887,23.541 L225.002,23.541 L225.002,14.234 C225.002,14.234 217.958,14.234 216.887,14.234 C216.887,13.132 216.887,2.634 216.887,2.634 L204.59,4.02" id="Fill-8" fill="#333333"></path>
        <path d="M269.774,45.663 C269.774,41.827 272.885,38.718 276.721,38.718 C280.557,38.718 283.67,41.827 283.67,45.663 C283.67,49.502 280.557,52.611 276.721,52.611 C272.885,52.611 269.774,49.502 269.774,45.663" id="Fill-9" fill="#333333"></path>
        <path d="M18.373,41.711 C17.852,41.754 17.067,41.773 16.564,41.773 L12.581,41.773 C12.587,41.769 12.581,10.495 12.581,10.495 C13.959,10.372 15.709,10.29 16.878,10.29 C24.18,10.29 31.96,15.028 31.96,25.969 C31.96,37.385 24.648,41.193 18.373,41.711 Z M0.205,51.85 L14.418,51.85 C15.38,51.85 16.544,51.827 17.456,51.78 C36.908,50.775 45.002,39.262 45.002,25.969 C45.002,9.364 33.802,0.063 14.474,0.063 C9.513,0.063 5.103,0.232 0.205,0.645 L0.205,51.85 Z" id="Fill-10" fill="#333333"></path>
    </g>
</svg>