<?xml version="1.0" encoding="UTF-8"?>
<svg width="601px" height="309px" viewBox="0 0 601 309" version="1.1" xmlns="http://www.w3.org/2000/svg" xmlns:xlink="http://www.w3.org/1999/xlink">
    <!-- Generator: Sketch 52.5 (67469) - http://www.bohemiancoding.com/sketch -->
    <title>financial-services-compensation-scheme-fscs-logo-vector</title>
    <desc>Created with Sketch.</desc>
    <g id="Page-1" stroke="none" stroke-width="1" fill="none" fill-rule="evenodd">
        <g id="financial-services-compensation-scheme-fscs-logo-vector" fill="#333333">
            <path d="M587.9,103.1 C579.8,95.3 570.9,91.4 561.1,91.4 C554.6,91.4 548.9,93.1 544,96.4 C539.1,99.7 536.5,104.1 536.2,109.6 C536,113.6 537.1,117 539.6,119.8 C542.1,122.7 546.6,125.9 553,129.4 L570.7,139.3 C576.2,142.3 580.1,146.2 582.7,151 C585.2,155.8 586.3,161 586,166.6 C585.2,181.5 579.1,193.3 567.8,201.9 C556.5,210.6 542.6,214.9 525.9,214.9 C511.2,214.9 498.3,211.3 487.1,204 L501.3,180.6 C504.5,184 509.2,187.1 515.3,189.9 C521.5,192.7 526.8,194.1 531.3,194.1 C539,194.1 545.5,192 550.8,187.9 C556.1,183.7 558.9,178.1 559.3,171 C559.5,167.4 558.4,164.1 555.9,161.3 C553.4,158.4 549,155.1 542.7,151.4 L524.9,141.3 C519.4,138.1 515.4,134 512.9,129.2 C510.4,124.3 509.2,119.1 509.6,113.5 C510.3,100.6 515.9,90.2 526.4,82.4 C536.9,74.6 549.5,70.6 564.1,70.6 C574.2,70.6 586.3,73.8 600.2,80.2 L587.9,103.1 M478.8,98.6 C472.8,93.8 464.6,91.4 454,91.4 C438,91.4 424.7,97.7 414.2,110.3 C403.6,122.9 397.8,138.4 396.8,156.8 C396.2,168.1 398.8,177.1 404.9,183.8 C410.9,190.5 418,193.9 426.2,193.9 C438.8,193.9 451.1,190 463.1,182.2 L458.9,207.5 C447.3,212.5 434.7,215 421.2,215 C404,215 391.1,210.1 382.5,200.3 C373.9,190.5 370,177.4 370.9,161.1 C372.4,134.6 380.9,112.9 396.4,96 C411.9,79.1 430.9,70.7 453.5,70.7 C466.9,70.7 477.2,73 484.6,77.6 L478.8,98.6 M346.3,103.1 C338.2,95.3 329.3,91.4 319.5,91.4 C313,91.4 307.3,93.1 302.4,96.4 C297.5,99.7 294.9,104.1 294.6,109.6 C294.4,113.6 295.5,117 298.1,119.8 C300.6,122.7 305.1,125.9 311.5,129.4 L329.2,139.3 C334.7,142.3 338.6,146.2 341.2,151 C343.7,155.8 344.8,161 344.5,166.6 C343.7,181.5 337.6,193.3 326.3,201.9 C315,210.6 301,214.9 284.4,214.9 C269.7,214.9 256.8,211.3 245.6,204 L259.8,180.6 C263,184 267.7,187.1 273.9,189.9 C280.1,192.7 285.4,194.1 290,194.1 C297.7,194.1 304.2,192 309.5,187.9 C314.8,183.7 317.6,178.1 318,171 C318.2,167.4 317,164.1 314.6,161.3 C312.1,158.4 307.7,155.1 301.4,151.4 L283.6,141.3 C278.1,138.1 274.1,134 271.6,129.2 C269.1,124.3 267.9,119.1 268.3,113.5 C269,100.6 274.6,90.2 285.1,82.4 C295.6,74.6 308.2,70.6 322.8,70.6 C332.9,70.6 345,73.8 358.9,80.2 L346.3,103.1 M283.4,40 C273.4,35.6 265.3,33.4 259.2,33.4 C232.8,33.4 210.1,54.8 192.3,97.5 L246.7,97.5 L231.9,126.4 L181.5,126.4 L150.4,202 C121.7,266.6 81.5,298.9 29.8,298.9 C17.5,298.9 7.6,296.7 0.2,292.3 L16.2,259.5 C26.2,263.9 34.3,266.1 40.4,266.1 C66.8,266.1 88.9,244.7 106.7,202 L116.9,177.3 L3.7,177.3 L18.6,148.5 L127.8,148.5 L137.1,126.5 L42.1,126.6 L57,97.6 L149.2,97.6 C177.9,33 218.2,0.6 269.9,0.6 C282.2,0.6 296.6,4.5 304,8.9 L283.4,40" id="Shape" fill-rule="nonzero"></path>
            <path d="M164.9,242.3 L155.5,242.3 L155.5,248.9 L163.3,248.9 C163.6,248.9 163.8,249.2 163.8,249.4 L163.8,253.2 C163.8,253.5 163.6,253.7 163.3,253.7 L155.5,253.7 L155.5,264.6 C155.5,264.9 155.3,265.1 155,265.1 L149.4,265.1 C149.1,265.1 148.9,264.9 148.9,264.6 L148.9,238 C148.9,237.7 149.2,237.5 149.4,237.5 L164.9,237.5 C165.2,237.5 165.4,237.8 165.4,238 L165.4,241.8 C165.4,242.1 165.2,242.3 164.9,242.3" id="Path"></path>
            <path d="M171.6,241.3 C169.8,241.3 168.1,240.6 168.1,238.5 C168.1,236.4 170,235.8 171.8,235.8 C173.5,235.8 175.2,236.6 175.2,238.6 C175.2,240.6 173.4,241.3 171.6,241.3 M174.2,265.2 L169,265.2 C168.7,265.2 168.5,265 168.5,264.7 L168.5,244.7 C168.5,244.4 168.8,244.2 169,244.2 L174.2,244.2 C174.5,244.2 174.7,244.4 174.7,244.7 L174.7,264.7 C174.7,264.9 174.5,265.2 174.2,265.2" id="Shape" fill-rule="nonzero"></path>
            <path d="M199.4,265.2 L194.2,265.2 C193.9,265.2 193.7,265 193.7,264.7 L193.7,253 C193.7,250.3 192.9,248.3 189.9,248.3 C188,248.3 186.7,249.2 186.7,251.2 L186.7,264.7 C186.7,265 186.5,265.2 186.2,265.2 L181,265.2 C180.7,265.2 180.5,265 180.5,264.7 L180.5,244.7 C180.5,244.4 180.8,244.2 181,244.2 L185.7,244.2 C186.3,244.2 186.2,244.8 186.2,245.2 L186.3,245.2 C186.7,245.2 186.9,245.1 187.2,245 C189,244.1 190.5,243.8 192.5,243.8 C194.6,243.8 196.4,244.2 198,245.6 C199.7,247.2 199.9,249.3 199.9,251.5 L199.9,264.7 C200,264.9 199.7,265.2 199.4,265.2" id="Path"></path>
            <path d="M221.7,265.2 L217,265.2 C216.4,265.2 216.5,264.6 216.5,264.2 L216.3,264.2 C215.8,264.2 215,264.6 214.6,264.8 C213.2,265.4 212.1,265.6 210.6,265.6 C206.6,265.6 203.6,263.8 203.6,259.4 C203.6,257.3 204.3,255.4 206.1,254.2 C208.6,252.5 212,251.8 214.8,250.9 C215.6,250.7 216.1,250.5 216.1,249.6 C216.1,247.9 213.9,247.9 212.7,247.9 C210.2,247.9 208.2,248.4 206.1,249.6 C205.9,249.7 205.7,249.8 205.5,249.8 C205.1,249.8 205,249.4 205,249.1 L205,246.2 C205,245.6 205.2,245.5 205.7,245.2 C207.9,244.1 210.9,243.8 213.3,243.8 C217.6,243.8 222.4,244.8 222.4,250.1 L222.4,264.8 C222.3,264.9 222,265.2 221.7,265.2 Z M216,254.2 C214.8,254.7 213.6,255.2 212.3,255.7 C210.8,256.3 209.7,256.9 209.7,258.7 C209.7,260.6 211,261.4 212.7,261.4 C214.7,261.4 215.9,260.6 215.9,258.5 L215.9,254.2 L216,254.2 Z" id="Shape" fill-rule="nonzero"></path>
            <path d="M246.5,265.2 L241.3,265.2 C241,265.2 240.8,265 240.8,264.7 L240.8,253 C240.8,250.3 240,248.3 237,248.3 C235.1,248.3 233.8,249.2 233.8,251.2 L233.8,264.7 C233.8,265 233.6,265.2 233.3,265.2 L228.1,265.2 C227.8,265.2 227.6,265 227.6,264.7 L227.6,244.7 C227.6,244.4 227.9,244.2 228.1,244.2 L232.8,244.2 C233.4,244.2 233.3,244.8 233.3,245.2 L233.4,245.2 C233.8,245.2 234,245.1 234.3,245 C236.1,244.1 237.6,243.8 239.6,243.8 C241.7,243.8 243.6,244.2 245.1,245.6 C246.8,247.2 247,249.3 247,251.5 L247,264.7 C247.1,264.9 246.8,265.2 246.5,265.2" id="Path"></path>
            <path d="M268.3,264 C266.5,265 263.3,265.5 261.2,265.5 C254.3,265.5 250.6,261.5 250.6,254.7 C250.6,247.4 254.4,243.7 261.7,243.7 C263.7,243.7 265.9,243.9 267.8,244.6 C268.4,244.9 268.7,244.9 268.7,245.6 L268.7,249 C268.7,249.4 268.6,249.6 268.2,249.6 C267.9,249.6 267.5,249.4 267.2,249.2 C266,248.5 264.4,248.2 263,248.2 C259,248.2 257.1,250.6 257.1,254.5 C257.1,258.4 259,261 263.1,261 C264.7,261 266.3,260.5 267.7,259.7 C267.9,259.6 268,259.4 268.2,259.4 C268.6,259.4 268.7,259.7 268.7,260 L268.7,263.1 C268.8,263.6 268.8,263.8 268.3,264" id="Path"></path>
            <path d="M275.4,241.3 C273.6,241.3 271.9,240.6 271.9,238.5 C271.9,236.4 273.8,235.8 275.6,235.8 C277.3,235.8 279,236.6 279,238.6 C279,240.6 277.2,241.3 275.4,241.3 M278.1,265.2 L272.9,265.2 C272.6,265.2 272.4,265 272.4,264.7 L272.4,244.7 C272.4,244.4 272.7,244.2 272.9,244.2 L278.1,244.2 C278.4,244.2 278.6,244.4 278.6,244.7 L278.6,264.7 C278.6,264.9 278.3,265.2 278.1,265.2" id="Shape" fill-rule="nonzero"></path>
            <path d="M300.8,265.2 L296,265.2 C295.4,265.2 295.5,264.6 295.5,264.2 L295.3,264.2 C294.8,264.2 294,264.6 293.6,264.8 C292.2,265.4 291.1,265.6 289.6,265.6 C285.6,265.6 282.6,263.8 282.6,259.4 C282.6,257.3 283.3,255.4 285.1,254.2 C287.6,252.5 291,251.8 293.8,250.9 C294.6,250.7 295.1,250.5 295.1,249.6 C295.1,247.9 292.9,247.9 291.7,247.9 C289.2,247.9 287.2,248.4 285.1,249.6 C284.9,249.7 284.7,249.8 284.5,249.8 C284.1,249.8 284,249.4 284,249.1 L284,246.2 C284,245.6 284.2,245.5 284.7,245.2 C286.9,244.1 289.9,243.8 292.3,243.8 C296.6,243.8 301.4,244.8 301.4,250.1 L301.4,264.8 C301.3,264.9 301.1,265.2 300.8,265.2 Z M295.1,254.2 C293.9,254.7 292.6,255.2 291.4,255.7 C289.9,256.3 288.8,256.9 288.8,258.7 C288.8,260.6 290.1,261.4 291.8,261.4 C293.8,261.4 295,260.6 295,258.5 L295,254.2 L295.1,254.2 Z" id="Shape" fill-rule="nonzero"></path>
            <path d="M312.3,265.2 L307.1,265.2 C306.8,265.2 306.6,265 306.6,264.7 L306.6,236.2 C306.6,235.9 306.8,235.6 307.1,235.6 L312.3,235.6 C312.6,235.6 312.8,235.9 312.8,236.2 L312.8,264.7 C312.8,264.9 312.6,265.2 312.3,265.2" id="Path"></path>
            <path d="M335.4,265.5 C333,265.5 330.5,265.1 328.3,264.2 C327.6,263.9 327.2,263.8 327.2,263 L327.2,259.6 C327.2,259.3 327.4,258.9 327.7,258.9 C328,258.9 328.2,259.1 328.5,259.3 C330.4,260.5 332.9,261 335.1,261 C337,261 339.3,260.5 339.3,258.2 C339.3,256.6 338.2,256 337,255.2 L332,251.8 C329.6,250.1 328.1,247.7 328.1,244.7 C328.1,238.8 333,237.2 338.1,237.2 C339.9,237.2 342.8,237.5 344.4,238.2 C345.1,238.5 345.1,238.6 345.1,239.4 L345.1,242.8 C345.1,243.1 345.1,243.5 344.6,243.5 C344.3,243.5 344,243.3 343.8,243.2 C341.9,242.2 340.2,241.6 338,241.6 C336.3,241.6 334.3,242.1 334.3,244.2 C334.3,245.6 335.5,246.5 336.6,247.1 L340.3,249.3 C343.6,251.3 345.6,253.5 345.6,257.5 C345.5,263.5 340.6,265.5 335.4,265.5" id="Path"></path>
            <path d="M368.4,255.8 L354.8,255.8 L354.8,256.2 C354.8,259.8 357.3,261.3 360.6,261.3 C362.9,261.3 364.7,260.8 366.7,259.6 C366.9,259.5 367,259.4 367.2,259.4 C367.6,259.4 367.7,259.7 367.7,260 L367.7,262.9 C367.7,263.7 367.5,263.9 366.8,264.2 C364.7,265.2 361.5,265.5 359.2,265.5 C356.3,265.5 353.6,265.1 351.5,263 C349.3,260.8 348.6,257.8 348.6,254.8 C348.6,247.9 352,243.7 359.1,243.7 C365.5,243.7 369,247.9 369,254.1 L369,255.3 C368.9,255.6 368.7,255.8 368.4,255.8 Z M362.7,251.7 C362.7,250.5 362.6,249.5 361.7,248.6 C360.9,247.8 359.8,247.5 358.7,247.5 C357.5,247.5 356.4,247.8 355.6,248.7 C354.8,249.6 354.7,250.8 354.7,252 L362.7,252 L362.7,251.7 Z" id="Shape" fill-rule="nonzero"></path>
            <path d="M385.9,249.3 C385.7,249.3 385.6,249.3 385.4,249.2 C384.3,248.9 383.2,248.7 382.1,248.7 C379.7,248.7 378.9,249.4 378.9,251.8 L378.9,264.6 C378.9,264.9 378.6,265.1 378.4,265.1 L373.2,265.1 C372.9,265.1 372.7,264.9 372.7,264.6 L372.7,244.6 C372.7,244.3 373,244.1 373.2,244.1 L377.9,244.1 C378.6,244.1 378.4,244.9 378.4,245.3 L378.5,245.3 C379,245.3 379.3,245.2 379.8,245 C381.5,244.3 382.7,244.1 384.5,244.1 C385.5,244.1 386.2,244.1 386.2,245.3 L386.2,248.4 C386.4,248.8 386.3,249.3 385.9,249.3" id="Path"></path>
            <path d="M408.9,245.2 L402.9,263.5 C402.5,264.7 402.5,265.5 401.2,265.5 L396.6,265.5 C395.4,265.5 395.2,264.7 394.9,263.6 L388.8,245 C388.8,244.8 388.7,244.7 388.7,244.5 C388.7,244 389,244 389.4,244 L394.6,244 C394.8,244 395.1,244.1 395.1,244.4 L399.4,260.3 L403.8,244.4 C403.8,244.2 404.1,244 404.3,244 L408.3,244 C408.5,244 409,244 409,244.3 C409.1,244.6 409,245 408.9,245.2" id="Path"></path>
            <path d="M415.5,241.3 C413.7,241.3 412,240.6 412,238.5 C412,236.4 413.9,235.8 415.6,235.8 C417.3,235.8 419,236.6 419,238.6 C419,240.6 417.3,241.3 415.5,241.3 M418.1,265.2 L412.9,265.2 C412.6,265.2 412.4,265 412.4,264.7 L412.4,244.7 C412.4,244.4 412.7,244.2 412.9,244.2 L418.1,244.2 C418.4,244.2 418.6,244.4 418.6,244.7 L418.6,264.7 C418.6,264.9 418.4,265.2 418.1,265.2" id="Shape" fill-rule="nonzero"></path>
            <path d="M440.3,264 C438.5,265 435.3,265.5 433.2,265.5 C426.3,265.5 422.7,261.5 422.7,254.7 C422.7,247.4 426.5,243.7 433.7,243.7 C435.7,243.7 437.9,243.9 439.8,244.6 C440.4,244.9 440.7,244.9 440.7,245.6 L440.7,249 C440.7,249.4 440.6,249.6 440.2,249.6 C439.9,249.6 439.5,249.4 439.2,249.2 C438,248.5 436.4,248.2 435,248.2 C431,248.2 429.1,250.6 429.1,254.5 C429.1,258.4 431,261 435.1,261 C436.7,261 438.3,260.5 439.7,259.7 C439.9,259.6 440,259.4 440.2,259.4 C440.6,259.4 440.7,259.7 440.7,260 L440.7,263.1 C440.7,263.6 440.7,263.8 440.3,264" id="Path"></path>
            <path d="M462.5,255.8 L448.9,255.8 L448.9,256.2 C448.9,259.8 451.4,261.3 454.7,261.3 C457,261.3 458.8,260.8 460.8,259.6 C461,259.5 461.1,259.4 461.3,259.4 C461.7,259.4 461.8,259.7 461.8,260 L461.8,262.9 C461.8,263.7 461.6,263.9 460.9,264.2 C458.8,265.2 455.6,265.5 453.3,265.5 C450.4,265.5 447.7,265.1 445.6,263 C443.4,260.8 442.7,257.8 442.7,254.8 C442.7,247.9 446.1,243.7 453.2,243.7 C459.6,243.7 463.1,247.9 463.1,254.1 L463.1,255.3 C463,255.6 462.8,255.8 462.5,255.8 Z M456.9,251.7 C456.9,250.5 456.8,249.5 455.9,248.6 C455.1,247.8 454,247.5 452.9,247.5 C451.7,247.5 450.6,247.8 449.8,248.7 C449,249.6 448.9,250.8 448.9,252 L456.9,252 L456.9,251.7 Z" id="Shape" fill-rule="nonzero"></path>
            <path d="M472.6,265.5 C470.8,265.5 468.5,265 466.8,264.3 C466.1,264 465.4,263.8 465.4,263 L465.4,260.5 C465.4,260.2 465.5,259.8 465.9,259.8 C466.2,259.8 466.5,260 466.7,260.1 C468.2,261 470.3,261.3 472.1,261.3 C473.2,261.3 474.5,261.1 474.5,259.7 C474.5,258.7 473.4,258.2 472.6,257.8 L469.8,256.3 C467.3,254.9 465.7,253.5 465.7,250.4 C465.7,245.7 469.3,243.6 473.7,243.6 C475.4,243.6 477.2,243.8 478.8,244.5 C479.5,244.8 479.8,244.9 479.8,245.7 L479.8,248.6 C479.8,248.9 479.7,249.4 479.3,249.4 C479.1,249.4 478.9,249.3 478.7,249.2 C477.2,248.3 475.9,247.8 474.1,247.8 C473,247.8 471.5,248 471.5,249.4 C471.5,250.4 472.3,250.7 473,251.1 C476.5,253 480.2,254.3 480.2,258.9 C480.4,263.3 476.7,265.5 472.6,265.5" id="Path"></path>
            <path d="M169.4,298.6 C167.4,299.8 163.8,300.1 161.5,300.1 C152.3,300.1 147,295.4 147,286.1 C147,276.8 152.5,271.8 161.7,271.8 C164,271.8 167.1,272.1 169.2,273.1 C169.8,273.4 170.1,273.5 170.1,274.2 L170.1,277.7 C170.1,278 170,278.5 169.6,278.5 C169.4,278.5 169.1,278.3 168.9,278.2 C167.1,277.1 164.8,276.6 162.7,276.6 C156.8,276.6 154,280.3 154,286 C154,291.6 156.9,295.3 162.7,295.3 C165,295.3 166.8,294.7 168.8,293.7 C169,293.6 169.3,293.4 169.6,293.4 C170,293.4 170.2,293.7 170.2,294.1 L170.2,297.6 C170.1,298.2 170,298.3 169.4,298.6" id="Path"></path>
            <path d="M191,297.9 C188.6,300 186.2,300.4 183.1,300.4 C176.2,300.4 172.3,296.1 172.3,289.3 C172.3,286.1 173.3,282.8 175.6,280.7 C177.8,278.7 180.5,278.2 183.4,278.2 C186.3,278.2 188.8,278.6 191,280.7 C193.5,283 194.3,286.1 194.3,289.4 C194.4,292.8 193.5,295.7 191,297.9 M183.4,282.4 C179.6,282.4 178.8,286.1 178.8,289.2 C178.8,292.4 179.4,296.3 183.4,296.3 C187.4,296.3 188,292.2 188,289.1 C187.9,286.1 187,282.4 183.4,282.4" id="Shape" fill-rule="nonzero"></path>
            <path d="M229.8,299.8 L224.6,299.8 C224.3,299.8 224.1,299.6 224.1,299.3 L224.1,287.5 C224.1,285.1 223.2,282.9 220.5,282.9 C218.7,282.9 217.5,283.9 217.5,285.8 L217.5,299.3 C217.5,299.6 217.3,299.8 217,299.8 L211.8,299.8 C211.5,299.8 211.3,299.6 211.3,299.3 L211.3,287.6 C211.3,286.3 211.3,285.1 210.3,284 C209.6,283.2 208.8,282.8 207.8,282.8 C206,282.8 204.6,283.8 204.6,285.7 L204.6,299.2 C204.6,299.5 204.4,299.7 204.1,299.7 L198.9,299.7 C198.6,299.7 198.4,299.5 198.4,299.2 L198.4,279.2 C198.4,278.9 198.6,278.7 198.9,278.7 L203.6,278.7 C204.2,278.7 204.1,279.3 204.1,279.7 L204.2,279.7 C204.8,279.7 205.4,279.2 205.9,279 C207,278.5 208.9,278.3 210.1,278.3 C212.6,278.3 213.9,278.7 215.7,280.4 L216,280.4 C218,278.8 220.3,278.3 222.9,278.3 C227.9,278.3 230.3,281.1 230.3,286 L230.3,299.3 C230.4,299.5 230.1,299.8 229.8,299.8" id="Path"></path>
            <path d="M253.9,297.1 C252,299 249.3,300.1 246.6,300.1 C244.9,300.1 244.1,299.8 242.6,299 C242.2,298.8 242.1,298.8 241.6,298.8 L241.6,307.9 C241.6,308.2 241.3,308.4 241.1,308.4 L236,308.4 C235.7,308.4 235.5,308.2 235.5,307.9 L235.5,279.2 C235.5,278.9 235.7,278.7 236,278.7 L240.7,278.7 C241.3,278.7 241.2,279.3 241.2,279.7 L241.3,279.7 C241.7,279.7 241.8,279.7 242.1,279.5 C243.9,278.6 244.9,278.3 246.9,278.3 C253.5,278.3 256.8,282.8 256.8,289.1 C256.8,292.2 256.2,294.8 253.9,297.1 M245.4,282.8 C243.3,282.8 241.7,283.5 241.7,285.8 L241.7,292.7 C241.7,294.9 243.4,295.6 245.3,295.6 C249.3,295.6 250.4,292.6 250.4,289.1 C250.4,285.7 249.2,282.8 245.4,282.8" id="Shape" fill-rule="nonzero"></path>
            <path d="M279,290.4 L265.4,290.4 L265.4,290.8 C265.4,294.4 267.9,295.9 271.2,295.9 C273.5,295.9 275.3,295.4 277.3,294.2 C277.5,294.1 277.6,294 277.8,294 C278.2,294 278.3,294.3 278.3,294.6 L278.3,297.5 C278.3,298.3 278.1,298.5 277.4,298.8 C275.3,299.8 272.1,300.1 269.8,300.1 C266.9,300.1 264.2,299.7 262.1,297.6 C259.9,295.4 259.2,292.4 259.2,289.4 C259.2,282.5 262.6,278.3 269.7,278.3 C276.1,278.3 279.6,282.5 279.6,288.7 L279.6,289.9 C279.5,290.2 279.3,290.4 279,290.4 Z M273.4,286.3 C273.4,285.1 273.3,284.1 272.4,283.2 C271.6,282.4 270.5,282.1 269.4,282.1 C268.2,282.1 267.1,282.4 266.3,283.3 C265.5,284.2 265.4,285.4 265.4,286.6 L273.4,286.6 L273.4,286.3 Z" id="Shape" fill-rule="nonzero"></path>
            <path d="M302.4,299.8 L297.2,299.8 C296.9,299.8 296.7,299.6 296.7,299.3 L296.7,287.6 C296.7,284.9 295.9,282.9 292.9,282.9 C291,282.9 289.7,283.8 289.7,285.8 L289.7,299.3 C289.7,299.6 289.5,299.8 289.2,299.8 L284,299.8 C283.7,299.8 283.5,299.6 283.5,299.3 L283.5,279.3 C283.5,279 283.7,278.8 284,278.8 L288.7,278.8 C289.3,278.8 289.2,279.4 289.2,279.8 L289.3,279.8 C289.7,279.8 289.9,279.7 290.2,279.6 C292,278.7 293.5,278.4 295.5,278.4 C297.6,278.4 299.4,278.8 301,280.2 C302.7,281.8 302.9,283.9 302.9,286.1 L302.9,299.3 C302.9,299.5 302.6,299.8 302.4,299.8" id="Path"></path>
            <path d="M313.9,300.1 C312.1,300.1 309.8,299.6 308.1,298.9 C307.4,298.6 306.7,298.4 306.7,297.6 L306.7,295.1 C306.7,294.8 306.8,294.4 307.2,294.4 C307.5,294.4 307.8,294.6 308,294.7 C309.5,295.6 311.6,295.9 313.4,295.9 C314.5,295.9 315.8,295.7 315.8,294.3 C315.8,293.3 314.7,292.8 313.9,292.4 L311.1,290.9 C308.6,289.5 307,288.1 307,285 C307,280.3 310.6,278.2 315,278.2 C316.7,278.2 318.5,278.4 320.1,279.1 C320.8,279.4 321.1,279.5 321.1,280.3 L321.1,283.2 C321.1,283.5 321,284 320.6,284 C320.4,284 320.2,283.9 320,283.7 C318.5,282.8 317.2,282.3 315.4,282.3 C314.3,282.3 312.8,282.5 312.8,283.9 C312.8,284.9 313.6,285.2 314.3,285.6 C317.8,287.5 321.5,288.8 321.5,293.4 C321.7,297.9 318,300.1 313.9,300.1" id="Path"></path>
            <path d="M342.4,299.8 L337.7,299.8 C337.1,299.8 337.2,299.2 337.2,298.8 L337,298.8 C336.5,298.8 335.7,299.2 335.3,299.4 C333.9,300 332.8,300.2 331.3,300.2 C327.3,300.2 324.3,298.4 324.3,294 C324.3,291.9 325,290 326.8,288.8 C329.3,287.1 332.7,286.4 335.5,285.5 C336.3,285.3 336.8,285.1 336.8,284.2 C336.8,282.5 334.6,282.5 333.4,282.5 C330.9,282.5 328.9,283 326.8,284.2 C326.6,284.3 326.4,284.4 326.2,284.4 C325.8,284.4 325.7,284 325.7,283.7 L325.7,280.8 C325.7,280.2 325.9,280.1 326.4,279.8 C328.6,278.7 331.6,278.4 334,278.4 C338.3,278.4 343.1,279.4 343.1,284.7 L343.1,299.4 C342.9,299.5 342.7,299.8 342.4,299.8 Z M336.7,288.8 C335.5,289.3 334.3,289.8 333,290.3 C331.5,290.9 330.4,291.5 330.4,293.3 C330.4,295.2 331.7,296 333.4,296 C335.4,296 336.6,295.2 336.6,293.1 L336.6,288.8 L336.7,288.8 Z" id="Shape" fill-rule="nonzero"></path>
            <path d="M360.4,299.1 C358.9,299.8 357.4,300.1 355.7,300.1 C354,300.1 352.1,299.8 350.7,298.8 C349.1,297.7 348.9,295.7 348.9,293.9 L348.9,282.8 L346.5,282.8 C346.2,282.8 346,282.6 346,282.3 L346,279.2 C346,278.9 346.2,278.7 346.5,278.7 L348.9,278.7 L348.9,274 C348.9,273.7 349.1,273.5 349.4,273.5 L354.6,273.5 C354.9,273.5 355.1,273.7 355.1,274 L355.1,278.6 L360.8,278.6 C361.1,278.6 361.3,278.9 361.3,279.1 L361.3,282.2 C361.3,282.5 361.1,282.7 360.8,282.7 L355.1,282.7 L355.1,292.7 C355.1,294.4 355.6,295.5 357.4,295.5 C358.9,295.5 360.3,294.3 360.8,294.3 C361.1,294.3 361.3,294.7 361.3,294.9 L361.3,297.8 C361.4,298.7 361.1,298.8 360.4,299.1" id="Path"></path>
            <path d="M367.8,275.9 C366,275.9 364.3,275.2 364.3,273.1 C364.3,271 366.2,270.4 367.9,270.4 C369.6,270.4 371.3,271.2 371.3,273.2 C371.4,275.2 369.6,275.9 367.8,275.9 M370.4,299.8 L365.2,299.8 C364.9,299.8 364.7,299.6 364.7,299.3 L364.7,279.3 C364.7,279 365,278.8 365.2,278.8 L370.4,278.8 C370.7,278.8 370.9,279 370.9,279.3 L370.9,299.3 C370.9,299.5 370.7,299.8 370.4,299.8" id="Shape" fill-rule="nonzero"></path>
            <path d="M393.7,297.9 C391.3,300 388.9,300.4 385.8,300.4 C378.9,300.4 375,296.1 375,289.3 C375,286.1 376,282.8 378.3,280.7 C380.5,278.7 383.2,278.2 386.1,278.2 C389,278.2 391.5,278.6 393.7,280.7 C396.2,283 397,286.1 397,289.4 C397,292.8 396.2,295.7 393.7,297.9 M386,282.4 C382.2,282.4 381.4,286.1 381.4,289.2 C381.4,292.4 382,296.3 386,296.3 C390,296.3 390.6,292.2 390.6,289.1 C390.5,286.1 389.6,282.4 386,282.4" id="Shape" fill-rule="nonzero"></path>
            <path d="M420,299.8 L414.8,299.8 C414.5,299.8 414.3,299.6 414.3,299.3 L414.3,287.6 C414.3,284.9 413.5,282.9 410.5,282.9 C408.6,282.9 407.3,283.8 407.3,285.8 L407.3,299.3 C407.3,299.6 407.1,299.8 406.8,299.8 L401.6,299.8 C401.3,299.8 401.1,299.6 401.1,299.3 L401.1,279.3 C401.1,279 401.4,278.8 401.6,278.8 L406.3,278.8 C406.9,278.8 406.8,279.4 406.8,279.8 L406.9,279.8 C407.3,279.8 407.5,279.7 407.8,279.6 C409.6,278.7 411.1,278.4 413.1,278.4 C415.2,278.4 417.1,278.8 418.6,280.2 C420.3,281.8 420.5,283.9 420.5,286.1 L420.5,299.3 C420.5,299.5 420.3,299.8 420,299.8" id="Path"></path>
            <path d="M442.7,300.1 C440.3,300.1 437.8,299.7 435.6,298.8 C434.9,298.5 434.5,298.4 434.5,297.6 L434.5,294.2 C434.5,293.9 434.7,293.5 435,293.5 C435.3,293.5 435.5,293.7 435.8,293.9 C437.7,295.1 440.2,295.6 442.4,295.6 C444.3,295.6 446.5,295.1 446.5,292.8 C446.5,291.2 445.4,290.6 444.2,289.8 L439.2,286.4 C436.8,284.7 435.3,282.3 435.3,279.3 C435.3,273.4 440.2,271.8 445.3,271.8 C447.1,271.8 450,272.1 451.7,272.8 C452.4,273.1 452.4,273.2 452.4,274 L452.4,277.4 C452.4,277.7 452.4,278.2 451.9,278.2 C451.6,278.2 451.3,278 451.1,277.9 C449.2,276.9 447.5,276.3 445.3,276.3 C443.6,276.3 441.6,276.8 441.6,278.9 C441.6,280.3 442.8,281.2 443.9,281.8 L447.6,284 C450.9,286 452.9,288.2 452.9,292.2 C452.8,298.1 447.9,300.1 442.7,300.1" id="Path"></path>
            <path d="M473.5,298.6 C471.7,299.6 468.5,300.1 466.4,300.1 C459.5,300.1 455.8,296.1 455.8,289.3 C455.8,282 459.6,278.3 466.9,278.3 C468.9,278.3 471.1,278.5 473,279.2 C473.6,279.5 473.9,279.5 473.9,280.2 L473.9,283.6 C473.9,284 473.8,284.2 473.4,284.2 C473.1,284.2 472.7,284 472.4,283.8 C471.2,283.1 469.6,282.8 468.2,282.8 C464.2,282.8 462.3,285.2 462.3,289.1 C462.3,293 464.2,295.6 468.3,295.6 C469.9,295.6 471.5,295.1 472.9,294.3 C473.1,294.2 473.2,294 473.4,294 C473.8,294 473.9,294.3 473.9,294.6 L473.9,297.7 C473.9,298.2 473.9,298.3 473.5,298.6" id="Path"></path>
            <path d="M496.5,299.8 L491.3,299.8 C491,299.8 490.8,299.6 490.8,299.3 L490.8,287.2 C490.8,284.7 489.7,282.9 487,282.9 C485.1,282.9 483.7,283.8 483.7,285.8 L483.7,299.3 C483.7,299.6 483.5,299.8 483.2,299.8 L478,299.8 C477.7,299.8 477.5,299.6 477.5,299.3 L477.5,271 C477.5,270.7 477.7,270.5 478,270.5 L483.2,270.5 C483.5,270.5 483.7,270.8 483.7,271 L483.7,279.8 L483.8,279.8 C484.1,279.8 484.4,279.6 484.6,279.5 C486.3,278.6 487.7,278.2 489.6,278.2 C493.9,278.2 497,280.8 497,285.3 L497,299.3 C497.1,299.5 496.8,299.8 496.5,299.8" id="Path"></path>
            <path d="M520.5,290.4 L506.9,290.4 L506.9,290.8 C506.9,294.4 509.4,295.9 512.7,295.9 C515,295.9 516.8,295.4 518.8,294.2 C519,294.1 519.1,294 519.3,294 C519.7,294 519.8,294.3 519.8,294.6 L519.8,297.5 C519.8,298.3 519.5,298.5 518.9,298.8 C516.8,299.8 513.6,300.1 511.3,300.1 C508.3,300.1 505.7,299.7 503.6,297.6 C501.4,295.4 500.7,292.4 500.7,289.4 C500.7,282.5 504.1,278.3 511.2,278.3 C517.6,278.3 521.1,282.5 521.1,288.7 L521.1,289.9 C521,290.2 520.8,290.4 520.5,290.4 Z M514.8,286.3 C514.8,285.1 514.7,284.1 513.8,283.2 C513,282.4 511.9,282.1 510.8,282.1 C509.6,282.1 508.5,282.4 507.7,283.3 C506.9,284.2 506.8,285.4 506.8,286.6 L514.8,286.6 L514.8,286.3 Z" id="Shape" fill-rule="nonzero"></path>
            <path d="M556.3,299.8 L551.1,299.8 C550.8,299.8 550.6,299.6 550.6,299.3 L550.6,287.5 C550.6,285.1 549.7,282.9 547,282.9 C545.2,282.9 544,283.9 544,285.8 L544,299.3 C544,299.6 543.8,299.8 543.5,299.8 L538.3,299.8 C538,299.8 537.8,299.6 537.8,299.3 L537.8,287.6 C537.8,286.3 537.8,285.1 536.8,284 C536.1,283.2 535.3,282.8 534.3,282.8 C532.5,282.8 531.1,283.8 531.1,285.7 L531.1,299.2 C531.1,299.5 530.9,299.7 530.6,299.7 L525.4,299.7 C525.1,299.7 524.9,299.5 524.9,299.2 L524.9,279.2 C524.9,278.9 525.1,278.7 525.4,278.7 L530.1,278.7 C530.7,278.7 530.6,279.3 530.6,279.7 L530.7,279.7 C531.3,279.7 531.9,279.2 532.4,279 C533.5,278.5 535.4,278.3 536.6,278.3 C539.1,278.3 540.4,278.7 542.2,280.4 L542.5,280.4 C544.5,278.8 546.8,278.3 549.4,278.3 C554.4,278.3 556.8,281.1 556.8,286 L556.8,299.3 C556.8,299.5 556.6,299.8 556.3,299.8" id="Path"></path>
            <path d="M580.3,290.4 L566.7,290.4 L566.7,290.8 C566.7,294.4 569.2,295.9 572.5,295.9 C574.8,295.9 576.6,295.4 578.6,294.2 C578.8,294.1 578.9,294 579.1,294 C579.5,294 579.6,294.3 579.6,294.6 L579.6,297.5 C579.6,298.3 579.3,298.5 578.7,298.8 C576.6,299.8 573.4,300.1 571.1,300.1 C568.1,300.1 565.5,299.7 563.4,297.6 C561.2,295.4 560.5,292.4 560.5,289.4 C560.5,282.5 563.9,278.3 571,278.3 C577.4,278.3 580.9,282.5 580.9,288.7 L580.9,289.9 C580.8,290.2 580.6,290.4 580.3,290.4 Z M574.6,286.3 C574.6,285.1 574.5,284.1 573.6,283.2 C572.8,282.4 571.7,282.1 570.6,282.1 C569.4,282.1 568.3,282.4 567.5,283.3 C566.7,284.2 566.6,285.4 566.6,286.6 L574.6,286.6 L574.6,286.3 Z" id="Shape" fill-rule="nonzero"></path>
        </g>
    </g>
</svg>