<?xml version="1.0" encoding="UTF-8"?>
<svg width="167px" height="167px" viewBox="0 0 167 167" version="1.1" xmlns="http://www.w3.org/2000/svg" xmlns:xlink="http://www.w3.org/1999/xlink">
    <!-- Generator: Sketch 52.5 (67469) - http://www.bohemiancoding.com/sketch -->
    <title>Goldman_Sachs</title>
    <desc>Created with Sketch.</desc>
    <g id="Goldman_Sachs" stroke="none" stroke-width="1" fill="none" fill-rule="evenodd">
        <polygon id="Fill-1" points="-12.74 179.433 180.016 179.433 180.016 -13.323 -12.74 -13.323"></polygon>
        <polygon id="Fill-2" stroke="#333333" points="1.097 165.596 166.179 165.596 166.179 0.514 1.097 0.514"></polygon>
        <path d="M145.48,38.208 L139.759,38.208 L139.759,15.659 L145.144,15.659 L145.144,18.183 C145.817,16.669 147.5,15.323 149.687,15.154 C153.39,14.986 155.914,17.174 155.914,21.885 L155.914,38.208 L150.024,38.208 L150.024,21.213 C150.024,19.193 150.024,17.51 148.678,17.174 C148.173,17.006 147.332,17.174 146.658,17.678 C145.817,18.52 145.48,19.529 145.48,21.213 C145.48,21.549 145.48,38.208 145.48,38.208" id="Fill-3" stroke="#333333"></path>
        <path d="M48.215,17.174 C46.869,15.996 45.186,15.154 43.166,15.154 C41.147,15.154 39.632,15.996 38.118,17.174 C35.762,19.193 34.248,22.895 34.248,26.934 C34.248,31.141 35.762,34.674 38.118,36.694 C39.632,37.872 41.147,38.713 43.166,38.713 C45.186,38.713 46.869,37.872 48.215,36.694 C50.739,34.674 52.085,31.141 52.085,26.934 C52.085,22.895 50.739,19.193 48.215,17.174 Z M46.027,26.934 C46.027,31.141 46.027,34.506 45.354,36.189 C44.849,37.031 44.344,37.536 43.166,37.536 C42.157,37.536 41.484,37.031 41.147,36.189 C40.306,34.506 40.306,31.141 40.306,26.934 C40.306,22.895 40.306,19.361 41.147,17.678 C41.484,16.837 42.157,16.332 43.166,16.332 C44.344,16.332 44.849,16.837 45.354,17.678 C46.196,19.361 46.027,22.895 46.027,26.934 Z" id="Fill-4" stroke="#333333"></path>
        <path d="M106.945,46.791 L106.945,52.849 L105.767,52.849 C105.094,50.325 104.084,48.138 101.391,47.969 C99.709,47.801 98.194,48.81 98.026,50.325 C97.858,51.839 98.362,53.185 101.391,54.868 C105.262,57.056 108.291,58.066 108.291,62.609 C108.291,67.489 104.084,69.845 100.55,69.845 C99.035,69.845 93.819,69.845 93.819,69.845 L93.819,61.431 L94.997,61.431 C95.838,65.807 97.184,68.499 100.382,68.667 C102.401,68.667 103.915,67.489 103.915,65.301 C103.915,63.114 102.569,61.768 99.372,59.917 C95.838,57.729 93.651,56.383 93.651,53.354 C93.651,49.315 96.511,46.791 101.054,46.791 C102.569,46.791 106.945,46.791 106.945,46.791" id="Fill-5" stroke="#333333"></path>
        <path d="M114.349,38.208 L114.349,21.885 C114.349,17.174 111.825,14.986 108.122,15.154 C105.598,15.323 104.084,17.006 103.41,18.352 C102.569,15.996 100.718,14.986 98.026,15.154 C95.838,15.323 94.155,16.669 93.482,18.183 L93.482,15.659 L88.266,15.659 L88.266,38.208 L93.987,38.208 C93.987,38.208 93.987,21.718 93.987,21.213 C93.987,19.529 94.155,18.52 95.165,17.678 C95.838,17.174 96.511,17.006 97.016,17.174 C98.362,17.51 98.362,19.193 98.362,21.213 L98.362,38.208 L104.084,38.208 L104.084,21.045 C104.084,19.529 104.42,18.52 105.262,17.678 C105.935,17.174 106.608,17.006 107.113,17.174 C108.459,17.51 108.627,19.193 108.627,21.213 L108.627,38.208 L114.349,38.208" id="Fill-6" stroke="#333333"></path>
        <polygon id="Fill-7" stroke="#333333" points="55.956 38.209 61.846 38.209 61.846 10.948 55.956 10.948"></polygon>
        <path d="M82.713,38.208 L82.713,10.948 L76.822,10.948 L76.822,17.342 C76.318,16.164 75.14,15.323 73.457,15.323 C69.25,15.323 65.884,19.698 65.716,26.429 C65.548,30.973 67.062,38.545 72.952,38.545 C75.308,38.545 76.654,37.199 77.159,36.021 L77.159,38.208 L82.713,38.208 Z M75.813,17.51 C76.991,19.193 76.991,23.232 76.991,26.429 C76.991,29.794 77.159,34.17 75.813,36.021 C75.308,36.694 74.803,37.031 73.962,37.031 C72.784,37.031 72.111,35.685 71.774,33.497 C71.606,31.477 71.606,28.953 71.606,26.261 C71.606,21.718 71.942,16.669 74.13,16.669 C74.971,16.669 75.308,17.006 75.813,17.51 Z" id="Fill-8" stroke="#333333"></path>
        <path d="M131.85,16.332 C133.365,17.174 134.374,18.52 134.374,21.549 L134.374,38.208 L128.821,38.208 L128.821,35.685 C128.148,37.536 126.297,38.713 123.772,38.713 C121.753,38.713 118.219,37.704 118.219,32.487 C118.219,27.607 121.417,26.597 124.951,25.083 C128.148,23.737 128.484,23.568 128.484,22.222 C128.484,21.045 128.484,20.034 128.484,18.52 C128.484,17.006 127.643,16.332 125.96,16.332 C125.288,16.5 124.109,16.837 124.109,17.678 C123.94,18.688 125.118,18.688 125.288,20.203 C125.455,22.559 123.604,23.4 121.922,23.232 C120.744,23.232 119.397,22.559 119.229,20.708 C119.061,17.678 122.426,15.154 127.138,15.154 C129.326,15.154 130.672,15.659 131.85,16.332 Z M128.484,24.746 L126.633,25.924 C124.783,27.102 124.445,28.617 124.277,30.3 C124.109,31.645 124.109,32.824 124.277,34.843 C124.445,36.694 125.624,37.031 126.633,36.694 C127.812,36.189 128.484,34.002 128.484,31.645 C128.484,31.645 128.484,25.588 128.484,24.746 Z" id="Fill-9" stroke="#333333"></path>
        <path d="M48.551,47.801 C50.066,48.81 50.908,49.988 50.908,53.017 L50.908,69.845 L45.523,69.845 L45.523,67.321 C44.849,69.004 42.999,70.182 40.474,70.182 C38.286,70.182 34.92,69.34 34.92,64.124 C34.92,59.244 38.118,58.234 41.484,56.719 C44.849,55.205 45.186,55.037 45.186,53.859 C45.186,52.681 45.186,51.671 45.186,50.157 C45.186,48.474 44.344,47.801 42.662,47.969 C41.988,47.969 40.811,48.306 40.811,49.147 C40.642,50.325 41.82,50.325 41.988,51.839 C42.157,54.027 40.306,54.868 38.623,54.868 C37.445,54.7 36.099,54.027 35.93,52.175 C35.762,49.315 39.128,46.791 43.839,46.791 C46.027,46.791 47.373,47.128 48.551,47.801 Z M45.186,56.214 L43.335,57.392 C41.484,58.571 41.147,60.085 40.979,61.768 C40.811,63.114 40.811,64.46 40.979,66.311 C40.979,68.331 42.157,68.667 43.166,68.162 C44.513,67.658 45.186,65.639 45.186,63.114 C45.186,63.114 45.186,57.056 45.186,56.214 Z" id="Fill-10" stroke="#333333"></path>
        <path d="M89.275,53.522 C89.275,48.81 86.751,46.454 83.049,46.791 C81.198,46.959 79.683,47.801 78.842,48.978 L78.842,42.416 L73.12,42.416 L73.12,57.898 C73.12,63.619 69.082,69.004 65.043,68.835 C62.182,68.835 61.509,66.648 61.172,64.292 C60.668,60.926 60.668,57.056 61.004,52.849 C61.341,50.157 62.014,47.969 64.033,47.969 C65.548,47.969 65.716,48.978 65.043,49.651 C64.369,50.493 63.36,51.334 63.865,53.185 C64.369,55.205 67.567,55.541 69.082,54.027 C70.26,52.681 70.091,50.493 69.25,49.147 C68.24,47.464 66.558,46.791 64.033,46.791 C60.836,46.791 54.778,49.651 54.778,58.739 C54.778,68.499 61.004,70.182 64.538,70.182 C68.577,70.182 72.111,66.648 73.12,63.787 L73.12,69.845 L78.842,69.845 L78.842,52.849 C78.842,51.166 79.178,50.157 80.019,49.315 C80.693,48.81 81.534,48.642 82.039,48.81 C83.386,49.147 83.386,50.829 83.386,52.849 L83.386,69.845 L89.275,69.845 L89.275,53.522" id="Fill-11" stroke="#333333"></path>
        <path d="M30.377,10.442 L30.377,20.034 L29.199,20.034 C28.189,15.323 26.002,11.788 22.973,11.62 C20.954,11.452 19.776,12.63 18.766,14.313 C17.757,16.332 17.251,20.539 17.251,25.588 C17.251,30.3 17.42,33.833 17.924,36.357 C18.261,37.536 19.103,39.387 21.29,39.387 C22.468,39.387 23.31,39.05 23.814,38.377 C24.656,37.367 24.824,35.348 24.824,34.002 C24.824,31.814 24.824,31.141 24.824,29.458 C24.824,27.776 24.32,26.766 23.478,26.261 C22.805,25.924 21.795,25.924 21.29,25.756 L21.29,24.578 L30.714,24.578 L30.714,48.642 L29.535,48.642 C29.031,46.791 28.695,45.444 27.853,43.93 C27.012,42.416 25.497,40.733 22.973,40.733 C20.28,40.565 18.261,42.248 18.261,44.771 C18.261,48.138 20.28,48.978 23.982,50.998 C27.517,53.017 32.06,54.7 32.06,60.59 C32.06,66.311 27.18,69.845 21.627,69.845 C20.449,69.845 12.708,69.845 12.708,69.845 L12.708,58.234 L13.886,58.234 C15.4,66.984 19.103,68.499 21.627,68.499 C24.824,68.499 26.338,66.48 26.338,63.619 C26.17,59.917 23.646,58.571 20.112,56.719 C15.064,53.859 12.708,52.512 12.708,47.801 C12.876,43.762 16.074,41.238 19.607,40.228 C12.203,39.387 10.016,32.656 10.184,25.419 C10.184,18.183 14.391,10.442 22.636,10.442 C26.338,10.442 30.377,10.442 30.377,10.442" id="Fill-12" stroke="#333333"></path>
    </g>
</svg>