<?xml version="1.0" encoding="UTF-8"?>
<svg width="452px" height="73px" viewBox="0 0 452 73" version="1.1" xmlns="http://www.w3.org/2000/svg" xmlns:xlink="http://www.w3.org/1999/xlink">
    <!-- Generator: Sketch 52.5 (67469) - http://www.bohemiancoding.com/sketch -->
    <title>inventica</title>
    <desc>Created with Sketch.</desc>
    <g id="Page-1" stroke="none" stroke-width="1" fill="none" fill-rule="evenodd">
        <g id="inventica" transform="translate(1.000000, 0.000000)" stroke="#333333">
            <path d="M156.406,47 L147.25,47 L155.125,1.5 L164.281,1.5 L156.406,47 Z M199.271,47 L190.396,47 L177.74,16.656 L172.459,47 L163.303,47 L171.209,1.5 L180.053,1.5 L192.74,31.906 L198.021,1.5 L207.146,1.5 L199.271,47 Z M223.98,35.625 L239.293,1.5 L249.793,1.5 L227.322,47 L217.76,47 L209.574,1.5 L219.417,1.5 L223.98,35.625 Z M274.876,27.281 L257.44,27.281 L255.315,39.469 L275.815,39.469 L274.5,47 L244.844,47 L252.751,1.5 L282.345,1.5 L281.001,9.094 L260.595,9.094 L258.689,19.938 L276.189,19.938 L274.876,27.281 Z M314.273,47 L305.397,47 L292.741,16.656 L287.46,47 L278.304,47 L286.21,1.5 L295.054,1.5 L307.741,31.906 L313.022,1.5 L322.147,1.5 L314.272,47 L314.273,47 Z M359.637,9.094 L346.137,9.094 L339.575,47 L330.419,47 L336.981,9.094 L323.637,9.094 L324.981,1.5 L360.981,1.5 L359.637,9.094 Z M366.502,47 L357.346,47 L365.221,1.5 L374.377,1.5 L366.502,47 Z M410.492,31.812 C410.138,34.958 409.065,37.745 407.274,40.172 C405.482,42.599 403.149,44.464 400.274,45.766 C397.399,47.068 394.294,47.688 390.961,47.625 C387.961,47.562 385.347,46.87 383.117,45.547 C380.888,44.224 379.133,42.307 377.852,39.797 C376.571,37.287 375.847,34.396 375.68,31.125 C375.534,28.562 375.8,25.375 376.477,21.562 C377.154,17.75 378.362,14.365 380.102,11.406 C381.842,8.448 383.909,6.104 386.305,4.375 C389.68,1.958 393.535,0.792 397.868,0.875 C402.576,0.958 406.31,2.411 409.071,5.235 C411.831,8.057 413.347,11.979 413.617,17 L404.492,16.969 C404.492,14.094 403.92,11.989 402.774,10.656 C401.628,9.323 399.847,8.615 397.43,8.531 C394.305,8.427 391.737,9.541 389.727,11.875 C387.717,14.208 386.367,17.615 385.68,22.094 C385.013,26.448 384.722,29.708 384.805,31.875 C384.909,34.625 385.524,36.651 386.649,37.953 C387.774,39.255 389.347,39.937 391.368,40 C394.159,40.104 396.394,39.443 398.071,38.016 C399.748,36.589 400.857,34.542 401.399,31.875 L410.493,31.812 L410.492,31.812 Z M439.326,37.625 L423.451,37.625 L418.764,47 L408.67,47 L432.983,1.5 L441.451,1.5 L450.107,47 L440.764,47 L439.326,37.625 Z M427.201,30.031 L438.17,30.031 L435.607,13.094 L427.201,30.031 Z M157.79,57.49 L157.79,59.91 L153.55,59.91 L153.55,72 L150.54,72 L150.54,59.91 L146.3,59.91 L146.3,57.49 L157.79,57.49 Z M182.54,57.49 L182.54,59.84 L176.32,59.84 L176.32,63.57 L181.16,63.57 L181.16,65.84 L176.32,65.84 L176.32,69.65 L182.54,69.65 L182.54,72 L173.3,72 L173.3,57.49 L182.54,57.49 Z M208.06,68.43 C208.227,68.43 208.367,68.49 208.48,68.61 L209.67,69.88 C209.093557,70.618739 208.342783,71.2028657 207.485,71.58 C206.615,71.967 205.58,72.16 204.38,72.16 C203.293,72.16 202.317,71.975 201.45,71.605 C200.61107,71.2544284 199.857358,70.7275124 199.24,70.06 C198.620437,69.3784966 198.144324,68.5793054 197.84,67.71 C197.513,66.803 197.35,65.813 197.35,64.74 C197.35,64.02 197.428,63.335 197.585,62.685 C197.742,62.035 197.97,61.437 198.27,60.89 C198.57,60.343 198.932,59.85 199.355,59.41 C199.778,58.97 200.257,58.595 200.79,58.285 C201.336459,57.9696438 201.9236,57.7307497 202.535,57.575 C203.193547,57.4081507 203.870658,57.3258222 204.55,57.33 C205.083,57.33 205.588,57.377 206.065,57.47 C206.542,57.563 206.987,57.693 207.4,57.86 C207.813,58.027 208.195,58.228 208.545,58.465 C208.895,58.702 209.21,58.96 209.49,59.24 L208.48,60.62 C208.41725,60.7094232 208.339423,60.7872498 208.25,60.85 C208.136898,60.9222301 208.004005,60.957202 207.87,60.95 C207.694653,60.9448007 207.525221,60.8854123 207.385,60.78 C207.222,60.667 207.022,60.54 206.785,60.4 C206.503409,60.2405883 206.204891,60.1131313 205.895,60.02 C205.538,59.907 205.087,59.85 204.54,59.85 C203.933,59.85 203.377,59.96 202.87,60.18 C202.363,60.4 201.928,60.718 201.565,61.135 C201.202,61.552 200.92,62.063 200.72,62.67 C200.52,63.277 200.42,63.967 200.42,64.74 C200.42,65.52 200.528,66.215 200.745,66.825 C200.962,67.435 201.258,67.95 201.635,68.37 C202.012,68.79 202.452,69.108 202.955,69.325 C203.465298,69.5431056 204.015059,69.6537386 204.57,69.65 C204.91,69.65 205.218,69.633 205.495,69.6 C205.772,69.567 206.028,69.51 206.265,69.43 C206.502,69.35 206.725,69.247 206.935,69.12 C207.161628,68.9808188 207.374282,68.8200724 207.57,68.64 C207.643,68.58 207.72,68.53 207.8,68.49 C207.88,68.45 207.967,68.43 208.06,68.43 Z M237.49,72 L234.47,72 L234.47,65.75 L228.08,65.75 L228.08,72 L225.06,72 L225.06,57.49 L228.08,57.49 L228.08,63.65 L234.47,63.65 L234.47,57.49 L237.49,57.49 L237.49,72 Z M255.81,57.49 C255.937,57.49 256.045,57.495 256.135,57.505 C256.225,57.515 256.307,57.538 256.38,57.575 C256.456215,57.6136476 256.526855,57.6624227 256.59,57.72 C256.657,57.78 256.73,57.86 256.81,57.96 L264.09,67.21 C264.063,66.957 264.043,66.71 264.03,66.47 C264.01706,66.2435613 264.010391,66.0168078 264.01,65.79 L264.01,57.49 L266.66,57.49 L266.66,72 L265.11,72 C264.877,72 264.68,71.962 264.52,71.885 C264.33653,71.7889936 264.176152,71.6542079 264.05,71.49 L256.82,62.3 C256.856992,62.7357226 256.877007,63.1727202 256.88,63.61 L256.88,72 L254.23,72 L254.23,57.49 L255.81,57.49 Z M297.42,64.74 C297.42,65.8 297.242,66.783 296.885,67.69 C296.546844,68.5679348 296.03302,69.3675947 295.375,70.04 C294.706923,70.7120558 293.909067,71.2411246 293.03,71.595 C292.117,71.972 291.103,72.16 289.99,72.16 C288.877,72.16 287.863,71.972 286.95,71.595 C286.069875,71.2403377 285.270532,70.7114105 284.6,70.04 C283.939361,69.3687105 283.423699,68.568838 283.085,67.69 C282.728,66.783 282.55,65.8 282.55,64.74 C282.55,63.68 282.728,62.698 283.085,61.795 C283.424558,60.9180743 283.940156,60.1200031 284.6,59.45 C285.270532,58.7785895 286.069875,58.2496623 286.95,57.895 C287.863,57.518 288.877,57.33 289.99,57.33 C291.103,57.33 292.117,57.518 293.03,57.895 C293.909984,58.2494293 294.708049,58.7803387 295.375,59.455 C296.031598,60.1285371 296.545224,60.9278879 296.885,61.805 C297.24765,62.7406086 297.429203,63.736609 297.42,64.74 Z M294.35,64.74 C294.35,63.98 294.25,63.298 294.05,62.695 C293.870383,62.1277545 293.575942,61.6035466 293.185,61.155 C292.808178,60.7315362 292.339589,60.3997615 291.815,60.185 C291.278,59.962 290.67,59.85 289.99,59.85 C289.31,59.85 288.7,59.962 288.16,60.185 C287.62,60.408 287.162,60.732 286.785,61.155 C286.394058,61.6035466 286.099617,62.1277545 285.92,62.695 C285.72,63.298 285.62,63.98 285.62,64.74 C285.62,65.507 285.72,66.192 285.92,66.795 C286.12,67.398 286.408,67.91 286.785,68.33 C287.162,68.75 287.62,69.072 288.16,69.295 C288.7,69.518 289.31,69.63 289.99,69.63 C290.67,69.63 291.278,69.518 291.815,69.295 C292.338645,69.080853 292.807017,68.7509413 293.185,68.33 C293.562,67.91 293.85,67.398 294.05,66.795 C294.25,66.192 294.35,65.507 294.35,64.74 Z M316.32,69.56 L321.93,69.56 L321.93,72 L313.32,72 L313.32,57.49 L316.32,57.49 L316.32,69.56 Z M351.04,64.74 C351.04,65.8 350.862,66.783 350.505,67.69 C350.166844,68.5679348 349.65302,69.3675947 348.995,70.04 C348.326923,70.7120558 347.529067,71.2411246 346.65,71.595 C345.737,71.972 344.723,72.16 343.61,72.16 C342.497,72.16 341.483,71.972 340.57,71.595 C339.689875,71.2403377 338.890532,70.7114105 338.22,70.04 C337.559361,69.3687105 337.043699,68.568838 336.705,67.69 C336.348,66.783 336.17,65.8 336.17,64.74 C336.17,63.68 336.348,62.698 336.705,61.795 C337.044558,60.9180743 337.560156,60.1200031 338.22,59.45 C338.890532,58.7785895 339.689875,58.2496623 340.57,57.895 C341.483,57.518 342.497,57.33 343.61,57.33 C344.723,57.33 345.737,57.518 346.65,57.895 C347.529984,58.2494293 348.328049,58.7803387 348.995,59.455 C349.651598,60.1285371 350.165224,60.9278879 350.505,61.805 C350.86765,62.7406086 351.049203,63.736609 351.04,64.74 Z M347.97,64.74 C347.97,63.98 347.87,63.298 347.67,62.695 C347.490383,62.1277545 347.195942,61.6035466 346.805,61.155 C346.428178,60.7315362 345.959589,60.3997615 345.435,60.185 C344.898,59.962 344.29,59.85 343.61,59.85 C342.93,59.85 342.32,59.962 341.78,60.185 C341.24,60.408 340.782,60.732 340.405,61.155 C340.014058,61.6035466 339.719617,62.1277545 339.54,62.695 C339.34,63.298 339.24,63.98 339.24,64.74 C339.24,65.507 339.34,66.192 339.54,66.795 C339.74,67.398 340.028,67.91 340.405,68.33 C340.782,68.75 341.24,69.072 341.78,69.295 C342.32,69.518 342.93,69.63 343.61,69.63 C344.29,69.63 344.898,69.518 345.435,69.295 C345.958645,69.080853 346.427017,68.7509413 346.805,68.33 C347.182,67.91 347.47,67.398 347.67,66.795 C347.87,66.192 347.97,65.507 347.97,64.74 Z M378.98,70.6 C378.24,71.14 377.452,71.535 376.615,71.785 C375.752983,72.038623 374.858539,72.1649569 373.96,72.16 C372.767,72.16 371.687,71.975 370.72,71.605 C369.753,71.235 368.927,70.72 368.24,70.06 C367.551135,69.3967782 367.009417,68.5961252 366.65,67.71 C366.277,66.803 366.09,65.813 366.09,64.74 C366.09,63.653 366.268,62.657 366.625,61.75 C366.963275,60.8715151 367.482901,60.0741873 368.15,59.41 C368.81,58.757 369.608,58.247 370.545,57.88 C371.482,57.513 372.53,57.33 373.69,57.33 C374.29,57.33 374.85,57.378 375.37,57.475 C375.89,57.572 376.37,57.705 376.81,57.875 C377.627952,58.1875203 378.378223,58.6543184 379.02,59.25 L378.15,60.59 C378.017,60.803 377.843,60.933 377.63,60.98 C377.417,61.027 377.183,60.973 376.93,60.82 C376.69,60.673 376.455,60.542 376.225,60.425 C375.727687,60.1714895 375.192305,60.0009105 374.64,59.92 C374.288904,59.8702925 373.934584,59.846894 373.58,59.85 C372.907,59.85 372.297,59.967 371.75,60.2 C371.21771,60.4231368 370.74134,60.7612056 370.355,61.19 C369.972,61.617 369.677,62.13 369.47,62.73 C369.263,63.33 369.16,64 369.16,64.74 C369.16,65.54 369.273,66.255 369.5,66.885 C369.727,67.515 370.047,68.047 370.46,68.48 C370.873,68.913 371.368,69.243 371.945,69.47 C372.522,69.697 373.163,69.81 373.87,69.81 C374.35,69.81 374.778,69.762 375.155,69.665 C375.534603,69.5672893 375.904476,69.4350722 376.26,69.27 L376.26,66.83 L374.62,66.83 C374.427,66.83 374.275,66.778 374.165,66.675 C374.055623,66.5732804 373.995478,66.4292976 374,66.28 L374,64.61 L378.98,64.61 L378.98,70.6 Z M398.15,72 L395.13,72 L395.13,57.49 L398.15,57.49 L398.15,72 Z M424.13,57.49 L424.13,59.84 L417.91,59.84 L417.91,63.57 L422.75,63.57 L422.75,65.84 L417.91,65.84 L417.91,69.65 L424.13,69.65 L424.13,72 L414.89,72 L414.89,57.49 L424.13,57.49 Z M447.93,60.27 C447.857667,60.3991226 447.760863,60.5129104 447.645,60.605 C447.534401,60.6791072 447.403,60.7158995 447.27,60.71 C447.100455,60.7028329 446.93614,60.6492142 446.795,60.555 C446.59998,60.4375487 446.401561,60.3258341 446.2,60.22 C445.948586,60.0893166 445.687879,59.9773464 445.42,59.885 C445.087866,59.7756104 444.739618,59.7232042 444.39,59.73 C443.697,59.73 443.177,59.885 442.83,60.195 C442.483,60.505 442.31,60.91 442.31,61.41 C442.31,61.73 442.405,61.995 442.595,62.205 C442.785,62.415 443.035,62.597 443.345,62.75 C443.655,62.903 444.007,63.04 444.4,63.16 C444.793,63.28 445.197,63.412 445.61,63.555 C446.023,63.698 446.427,63.867 446.82,64.06 C447.213,64.253 447.565,64.497 447.875,64.79 C448.185,65.083 448.435,65.442 448.625,65.865 C448.815,66.288 448.91,66.803 448.91,67.41 C448.914751,68.0447122 448.797633,68.6744373 448.565,69.265 C448.341484,69.8318086 448.00266,70.3460048 447.57,70.775 C447.137,71.205 446.602,71.543 445.965,71.79 C445.328,72.037 444.607,72.16 443.8,72.16 C443.338119,72.1598094 442.877441,72.112904 442.425,72.02 C441.974528,71.9285032 441.532865,71.7980118 441.105,71.63 C440.689108,71.467073 440.289089,71.2662265 439.91,71.03 C439.553394,70.8100148 439.22439,70.5481538 438.93,70.25 L439.81,68.83 C439.885722,68.7211689 439.984802,68.6306303 440.1,68.565 C440.214901,68.4964204 440.346189,68.4601433 440.48,68.46 C440.66,68.46 440.85,68.527 441.05,68.66 C441.25,68.793 441.48,68.94 441.74,69.1 C442,69.26 442.302,69.407 442.645,69.54 C442.988,69.673 443.4,69.74 443.88,69.74 C444.58,69.74 445.122,69.58 445.505,69.26 C445.888,68.94 446.08,68.463 446.08,67.83 C446.08,67.463 445.985,67.167 445.795,66.94 C445.588619,66.7006709 445.334974,66.5066072 445.05,66.37 C444.713331,66.205304 444.361744,66.0730405 444,65.975 C443.607,65.865 443.203,65.743 442.79,65.61 C442.376601,65.47664 441.9724,65.3162955 441.58,65.13 C441.189982,64.945666 440.834755,64.6953153 440.53,64.39 C440.209522,64.0623629 439.956412,63.6750534 439.785,63.25 C439.595,62.797 439.5,62.233 439.5,61.56 C439.499346,60.4545555 439.95529,59.3979245 440.76,58.64 C441.173,58.247 441.682,57.93 442.285,57.69 C442.888,57.45 443.58,57.33 444.36,57.33 C445.233,57.33 446.042,57.465 446.785,57.735 C447.528,58.005 448.157,58.38 448.67,58.86 L447.93,60.27 Z" id="Shape" fill-rule="nonzero"></path>
            <g id="Group" transform="translate(0.000000, 1.000000)">
                <circle id="Oval" cx="103" cy="23" r="23"></circle>
                <circle id="Oval" cx="52" cy="23" r="16"></circle>
                <circle id="Oval" cx="11" cy="23" r="11"></circle>
            </g>
        </g>
    </g>
</svg>