<?xml version="1.0" encoding="UTF-8"?>
<svg width="177px" height="42px" viewBox="0 0 177 42" version="1.1" xmlns="http://www.w3.org/2000/svg" xmlns:xlink="http://www.w3.org/1999/xlink">
    <g stroke="none" stroke-width="1" fill="none" fill-rule="evenodd">
        <polygon id="Fill-1" points="-7.74 117.433 185.016 117.433 185.016 -75.323 -7.74 -75.323"></polygon>
        <path d="M0.764,37.556 L2.156,37.556 C6.465,37.556 6.857,35.421 6.857,30.852 L6.857,0.464 L11.252,4.833 L11.252,32.071 C11.252,36.902 9.599,40.732 5.117,41.646 L0.764,37.556" id="Fill-2" stroke="#333333"></path>
        <path d="M25.022,15.578 C28.763,15.578 31.462,18.233 31.462,21.889 C31.462,25.98 28.981,28.504 25.022,28.504 C21.409,28.504 18.929,25.849 18.929,21.845 C18.929,18.233 21.496,15.578 25.022,15.578 Z M25.064,32.202 C31.331,32.202 35.64,28.025 35.64,21.845 C35.64,16.057 31.2,11.88 25.064,11.88 C19.234,11.88 14.75,16.231 14.75,21.845 C14.75,27.851 19.059,32.202 25.064,32.202 Z" id="Fill-3" stroke="#333333"></path>
        <path d="M51.517,19.669 C51.517,16.883 50.123,15.1 47.904,15.1 C46.294,15.1 44.988,15.84 43.248,17.842 L43.248,31.81 L39.158,31.81 L39.158,2.869 L43.248,2.869 L43.248,14.579 C44.684,12.836 46.817,11.791 48.905,11.791 C52.778,11.791 55.608,14.447 55.608,19.799 L55.608,31.81 L51.517,31.81 L51.517,19.669" id="Fill-4" stroke="#333333"></path>
        <path d="M72.701,19.756 C72.701,16.927 71.308,15.187 69.087,15.187 C67.478,15.187 66.173,15.926 64.432,17.885 L64.432,31.81 L60.341,31.81 L60.341,12.21 L64.432,12.21 L64.432,14.665 C65.868,12.924 68,11.88 70.09,11.88 C73.832,11.88 76.79,14.447 76.79,19.799 L76.79,31.81 L72.701,31.81 L72.701,19.756" id="Fill-5" stroke="#333333"></path>
        <polyline id="Fill-6" stroke="#333333" points="88.939 0.464 92.877 4.486 92.877 27.764 101.692 27.764 105.52 31.81 88.939 31.81 88.939 0.464"></polyline>
        <path d="M112.72,15.448 C115.287,15.448 116.898,17.189 117.072,19.649 L107.672,19.649 C108.238,17.058 109.934,15.448 112.72,15.448 Z M120.749,29.787 C120.096,29.221 118.203,27.328 118.203,27.328 C116.724,27.982 115.332,28.286 113.895,28.286 C110.326,28.286 108.194,26.415 107.585,23.002 L121.119,23.002 C121.119,15.448 117.811,11.88 112.633,11.88 C107.236,11.88 103.494,15.883 103.494,21.802 C103.494,27.198 106.888,32.202 112.981,32.202 C116.245,32.202 118.367,31.471 120.749,29.787 Z" id="Fill-7" stroke="#333333"></path>
        <polyline id="Fill-8" stroke="#333333" points="143.431 32.202 137.64 18.238 131.892 32.202 130.672 32.202 121.892 12.193 126.255 12.193 131.294 23.926 136.116 12.193 139.162 12.193 144.008 23.926 149.019 12.181 153.36 12.181 144.65 32.202 143.431 32.202"></polyline>
        <path d="M155.355,5.083 C155.355,3.777 156.4,2.689 157.662,2.689 C158.923,2.689 159.968,3.777 159.968,5.083 C159.968,6.432 158.923,7.52 157.662,7.52 C156.4,7.52 155.355,6.432 155.355,5.083 Z M155.704,31.811 L159.798,31.811 L159.798,12.184 L155.704,12.184 L155.704,31.811 Z" id="Fill-9" stroke="#333333"></path>
        <path d="M163.282,30.374 L163.282,25.936 C165.937,27.807 168.289,28.598 169.771,28.598 C171.195,28.598 172.3,28.045 172.351,26.766 C172.377,26.093 171.854,25.371 171.028,24.805 C170.201,24.195 169.07,23.629 167.938,22.933 C165.719,21.628 163.412,19.93 163.412,17.233 C163.412,13.882 165.783,11.88 169.853,11.88 C171.68,11.88 173.509,12.402 175.597,13.533 L175.597,17.624 C173.291,16.057 171.128,15.439 169.738,15.439 C168.215,15.439 167.503,16.11 167.548,17.102 C167.592,18.098 168.743,18.868 172.25,20.856 C175.549,22.727 176.512,24.369 176.512,26.415 C176.512,29.896 173.77,32.202 170.071,32.202 C167.677,32.202 165.849,31.724 163.282,30.374" id="Fill-10" stroke="#333333"></path>
    </g>
</svg>