<?xml version="1.0" encoding="utf-8"?>
<svg id="master-artboard" viewBox="0 0 344.1093444824219 257.5718994140625" version="1.1" xmlns="http://www.w3.org/2000/svg" x="0px" y="0px" style="enable-background:new 0 0 850.4 1133.9;" width="344.1093444824219px" height="257.5718994140625px"><rect id="ee-background" x="0" y="0" width="344.1093444824219" height="257.5718994140625" style="fill: white; fill-opacity: 0; pointer-events: none;"/><g transform="matrix(3.571774482727051, 0, 0, 3.571774482727051, -6.887218475341797, -50.79375457763672)"><g><path fill="#000000" d="M86.9,15.2H13.1c-4.5,0-8.1,3.6-8.1,8.1v53.3c0,4.5,3.6,8.1,8.1,8.1h73.8c4.5,0,8.1-3.6,8.1-8.1V23.3   C95,18.9,91.4,15.2,86.9,15.2z M91.2,76.7c0,2.4-1.9,4.3-4.3,4.3H13.1c-2.4,0-4.3-1.9-4.3-4.3V33.8h82.4V76.7z M91.2,30H8.8v-6.7   c0-2.4,1.9-4.3,4.3-4.3h73.8c2.4,0,4.3,1.9,4.3,4.3V30z"/><path fill="#000000" d="M50,27.1h34.3c0.4,0,0.7-0.3,0.7-0.7v-2.4c0-0.4-0.3-0.7-0.7-0.7H50c-0.4,0-0.7,0.3-0.7,0.7v2.4   C49.3,26.8,49.6,27.1,50,27.1z"/><path d="M 17.1 25.200001 A 1.9 1.9 0 0 1 15.2 27.100001 A 1.9 1.9 0 0 1 13.3 25.200001 A 1.9 1.9 0 0 1 15.2 23.300001 A 1.9 1.9 0 0 1 17.1 25.200001 Z" fill="#000000"/><path d="M 23.3 25.200001 A 1.9 1.9 0 0 1 21.4 27.100001 A 1.9 1.9 0 0 1 19.5 25.200001 A 1.9 1.9 0 0 1 21.4 23.300001 A 1.9 1.9 0 0 1 23.3 25.200001 Z" fill="#000000"/><path d="M 30 25.200001 A 1.9 1.9 0 0 1 28.1 27.100001 A 1.9 1.9 0 0 1 26.2 25.200001 A 1.9 1.9 0 0 1 28.1 23.300001 A 1.9 1.9 0 0 1 30 25.200001 Z" fill="#000000"/><path fill="#000000" d="M37.8,64.7l-7.8-7.8l7-7c0.7-0.7,0.7-1.9,0-2.7l0,0c-0.7-0.7-1.9-0.7-2.7,0l-8.1,8.2   c-0.9,0.9-0.9,2.2,0,3.1l8.9,8.9c0.7,0.7,1.9,0.7,2.7,0l0,0C38.6,66.6,38.6,65.4,37.8,64.7z"/><path fill="#000000" d="M64.4,67.4l8.9-8.9c0.9-0.9,0.9-2.2,0-3.1l-8.2-8.2c-0.7-0.7-1.9-0.7-2.7,0l0,0c-0.7,0.7-0.7,1.9,0,2.7l7,7   l-7.8,7.8c-0.7,0.7-0.7,1.9,0,2.7l0,0C62.4,68.1,63.6,68.1,64.4,67.4z"/><path fill="#000000" d="M57.3,45.7L57.3,45.7c-0.9-0.5-2.1-0.3-2.6,0.6L42.5,66.3c-0.5,0.9-0.3,2.1,0.6,2.6h0   c0.9,0.5,2.1,0.3,2.6-0.6l12.1-19.9C58.5,47.4,58.2,46.2,57.3,45.7z"/></g></g></svg>