<?xml version="1.0" encoding="utf-8"?>
<svg id="master-artboard" viewBox="0 0 439.34686279296875 446.4718322753906" version="1.1" xmlns="http://www.w3.org/2000/svg" x="0px" y="0px" style="enable-background:new 0 0 850.4 1133.9;" width="439.34686279296875px" height="446.4718322753906px"><rect id="ee-background" x="0" y="0" width="439.34686279296875" height="446.4718322753906" style="fill: white; fill-opacity: 0; pointer-events: none;"/><g transform="matrix(6.732275009155273, 0, 0, 6.732275009155273, -116.94032287597656, -113.81563568115234)"><g><g><g><g><path d="M33.9,27.6c-0.4,0-0.8-0.1-1.1-0.4c-0.6-0.6-0.6-1.5,0-2.1l2.8-2.8c0.6-0.6,1.5-0.6,2.1,0s0.6,1.5,0,2.1L35,27.1      C34.7,27.4,34.3,27.6,33.9,27.6z"/></g><g><g><path d="M68.4,82.5c-0.4,0-0.8-0.1-1.1-0.4L18.3,33c-0.3-0.3-0.4-0.7-0.4-1.1s0.2-0.8,0.4-1.1l13-13c0.6-0.6,1.5-0.6,2.1,0       L82.5,67c0.3,0.3,0.4,0.7,0.4,1.1s-0.2,0.8-0.4,1.1l-13,13C69.2,82.4,68.8,82.5,68.4,82.5z M21.5,32l47,47L79.3,68l-47-47       L21.5,32z"/></g><g><path d="M34.9,33.5c-0.4,0-0.8-0.1-1.1-0.4c-0.6-0.6-0.6-1.5,0-2.1l5.2-5.2c0.6-0.6,1.5-0.6,2.1,0s0.6,1.5,0,2.1L36,33       C35.7,33.3,35.3,33.5,34.9,33.5z"/></g><g><path d="M41.3,35c-0.4,0-0.8-0.1-1.1-0.4c-0.6-0.6-0.6-1.5,0-2.1l2.8-2.8c0.6-0.6,1.5-0.6,2.1,0s0.6,1.5,0,2.1l-2.8,2.8       C42.1,34.9,41.7,35,41.3,35z"/></g><g><path d="M42.3,40.9c-0.4,0-0.8-0.1-1.1-0.4c-0.6-0.6-0.6-1.5,0-2.1l5.2-5.2c0.6-0.6,1.5-0.6,2.1,0s0.6,1.5,0,2.1l-5.2,5.2       C43.1,40.7,42.7,40.9,42.3,40.9z"/></g><g><path d="M48.8,42.4c-0.4,0-0.8-0.1-1.1-0.4c-0.6-0.6-0.6-1.5,0-2.1l2.8-2.8c0.6-0.6,1.5-0.6,2.1,0s0.6,1.5,0,2.1L49.8,42       C49.6,42.3,49.2,42.4,48.8,42.4z"/></g><g><path d="M49.8,48.3c-0.4,0-0.8-0.1-1.1-0.4c-0.6-0.6-0.6-1.5,0-2.1l5.2-5.2c0.6-0.6,1.5-0.6,2.1,0s0.6,1.5,0,2.1l-5.2,5.2       C50.5,48.2,50.2,48.3,49.8,48.3z"/></g><g><path d="M56.2,49.9c-0.4,0-0.8-0.1-1.1-0.4c-0.6-0.6-0.6-1.5,0-2.1l2.8-2.8c0.6-0.6,1.5-0.6,2.1,0s0.6,1.5,0,2.1l-2.8,2.8       C57,49.7,56.6,49.9,56.2,49.9z"/></g><g><path d="M57.2,55.8c-0.4,0-0.8-0.1-1.1-0.4c-0.6-0.6-0.6-1.5,0-2.1l5.2-5.2c0.6-0.6,1.5-0.6,2.1,0s0.6,1.5,0,2.1l-5.2,5.2       C58,55.6,57.6,55.8,57.2,55.8z"/></g><g><path d="M63.7,57.3c-0.4,0-0.8-0.1-1.1-0.4c-0.6-0.6-0.6-1.5,0-2.1l2.8-2.8c0.6-0.6,1.5-0.6,2.1,0s0.6,1.5,0,2.1l-2.8,2.8       C64.4,57.2,64,57.3,63.7,57.3z"/></g><g><path d="M64.7,63.2c-0.4,0-0.8-0.1-1.1-0.4c-0.6-0.6-0.6-1.5,0-2.1l5.2-5.2c0.6-0.6,1.5-0.6,2.1,0s0.6,1.5,0,2.1l-5.2,5.2       C65.4,63.1,65,63.2,64.7,63.2z"/></g><g><path d="M71.1,64.8c-0.4,0-0.8-0.1-1.1-0.4c-0.6-0.6-0.6-1.5,0-2.1l2.8-2.8c0.6-0.6,1.5-0.6,2.1,0s0.6,1.5,0,2.1l-2.8,2.8       C71.9,64.6,71.5,64.8,71.1,64.8z"/></g></g></g><g><path d="M23.6,80.9c-0.4,0-0.8-0.1-1-0.4c-0.4-0.4-0.6-1-0.4-1.5l4.6-14.7c0.1-0.2,0.2-0.4,0.4-0.6L38.5,52     c0.6-0.6,1.5-0.6,2.1,0c0.6,0.6,0.6,1.5,0,2.1L29.5,65.5l-3.6,11.6l11.5-3.9l10.8-11.1c0.6-0.6,1.5-0.6,2.1,0     c0.6,0.6,0.6,1.5,0,2.1L39.3,75.6c-0.2,0.2-0.4,0.3-0.6,0.4l-14.6,4.9C23.9,80.9,23.8,80.9,23.6,80.9z"/></g><g><path d="M63.1,50.6c-0.4,0-0.8-0.1-1-0.4c-0.6-0.6-0.6-1.5,0-2.1l16.4-16.8l-7.9-7.7L54.7,39.8c-0.6,0.6-1.5,0.6-2.1,0     c-0.6-0.6-0.6-1.5,0-2.1l16.9-17.3c0.6-0.6,1.5-0.6,2.1,0l10,9.8c0.3,0.3,0.4,0.7,0.5,1.1c0,0.4-0.1,0.8-0.4,1.1L64.2,50.2     C63.9,50.5,63.5,50.6,63.1,50.6z"/></g><g><path d="M75.1,37.6c-0.4,0-0.8-0.1-1.1-0.4l-9.4-9.4c-0.6-0.6-0.6-1.5,0-2.1c0.6-0.6,1.5-0.6,2.1,0l9.4,9.4     c0.6,0.6,0.6,1.5,0,2.1C75.9,37.5,75.5,37.6,75.1,37.6z"/></g><g><path d="M34.5,76.3c-0.4,0-0.8-0.1-1.1-0.4l-6.2-6.2c-0.6-0.6-0.6-1.5,0-2.1s1.5-0.6,2.1,0l6.2,6.2c0.6,0.6,0.6,1.5,0,2.1     C35.3,76.2,34.9,76.3,34.5,76.3z"/></g></g></g></g></svg>