<svg xmlns="http://www.w3.org/2000/svg" xmlns:xlink="http://www.w3.org/1999/xlink" xmlns:fi="http://pattern.flaticon.com/" x="0" y="0" width="700" height="350" viewBox="0 0 700 350">
    <rect x="0px" y="0px" width="100%" height="100%" opacity="0.2" fill="#000000" />
    <style>path {
        fill: #ffffff;
        opacity: 0.2;
    }
    </style>
    <defs>
        <g transform="matrix(0.08567075431346893 0 0 0.08567075431346893 70.06828689575195 9.068286895751953)" id="L1_0">
            <path d="m296 372c5.519531 0 10-4.480469 10-10s-4.480469-10-10-10-10 4.480469-10 10 4.480469 10 10 10zm0 0" />
            <path d="m482 0h-452c-16.542969 0-30 13.457031-30 30v352c0 16.542969 13.457031 30 30 30h176v10c0 16.542969-13.457031 30-30 30-27.625 0-50 22.375-50 50 0 5.523438 4.476562 10 10 10h240c5.523438 0 10-4.476562 10-10 0-27.621094-22.375-50-50-50-8.007812 0-15.539062-3.121094-21.207031-8.789062-5.671875-5.671876-8.792969-13.203126-8.792969-21.210938v-10h176c16.542969 0 30-13.457031 30-30v-352c0-16.542969-13.457031-30-30-30zm-146 472c13.316406 0 24.277344 8.609375 28.296875 20h-216.59375c4.015625-11.382812 14.976563-20 28.296875-20zm-39.996094-20h-80.03125c6.292969-8.363281 10.027344-18.753906 10.027344-30v-10h60v10c0 10.964844 3.515625 21.390625 10.003906 30zm195.996094-70c0 5.515625-4.484375 10-10 10h-452c-5.515625 0-10-4.484375-10-10v-50h472zm-429-70v-252h386v252zm429 0h-23v-262c0-5.523438-4.476562-10-10-10h-406c-5.523438 0-10 4.476562-10 10v262h-23v-282c0-5.515625 4.484375-10 10-10h452c5.515625 0 10 4.484375 10 10zm0 0" />
            <path d="m176 106h-80c-5.523438 0-10 4.476562-10 10v100c0 5.523438 4.476562 10 10 10h80c5.523438 0 10-4.476562 10-10v-100c0-5.523438-4.476562-10-10-10zm-10 100h-60v-80h60zm0 0" />
            <path d="m296 106h-80c-5.523438 0-10 4.476562-10 10v100c0 5.523438 4.476562 10 10 10h80c5.523438 0 10-4.476562 10-10v-100c0-5.523438-4.476562-10-10-10zm-10 100h-60v-80h60zm0 0" />
            <path d="m416 106h-80c-5.523438 0-10 4.476562-10 10v100c0 5.523438 4.476562 10 10 10h80c5.523438 0 10-4.476562 10-10v-100c0-5.523438-4.476562-10-10-10zm-10 100h-60v-80h60zm0 0" />
            <path d="m176 246h-80c-5.523438 0-10 4.476562-10 10s4.476562 10 10 10h80c5.523438 0 10-4.476562 10-10s-4.476562-10-10-10zm0 0" />
            <path d="m296 246h-80c-5.523438 0-10 4.476562-10 10s4.476562 10 10 10h80c5.523438 0 10-4.476562 10-10s-4.476562-10-10-10zm0 0" />
            <path d="m416 246h-80c-5.523438 0-10 4.476562-10 10s4.476562 10 10 10h80c5.523438 0 10-4.476562 10-10s-4.476562-10-10-10zm0 0" />
            <path d="m216 372h40c5.523438 0 10-4.476562 10-10s-4.476562-10-10-10h-40c-5.523438 0-10 4.476562-10 10s4.476562 10 10 10zm0 0" />
        </g>
        <g transform="matrix(0.0826428861667763 -0.008549264330196295 0.008549264330196295 0.0826428861667763 153.79159770205814 105.47931898850393)" id="L1_3">
            <path d="m256 160c-5.519531 0-10 4.480469-10 10s4.480469 10 10 10 10-4.480469 10-10-4.480469-10-10-10zm0 0" />
            <path d="m256 420c-5.519531 0-10 4.480469-10 10s4.480469 10 10 10 10-4.480469 10-10-4.480469-10-10-10zm0 0" />
            <path d="m60 180h80c5.523438 0 10-4.476562 10-10v-20c0-17.210938-8.636719-32.363281-22.027344-41.445312 7.414063-7.265626 12.027344-17.378907 12.027344-28.554688 0-22.054688-17.945312-40-40-40s-40 17.945312-40 40c0 11.183594 4.617188 21.300781 12.039062 28.566406-13.289062 8.996094-22.039062 24.210938-22.039062 41.433594v20c0 5.523438 4.476562 10 10 10zm40-120c11.027344 0 20 8.972656 20 20s-8.972656 20-20 20-20-8.972656-20-20 8.972656-20 20-20zm-30 90c0-16.542969 13.457031-30 30-30 16.570312 0 30 13.429688 30 30v10h-60zm0 0" />
            <path d="m296 90c0-16.542969-13.457031-30-30-30s-30 13.457031-30 30 13.457031 30 30 30 30-13.457031 30-30zm-30 10c-5.515625 0-10-4.484375-10-10s4.484375-10 10-10 10 4.484375 10 10-4.484375 10-10 10zm0 0" />
            <path d="m346 120c16.542969 0 30-13.457031 30-30s-13.457031-30-30-30-30 13.457031-30 30 13.457031 30 30 30zm0-40c5.515625 0 10 4.484375 10 10s-4.484375 10-10 10-10-4.484375-10-10 4.484375-10 10-10zm0 0" />
            <path d="m426 60c-16.542969 0-30 13.457031-30 30s13.457031 30 30 30 30-13.457031 30-30-13.457031-30-30-30zm0 40c-5.515625 0-10-4.484375-10-10s4.484375-10 10-10 10 4.484375 10 10-4.484375 10-10 10zm0 0" />
            <path d="m60 440h80c5.523438 0 10-4.476562 10-10v-60c0-5.523438-4.476562-10-10-10v-20c0-22.097656-17.898438-40-40-40-22.054688 0-40 17.945312-40 40v20c-5.523438 0-10 4.476562-10 10v60c0 5.523438 4.476562 10 10 10zm20-100c0-11.027344 8.972656-20 20-20 11.046875 0 20 8.953125 20 20v20h-40zm-10 40h60v40h-60zm0 0" />
            <path d="m296 350c0-16.542969-13.457031-30-30-30s-30 13.457031-30 30 13.457031 30 30 30 30-13.457031 30-30zm-30 10c-5.515625 0-10-4.484375-10-10s4.484375-10 10-10 10 4.484375 10 10-4.484375 10-10 10zm0 0" />
            <path d="m346 380c16.542969 0 30-13.457031 30-30s-13.457031-30-30-30-30 13.457031-30 30 13.457031 30 30 30zm0-40c5.515625 0 10 4.484375 10 10s-4.484375 10-10 10-10-4.484375-10-10 4.484375-10 10-10zm0 0" />
            <path d="m436 420h-140c-5.523438 0-10 4.476562-10 10s4.476562 10 10 10h140c5.523438 0 10-4.476562 10-10s-4.476562-10-10-10zm0 0" />
            <path d="m436 160h-140c-5.523438 0-10 4.476562-10 10s4.476562 10 10 10h140c5.523438 0 10-4.476562 10-10s-4.476562-10-10-10zm0 0" />
            <path d="m482 0h-452c-16.542969 0-30 13.457031-30 30v160c0 16.542969 13.457031 30 30 30h452c16.542969 0 30-13.457031 30-30v-160c0-16.542969-13.457031-30-30-30zm-302 200h-150c-5.515625 0-10-4.484375-10-10v-160c0-5.515625 4.484375-10 10-10h150zm312-10c0 5.515625-4.484375 10-10 10h-282v-180h282c5.515625 0 10 4.484375 10 10zm0 0" />
            <path d="m482 260h-452c-16.542969 0-30 13.457031-30 30v160c0 16.542969 13.457031 30 30 30h452c16.542969 0 30-13.457031 30-30v-160c0-16.542969-13.457031-30-30-30zm-302 200h-150c-5.515625 0-10-4.484375-10-10v-160c0-5.515625 4.484375-10 10-10h150zm312-10c0 5.515625-4.484375 10-10 10h-282v-180h282c5.515625 0 10 4.484375 10 10zm0 0" />
        </g>
        <g transform="matrix(0.09667475528772825 0.013810678988390078 -0.013810678988390078 0.09667475528772825 -17.213203532630573 273.7157288253137)" id="L1_5">
            <path d="m302 40c-5.519531 0-10 4.480469-10 10s4.480469 10 10 10 10-4.480469 10-10-4.480469-10-10-10zm0 0" />
            <path d="m382 40h-40c-5.523438 0-10 4.476562-10 10s4.476562 10 10 10h40c5.523438 0 10-4.476562 10-10s-4.476562-10-10-10zm0 0" />
            <path d="m462 40h-40c-5.523438 0-10 4.476562-10 10s4.476562 10 10 10h40c5.523438 0 10-4.476562 10-10s-4.476562-10-10-10zm0 0" />
            <path d="m482 0h-452c-16.542969 0-30 13.457031-30 30v452c0 16.542969 13.457031 30 30 30h452c16.542969 0 30-13.457031 30-30v-452c0-16.542969-13.457031-30-30-30zm10 482c0 5.515625-4.484375 10-10 10h-452c-5.515625 0-10-4.484375-10-10v-382h472zm0-402h-472v-50c0-5.515625 4.484375-10 10-10h452c5.515625 0 10 4.484375 10 10zm0 0" />
            <path d="m76 226h360c5.523438 0 10-4.476562 10-10v-60c0-5.523438-4.476562-10-10-10h-360c-5.523438 0-10 4.476562-10 10v60c0 5.523438 4.476562 10 10 10zm10-60h340v40h-340zm0 0" />
            <path d="m76 449h120c5.523438 0 10-4.476562 10-10v-160c0-5.523438-4.476562-10-10-10h-120c-5.523438 0-10 4.476562-10 10v160c0 5.523438 4.476562 10 10 10zm10-160h100v140h-100zm0 0" />
            <path d="m436 269h-180c-.097656 0-.191406.011719-.289062.015625-5.488282.15625-9.710938 4.683594-9.710938 9.984375v160c0 .058594.007812.117188.007812.175781.097657 5.519531 4.628907 9.824219 9.992188 9.824219h180c5.390625 0 9.894531-4.320312 9.992188-9.824219 0-.058593.007812-.117187.007812-.175781v-160c0-5.460938-4.453125-10-10-10zm-26.300781 20-63.699219 56.621094-63.699219-56.621094zm-143.699219 12.269531 64.949219 57.730469-64.949219 57.730469zm16.300781 127.730469 63.699219-56.621094 63.699219 56.621094zm143.699219-12.269531-64.949219-57.730469 64.949219-57.730469zm0 0" />
        </g>
        <g transform="matrix(0.08155599981546402 0 0 0.08155599981546402 164.76968684623716 283.12163734436035)" id="L1_8">
            <path d="m189.992188 99.996094c5.519531 0 10-4.480469 10-10 0-5.519532-4.480469-10-10-10-5.519532 0-10 4.480468-10 10 0 5.519531 4.480468 10 10 10zm0 0" />
            <path d="m173.351562 506.9375c5.054688 3.375 10.847657 5.0625 16.644532 5.0625 5.789062 0 11.582031-1.6875 16.632812-5.058594l88.757813-59.167968c52.972656-35.316407 84.597656-94.414063 84.597656-158.085938v-239.6875c0-4.6875-3.253906-8.746094-7.828125-9.761719l-179.996094-40c-1.425781-.316406-2.910156-.316406-4.335937 0l-179.996094 40c-4.574219 1.015625-7.828125 5.074219-7.828125 9.761719v239.6875c0 63.671875 31.625 122.769531 84.601562 158.085938zm-153.351562-217.246094v-231.671875l169.992188-37.773437 169.992187 37.773437v231.671875c0 56.96875-28.296875 109.84375-75.691406 141.441406l-88.765625 59.171876c-3.363282 2.246093-7.707032 2.246093-11.078125-.003907l-88.757813-59.167969c-47.394531-31.597656-75.691406-84.472656-75.691406-141.441406zm0 0" />
            <path d="m184.445312 466.253906c1.679688 1.121094 3.613282 1.679688 5.546876 1.679688 1.933593 0 3.867187-.558594 5.546874-1.679688l77.65625-51.757812c41.824219-27.863282 66.792969-74.515625 66.792969-124.796875v-207.613281c0-4.683594-3.257812-8.742188-7.832031-9.761719l-139.996094-31.105469c-1.425781-.320312-2.90625-.320312-4.335937 0l-139.996094 31.105469c-4.574219 1.019531-7.828125 5.078125-7.828125 9.761719v207.613281c0 50.277343 24.96875 96.933593 66.792969 124.796875zm-124.449218-176.554687v-199.589844l129.996094-28.886719 129.996093 28.886719v199.589844c0 43.574219-21.640625 84.007812-57.882812 108.15625l-72.113281 48.058593-72.109376-48.058593s-.003906 0-.003906-.003907c-36.242187-24.144531-57.882812-64.578124-57.882812-108.152343zm0 0" />
            <path d="m226.410156 110.289062c64.53125 14.253907 61.558594 13.886719 63.585938 13.886719 4.585937 0 8.71875-3.171875 9.753906-7.828125 1.199219-5.394531-2.203125-10.734375-7.59375-11.933594l-61.40625-13.648437c-5.394531-1.195313-10.730469 2.203125-11.929688 7.59375-1.199218 5.390625 2.199219 10.730469 7.589844 11.929687zm0 0" />
            <path d="m129.996094 345.988281h119.996094c5.519531 0 9.996093-4.480469 9.996093-10v-119.996093c0-5.523438-4.476562-10-9.996093-10h-10v-10c0-27.621094-22.375-49.996094-50-49.996094-27.566407 0-49.996094 22.429687-49.996094 49.996094v10h-10c-5.523438 0-10 4.476562-10 10v119.996093c0 5.523438 4.476562 10 10 10zm29.996094-149.996093c0-16.539063 13.460937-30 30-30 16.566406 0 30 13.429687 30 30v10h-60zm-19.996094 30h99.996094v99.996093h-99.996094zm0 0" />
            <path d="m189.992188 245.992188c-5.523438 0-10 4.476562-10 10v39.996093c0 5.523438 4.476562 10 10 10 5.523437 0 10-4.476562 10-10v-39.996093c0-5.523438-4.476563-10-10-10zm0 0" />
        </g>
        <g transform="matrix(0.074577670420229 0.01933495189441998 -0.01933495189441998 0.074577670420229 79.85781065163117 193.95831528168816)" id="L1_9">
            <path d="m369.589844 85.828125c-3.898438-3.910156-10.230469-3.910156-14.140625 0-3.902344 3.902344-3.902344 10.234375 0 14.144531.109375.109375.230469.21875.339843.328125 3.929688 3.582031 10.011719 3.472657 13.800782-.328125 3.722656-3.722656 3.902344-9.640625.53125-13.5625-.160156-.199218-.339844-.390625-.53125-.582031zm0 0" />
            <path d="m482.753906 29.25c-39-39-102.449218-39-141.449218 0l-78.234376 78.230469c-28.222656 28.226562-36.804687 70.527343-22.390624 107.265625l-25.929688 25.933594c-36.742188-14.414063-79.042969-5.832032-107.265625 22.390624l-78.238281 78.234376c-38.996094 38.996093-38.996094 102.449218 0 141.449218 39 38.996094 102.449218 38.996094 141.449218 0l78.234376-78.234375c28.226562-28.226562 36.804687-70.527343 22.390624-107.265625l25.929688-25.929687c37.035156 14.527343 79.25 5.625 107.265625-22.394531l78.238281-78.234376c38.996094-38.996093 38.996094-102.449218 0-141.445312zm-247.96875 361.125-78.234375 78.230469c-31.269531 31.273437-81.882812 31.277343-113.15625 0-31.273437-31.269531-31.277343-81.878907 0-113.15625l78.234375-78.234375c20.425782-20.429688 50.070313-27.988282 77.296875-20.710938l-27.8125 27.8125c-10.675781 1.519532-20.597656 6.441406-28.273437 14.121094l-78.222656 78.230469c-19.523438 19.511719-19.527344 51.203125-.003907 70.714843 19.511719 19.523438 51.203125 19.53125 70.71875.003907l78.234375-78.222657c7.675782-7.679687 12.601563-17.601562 14.117188-28.273437l27.816406-27.8125c7.273438 27.226563-.285156 56.867187-20.714844 77.296875zm-77.796875-35.371094c8.027344 8.035156 19.019531 12.355469 30.820313 11.625l-66.625 66.613282c-11.695313 11.703124-30.722656 11.707031-42.425782-.003907-11.699218-11.691406-11.707031-30.71875.003907-42.421875l66.613281-66.625c-.738281 11.886719 3.648438 22.855469 11.613281 30.8125zm54.054688-25.761718-11.625 11.621093c-7.78125 7.785157-20.464844 7.824219-28.285157-.003906-7.800781-7.789063-7.800781-20.476563.003907-28.277344l141.445312-141.445312c7.78125-7.78125 20.464844-7.824219 28.285157.003906 7.800781 7.792969 7.800781 20.476563-.003907 28.277344zm179.332031-94.457032c-20.429688 20.425782-50.070312 27.988282-77.296875 20.710938l27.8125-27.8125c10.667969-1.515625 20.585937-6.4375 28.261719-14.109375.003906-.003907.007812-.007813.007812-.011719l78.222656-78.230469c19.519532-19.507812 19.53125-51.199219.003907-70.714843-16.128907-16.140626-41.125-19.3125-60.785157-7.714844-4.757812 2.804687-6.335937 8.9375-3.53125 13.695312 2.808594 4.757813 8.941407 6.339844 13.695313 3.535156 11.796875-6.960937 26.796875-5.058593 36.476563 4.628907 11.703124 11.695312 11.707031 30.722656 0 42.425781l-66.613282 66.621094c.734375-11.882813-3.648437-22.851563-11.617187-30.8125-7.542969-7.550782-17.585938-11.710938-28.285157-11.710938-.847656 0-1.691406.039063-2.53125.089844l17.113282-17.113281c3.90625-3.90625 3.90625-10.238281 0-14.144531s-10.238282-3.90625-14.144532 0l-28.726562 28.722656c-7.679688 7.679687-12.601562 17.601562-14.121094 28.273437l-27.8125 27.8125c-7.277344-27.226562.285156-56.871093 20.710938-77.296875l78.234375-78.234375c31.269531-31.269531 81.882812-31.277343 113.160156 0 31.269531 31.273438 31.273437 81.882813 0 113.160157zm0 0" />
            <path d="m164.066406 164.0625c3.902344-3.902344 3.902344-10.238281 0-14.144531l-42.4375-42.4375c-3.90625-3.90625-10.242187-3.90625-14.148437 0s-3.90625 10.238281 0 14.144531l42.4375 42.4375c3.90625 3.90625 10.242187 3.910156 14.148437 0zm0 0" />
            <path d="m53.335938 206.992188c0 5.523437 4.476562 10 10 10h60.011718c5.523438 0 10-4.476563 10-10 0-5.523438-4.476562-10.003907-10-10.003907h-60.011718c-5.523438 0-10 4.480469-10 10.003907zm0 0" />
            <path d="m216.992188 123.347656v-60.011718c0-5.523438-4.476563-10.003907-10-10.003907-5.523438 0-10.003907 4.480469-10.003907 10.003907v60.011718c0 5.523438 4.480469 10 10.003907 10 5.523437 0 10-4.476562 10-10zm0 0" />
            <path d="m347.9375 347.933594c-3.90625 3.90625-3.90625 10.242187 0 14.148437l42.4375 42.4375c3.90625 3.90625 10.238281 3.90625 14.144531 0s3.90625-10.238281 0-14.144531l-42.4375-42.441406c-3.90625-3.902344-10.242187-3.902344-14.144531 0zm0 0" />
            <path d="m296.007812 388.652344v60.011718c0 5.523438 4.476563 10.003907 10 10.003907 5.527344 0 10.003907-4.480469 10.003907-10.003907v-60.011718c0-5.523438-4.476563-10-10.003907-10-5.523437 0-10 4.476562-10 10zm0 0" />
            <path d="m458.667969 306.007812c0-5.523437-4.480469-10-10.003907-10h-60.007812c-5.527344 0-10.003906 4.476563-10.003906 10 0 5.523438 4.476562 10.003907 10.003906 10.003907h60.007812c5.523438 0 10.003907-4.480469 10.003907-10.003907zm0 0" />
        </g>
        <g transform="matrix(0.08722089231014252 0 0 0.08722089231014252 248.67140769958496 8.892280355095863)" id="L1_10">
            <path d="m196 240c5.519531 0 10-4.480469 10-10 0-5.488281-4.453125-10-10-10-5.519531 0-10 4.480469-10 10 0 5.550781 4.496094 10 10 10zm0 0" />
            <path d="m256 420c61.785156 0 110-50.117188 110-110 0-60.652344-49.347656-110-110-110-8.6875 0-17.394531.992188-26.226562 3.144531-5.367188 1.308594-8.65625 6.71875-7.347657 12.082031 1.308594 5.367188 6.71875 8.660157 12.082031 7.347657 6.902344-1.679688 14.53125-2.574219 21.492188-2.574219 49.625 0 90 40.375 90 90 0 50.960938-41.390625 90-90 90-49.625 0-90-40.375-90-90 0-15.253906 3.867188-30.820312 12.105469-45.117188 2.753906-4.785156 1.113281-10.902343-3.671875-13.65625-4.789063-2.761718-10.902344-1.113281-13.660156 3.671876-4.707032 8.171874-8.515626 16.941406-11.296876 27.542968-.347656 1.867188-3.476562 12.277344-3.476562 27.558594 0 60.65625 49.347656 110 110 110zm-108.273438-129.523438c.007813-.03125.015626-.058593.019532-.089843-.003906.023437-.011719.0625-.019532.089843zm0 0" />
            <path d="m236.875 357.683594c4.117188 3.203125 8.371094 6.519531 12.878906 10.125 1.824219 1.460937 4.035156 2.191406 6.246094 2.191406s4.421875-.730469 6.246094-2.191406c4.5-3.597656 8.746094-6.90625 12.855468-10.105469 7.234376-5.640625 13.480469-10.507813 18.964844-15.28125 11.394532-9.917969 21.933594-21.3125 21.933594-37.371094 0-19.65625-15.375-35.050781-35-35.050781-11.074219 0-19.285156 4.804688-25 10.816406-5.714844-6.011718-13.921875-10.816406-25-10.816406-19.625 0-35 15.394531-35 35.050781 0 20.785157 17.144531 34.144531 40.875 52.632813zm-5.875-67.683594c10.996094 0 15.023438 11.628906 15.421875 12.875 1.269531 4.230469 5.164063 7.125 9.578125 7.125 4.417969 0 8.308594-2.894531 9.578125-7.125.039063-.128906 3.992187-12.875 15.421875-12.875 9.847656 0 15 7.570312 15 15.050781 0 6.597657-4.226562 12.847657-15.066406 22.289063-5.070313 4.414062-11.121094 9.128906-18.125 14.585937-2.222656 1.730469-4.480469 3.492188-6.808594 5.316407-2.332031-1.832032-4.605469-3.601563-6.832031-5.335938-21.792969-16.980469-33.167969-26.332031-33.167969-36.855469 0-7.480469 5.152344-15.050781 15-15.050781zm0 0" />
            <path d="m17.140625 256.902344c26.898437-27.421875 123.621094-116.902344 238.859375-116.902344 115.234375 0 211.960938 89.480469 238.859375 116.902344 3.855469 3.929687 10.1875 4.015625 14.144531.136718 3.941406-3.867187 4.003906-10.199218.136719-14.140624-28.28125-28.832032-130.113281-122.898438-253.140625-122.898438s-224.859375 94.066406-253.140625 122.898438c-3.863281 3.941406-3.804687 10.273437.140625 14.140624 3.9375 3.867188 10.269531 3.804688 14.140625-.136718zm0 0" />
            <path d="m77.148438 387.890625c51.617187 40.207031 113.949218 72.109375 178.851562 72.109375 64.898438 0 127.230469-31.902344 178.851562-72.109375 45.3125-35.300781 73.730469-70.128906 74.917969-71.59375 2.976563-3.671875 2.976563-8.921875 0-12.59375-1.1875-1.464844-29.601562-36.292969-74.917969-71.589844-51.617187-40.207031-113.949218-72.113281-178.851562-72.113281s-127.238281 31.90625-178.851562 72.113281c-45.3125 35.296875-73.730469 70.125-74.917969 71.589844-2.972657 3.671875-2.972657 8.921875 0 12.59375 1.1875 1.464844 29.605469 36.292969 74.917969 71.59375zm12.644531-140.273437c39.675781-30.847657 100.71875-67.617188 166.207031-67.617188 65.492188 0 126.535156 36.769531 166.210938 67.617188 32.523437 25.285156 56.441406 50.871093 66.617187 62.382812-10.175781 11.511719-34.09375 37.097656-66.617187 62.382812-39.675782 30.847657-100.71875 67.617188-166.210938 67.617188-65.488281 0-126.53125-36.769531-166.207031-67.617188-32.53125-25.289062-56.449219-50.871093-66.621094-62.382812 10.171875-11.511719 34.09375-37.097656 66.621094-62.382812zm0 0" />
            <path d="m256 80c5.523438 0 10-4.476562 10-10v-60c0-5.523438-4.476562-10-10-10s-10 4.476562-10 10v60c0 5.523438 4.476562 10 10 10zm0 0" />
            <path d="m132.339844 105.808594c2.777344 4.808594 8.902344 6.410156 13.660156 3.660156 4.785156-2.757812 6.421875-8.875 3.660156-13.660156l-30-51.957032c-2.761718-4.785156-8.878906-6.421874-13.660156-3.660156-4.78125 2.761719-6.421875 8.875-3.660156 13.660156zm0 0" />
            <path d="m366 109.46875c4.765625 2.753906 10.890625 1.140625 13.660156-3.660156l30-51.957032c2.761719-4.785156 1.125-10.898437-3.660156-13.660156-4.785156-2.761718-10.898438-1.125-13.660156 3.660156l-30 51.957032c-2.761719 4.785156-1.121094 10.902344 3.660156 13.660156zm0 0" />
        </g>
        <g transform="matrix(0.14774700267966628 -0.02308546904420669 0.02308546904420669 0.14774700267966628 240.3207953003277 195.60885919109307)" id="L1_17">
            <path d="M294,0H65.2c-3.6,0-6.8,3.2-6.8,6.8v345.6c0,3.6,3.2,6.8,6.8,6.8H294c3.6,0,6.8-3.2,6.8-6.8V6.8    C300.8,3.2,297.6,0,294,0z M72,13.6h215.2v43.6H72V13.6z M72,70.8h215.2v217.6H72V70.8z M72,345.6V302h215.2v43.6H72z" fill="#231f20" />
            <path d="M200,306h-40.8c-9.6,0-17.2,7.6-17.2,17.2s7.6,17.2,17.2,17.2h40.4c9.6,0,17.2-7.6,17.2-17.2    C217.2,313.6,209.6,306,200,306z M200,328h-40.8c-2.4,0-4.8-2-4.8-4.8c0-2.4,2-4.8,4.8-4.8h40.4c2.4,0,4.8,2,4.8,4.8    C204.4,325.6,202.4,328,200,328z" fill="#231f20" />
            <path d="M238.4,148.8l-36-5.2l-16-32.8c-1.2-2.4-4-3.6-6.8-3.6c-2.8-0.4-5.6,0.8-6.8,3.6l-16,32.8l-36,5.2    c-2.8,0.4-4.8,2.4-5.6,4.8c-0.8,2.4-0.4,4.8,1.6,6.8l26,25.6l-6,36c-0.4,2.8,0.8,5.2,2.8,6.8c1.2,0.8,2.4,1.2,4,1.2    c1.2,0,2.4-0.4,3.2-0.8l32.4-16.8l0.4,0.4l0.4-0.4l32.4,16.8c0.8,0.4,2,0.8,3.2,0.8c1.6,0,2.8-0.4,4-1.2c2-1.6,3.2-4,2.8-6.8    l-6-36l26-25.6c2-2,2.4-4.4,1.6-6.8C243.2,151.2,241.2,149.2,238.4,148.8z M203.6,178.4c-1.6,1.6-2.4,4-2,6l4.4,26L182.8,198    c-0.8-0.4-2-0.8-3.2-0.8s-2.4,0.4-3.2,0.8l-23.2,12.4l4.4-26c0.4-2-0.4-4.4-2-6L136.8,160l26-3.6c2.4,0,4.4-1.6,5.2-3.6l11.6-23.6    l11.6,23.6c0.8,2,2.8,3.6,5.2,3.6l26,3.6L203.6,178.4z" fill="#231f20" />
        </g>
        <g transform="matrix(0.15852686966013413 -0.030824669505416184 0.030824669505416184 0.15852686966013413 -14.346378718997336 97.17921481440976)" id="L1_18">
            <path d="M147.2,239.2c0.4,0,0.8,0,1.6,0c1.6,0,3.2-0.4,4.4-1.6l62-50.8c2.8-2.4,3.2-6.8,0.8-9.6     c-2-2.8-6.4-3.2-9.2-0.8l-56,45.6l-15.2-30.8c-1.6-3.2-5.6-4.8-9.2-3.2c-3.2,1.6-4.8,5.6-3.2,9.2l19.2,38.4     C143.2,237.6,145.2,238.8,147.2,239.2z" fill="#231f20" />
            <path d="M334.8,20.8H6.8C3.2,20.8,0,24,0,27.6v286c0,4,3.2,7.2,6.8,7.2h328c3.6,0,6.8-3.2,6.8-6.8V27.6     C341.6,24,338.4,20.8,334.8,20.8z M327.6,307.2h-314v0V101.6h314V307.2z M328,87.6H13.6V34.4H328V87.6z" fill="#231f20" />
            <path d="M218.8,65.2h31.6c3.6,0,6.8-3.2,6.8-6.8c0-3.6-3.2-6.8-6.8-6.8h-31.6c-3.6,0-6.8,3.2-6.8,6.8     C212,62.4,215.2,65.2,218.8,65.2z" fill="#231f20" />
            <path d="M269.6,65.2h31.6c3.6,0,6.8-3.2,6.8-6.8c0-3.6-3.2-6.8-6.8-6.8h-31.6c-3.6,0-6.8,3.2-6.8,6.8     C262.8,62.4,265.6,65.2,269.6,65.2z" fill="#231f20" />
            <path d="M170.8,278.4c41.2,0,74.8-33.6,74.8-74.8c0-41.2-33.6-74.8-74.8-74.8S96,162.4,96,203.6     S129.6,278.4,170.8,278.4z M170.8,142.4c33.6,0,61.2,27.6,61.2,61.2s-27.6,61.2-61.2,61.2c-33.6,0-61.2-27.6-61.2-61.2     C109.6,170,137.2,142.4,170.8,142.4z" fill="#231f20" />
        </g>
    </defs>
    <g fi:class="KUsePattern">
        <pattern id="pattern_L1_0" width="350" height="350" patternUnits="userSpaceOnUse">
            <use xlink:href="#L1_0" x="-350" y="-350" />
            <use xlink:href="#L1_0" x="0" y="-350" />
            <use xlink:href="#L1_0" x="350" y="-350" />
            <use xlink:href="#L1_0" x="-350" y="0" />
            <use xlink:href="#L1_0" x="0" y="0" />
            <use xlink:href="#L1_0" x="350" y="0" />
            <use xlink:href="#L1_0" x="-350" y="350" />
            <use xlink:href="#L1_0" x="0" y="350" />
            <use xlink:href="#L1_0" x="350" y="350" />
        </pattern>
        <rect x="0" y="0" width="100%" height="100%" fill="url(#pattern_L1_0)" />
    </g>
    <g fi:class="KUsePattern">
        <pattern id="pattern_L1_3" width="350" height="350" patternUnits="userSpaceOnUse">
            <use xlink:href="#L1_3" x="-350" y="-350" />
            <use xlink:href="#L1_3" x="0" y="-350" />
            <use xlink:href="#L1_3" x="350" y="-350" />
            <use xlink:href="#L1_3" x="-350" y="0" />
            <use xlink:href="#L1_3" x="0" y="0" />
            <use xlink:href="#L1_3" x="350" y="0" />
            <use xlink:href="#L1_3" x="-350" y="350" />
            <use xlink:href="#L1_3" x="0" y="350" />
            <use xlink:href="#L1_3" x="350" y="350" />
        </pattern>
        <rect x="0" y="0" width="100%" height="100%" fill="url(#pattern_L1_3)" />
    </g>
    <g fi:class="KUsePattern">
        <pattern id="pattern_L1_5" width="350" height="350" patternUnits="userSpaceOnUse">
            <use xlink:href="#L1_5" x="-350" y="-350" />
            <use xlink:href="#L1_5" x="0" y="-350" />
            <use xlink:href="#L1_5" x="350" y="-350" />
            <use xlink:href="#L1_5" x="-350" y="0" />
            <use xlink:href="#L1_5" x="0" y="0" />
            <use xlink:href="#L1_5" x="350" y="0" />
            <use xlink:href="#L1_5" x="-350" y="350" />
            <use xlink:href="#L1_5" x="0" y="350" />
            <use xlink:href="#L1_5" x="350" y="350" />
        </pattern>
        <rect x="0" y="0" width="100%" height="100%" fill="url(#pattern_L1_5)" />
    </g>
    <g fi:class="KUsePattern">
        <pattern id="pattern_L1_8" width="350" height="350" patternUnits="userSpaceOnUse">
            <use xlink:href="#L1_8" x="-350" y="-350" />
            <use xlink:href="#L1_8" x="0" y="-350" />
            <use xlink:href="#L1_8" x="350" y="-350" />
            <use xlink:href="#L1_8" x="-350" y="0" />
            <use xlink:href="#L1_8" x="0" y="0" />
            <use xlink:href="#L1_8" x="350" y="0" />
            <use xlink:href="#L1_8" x="-350" y="350" />
            <use xlink:href="#L1_8" x="0" y="350" />
            <use xlink:href="#L1_8" x="350" y="350" />
        </pattern>
        <rect x="0" y="0" width="100%" height="100%" fill="url(#pattern_L1_8)" />
    </g>
    <g fi:class="KUsePattern">
        <pattern id="pattern_L1_9" width="350" height="350" patternUnits="userSpaceOnUse">
            <use xlink:href="#L1_9" x="-350" y="-350" />
            <use xlink:href="#L1_9" x="0" y="-350" />
            <use xlink:href="#L1_9" x="350" y="-350" />
            <use xlink:href="#L1_9" x="-350" y="0" />
            <use xlink:href="#L1_9" x="0" y="0" />
            <use xlink:href="#L1_9" x="350" y="0" />
            <use xlink:href="#L1_9" x="-350" y="350" />
            <use xlink:href="#L1_9" x="0" y="350" />
            <use xlink:href="#L1_9" x="350" y="350" />
        </pattern>
        <rect x="0" y="0" width="100%" height="100%" fill="url(#pattern_L1_9)" />
    </g>
    <g fi:class="KUsePattern">
        <pattern id="pattern_L1_10" width="350" height="350" patternUnits="userSpaceOnUse">
            <use xlink:href="#L1_10" x="-350" y="-350" />
            <use xlink:href="#L1_10" x="0" y="-350" />
            <use xlink:href="#L1_10" x="350" y="-350" />
            <use xlink:href="#L1_10" x="-350" y="0" />
            <use xlink:href="#L1_10" x="0" y="0" />
            <use xlink:href="#L1_10" x="350" y="0" />
            <use xlink:href="#L1_10" x="-350" y="350" />
            <use xlink:href="#L1_10" x="0" y="350" />
            <use xlink:href="#L1_10" x="350" y="350" />
        </pattern>
        <rect x="0" y="0" width="100%" height="100%" fill="url(#pattern_L1_10)" />
    </g>
    <g fi:class="KUsePattern">
        <pattern id="pattern_L1_17" width="350" height="350" patternUnits="userSpaceOnUse">
            <use xlink:href="#L1_17" x="-350" y="-350" />
            <use xlink:href="#L1_17" x="0" y="-350" />
            <use xlink:href="#L1_17" x="350" y="-350" />
            <use xlink:href="#L1_17" x="-350" y="0" />
            <use xlink:href="#L1_17" x="0" y="0" />
            <use xlink:href="#L1_17" x="350" y="0" />
            <use xlink:href="#L1_17" x="-350" y="350" />
            <use xlink:href="#L1_17" x="0" y="350" />
            <use xlink:href="#L1_17" x="350" y="350" />
        </pattern>
        <rect x="0" y="0" width="100%" height="100%" fill="url(#pattern_L1_17)" />
    </g>
    <g fi:class="KUsePattern">
        <pattern id="pattern_L1_18" width="350" height="350" patternUnits="userSpaceOnUse">
            <use xlink:href="#L1_18" x="-350" y="-350" />
            <use xlink:href="#L1_18" x="0" y="-350" />
            <use xlink:href="#L1_18" x="350" y="-350" />
            <use xlink:href="#L1_18" x="-350" y="0" />
            <use xlink:href="#L1_18" x="0" y="0" />
            <use xlink:href="#L1_18" x="350" y="0" />
            <use xlink:href="#L1_18" x="-350" y="350" />
            <use xlink:href="#L1_18" x="0" y="350" />
            <use xlink:href="#L1_18" x="350" y="350" />
        </pattern>
        <rect x="0" y="0" width="100%" height="100%" fill="url(#pattern_L1_18)" />
    </g>
</svg>