<?xml version="1.0" encoding="UTF-8"?>
<svg width="506px" height="428px" viewBox="0 0 506 428" version="1.1" xmlns="http://www.w3.org/2000/svg" xmlns:xlink="http://www.w3.org/1999/xlink">
    <!-- Generator: Sketch 62 (91390) - https://sketch.com -->
    <title>quote</title>
    <desc>Created with Sketch.</desc>
    <defs>
        <linearGradient x1="0%" y1="14.2269054%" x2="100%" y2="85.7730946%" id="linearGradient-1">
            <stop stop-color="#D552FF" offset="0%"></stop>
            <stop stop-color="#02C39D" offset="100%"></stop>
        </linearGradient>
    </defs>
    <g id="Page-1" stroke="none" stroke-width="1" fill="none" fill-rule="evenodd" opacity="0.200000003">
        <g id="quote" fill="url(#linearGradient-1)" fill-rule="nonzero">
            <g id="page">
                <g id="main">
                    <path d="M348.382353,419.06099 L327.823529,397.60735 C318.229412,386.16541 320.970588,373.29323 329.194118,366.14202 C344.270588,354.70008 425.135294,291.76942 426.505882,194.51295 C426.505882,194.51295 403.205882,204.52464 371.682353,204.52464 C318.229412,204.52464 273,160.18713 273,102.97744 C273,47.19799 318.229412,0 381.276471,0 C433.358824,0 506,41.47703 506,165.9081 C506,316.08354 410.058824,394.74687 378.535294,421.92147 C368.941176,429.07268 359.347059,431.93317 348.382353,419.06099 Z M75.382353,419.06099 L54.8235294,397.60735 C45.2294118,386.16541 47.9705882,373.29323 56.1941176,366.14202 C71.270588,354.70008 152.135294,291.76942 153.505882,194.51295 C153.505882,194.51295 130.205882,204.52464 98.682353,204.52464 C45.2294118,204.52464 0,160.18713 0,102.97744 C0,47.19799 45.2294118,0 108.276471,0 C160.358824,0 233,41.47703 233,165.9081 C233,316.08354 137.058824,394.74687 105.535294,421.92147 C95.941176,429.07268 86.347059,431.93317 75.382353,419.06099 Z" id="quote"></path>
                </g>
            </g>
        </g>
    </g>
</svg>