<svg viewBox="0 0 24 24" style="enable-background:new 0 0 24 24;" xml:space="preserve">
    <path fill="#ffffff" d="M12,0L12,0C7.3,0,3.5,3.9,3.5,8.7c0,1.7,0.5,3.3,1.4,4.7c1.7,2.9,6.3,9.9,6.5,10.2c0.2,0.4,0.7,0.5,1.1,0.2
                                       c0.1-0.1,0.2-0.1,0.2-0.2c0.2-0.3,4.8-7.3,6.5-10.2c0.9-1.4,1.3-3.1,1.3-4.7C20.5,3.9,16.7,0,12,0z M17.8,12.6
                                       c-1.3,2.2-4.4,7-5.8,9.1c-1.4-2.1-4.5-6.9-5.8-9.1c-0.7-1.2-1.1-2.5-1.1-3.9c0-3.9,3.1-7.1,6.9-7.1c3.8,0,6.9,3.2,6.9,7.1
                                       C18.9,10.1,18.5,11.5,17.8,12.6z M12,4.3c-2.3,0-4.2,2-4.2,4.4c0,2.4,1.9,4.4,4.2,4.4c2.3,0,4.2-2,4.2-4.4
                                       C16.2,6.3,14.3,4.3,12,4.3z M12,11.4c-1.5,0-2.7-1.2-2.7-2.7C9.3,7.2,10.5,6,12,6c1.5,0,2.7,1.2,2.7,2.7
                                       C14.7,10.2,13.5,11.4,12,11.4z"></path>
</svg>