<svg viewBox="0 0 24 24" style="enable-background:new 0 0 24 24;" xml:space="preserve">
    <path fill="#ffffff" d="M18.5,24c-0.8,0-2.4-0.1-4.5-1c-2.6-1-5.2-2.8-7.6-5.3C1.4,12.8-0.4,9.1,0.1,5C0.2,4.5,0.3,4,0.5,3.4
    c0,0,0,0,0,0C0.7,2.9,1,2.4,1.3,2c0-0.1,0.1-0.2,0.2-0.3l1-1C2.9,0.2,3.5,0,4.2,0c0.6,0,1.3,0.2,1.7,0.7l3.5,3.5c1,1,0.9,2.5,0,3.5
    L8,9.1c0.6,1.1,1.4,2.5,2.9,4c1.5,1.5,2.9,2.3,4,2.9l1.4-1.4c0.5-0.5,1.1-0.8,1.8-0.8c0.6,0,1.3,0.3,1.7,0.7l3.5,3.5
    c1,1,0.9,2.5,0,3.5c0,0,0,0,0,0l-1,1c-0.1,0.1-0.1,0.1-0.2,0.1c-0.4,0.3-0.9,0.6-1.4,0.8c-0.5,0.2-1.1,0.3-1.6,0.4c0,0,0,0,0,0
    C18.9,24,18.7,24,18.5,24z M1.7,3.9C1.6,4.3,1.4,4.8,1.4,5.2c-0.4,3.6,1.3,7,5.8,11.6c5.4,5.5,10,5.9,11.2,5.9c0.2,0,0.3,0,0.3,0
    c0.4-0.1,0.9-0.2,1.3-0.3c0.5-0.2,0.9-0.4,1.3-0.7c0,0,0.1,0,0.1-0.1l0.9-0.8c0.5-0.5,0.5-1.2,0-1.7l-3.5-3.5
    c-0.2-0.2-0.5-0.3-0.8-0.3c-0.3,0-0.6,0.1-0.9,0.4l-1.8,1.8c-0.2,0.2-0.5,0.3-0.8,0.1c-0.1-0.1-0.2-0.1-0.4-0.2
    c-1.1-0.6-2.7-1.5-4.4-3.2c-1.7-1.7-2.5-3.3-3.2-4.4l0-0.1C6.7,9.5,6.6,9.4,6.6,9.4C6.4,9.1,6.5,8.8,6.7,8.6l1.8-1.8
    c0.5-0.5,0.5-1.2,0-1.7L5,1.6C4.8,1.4,4.5,1.3,4.2,1.3c-0.3,0-0.6,0.1-0.9,0.4L2.5,2.5c0,0,0,0.1-0.1,0.1C2.1,3,1.9,3.4,1.7,3.9z"></path>
</svg>